SplineFontDB: 3.2
FontName: IBMCourier-Italic
FullName: IBM Courier Italic
FamilyName: IBM Courier
Weight: Book
Copyright: Copyright (c) IBM Corporation 1990,1991.
Version: 001.003
ItalicAngle: -12
UnderlinePosition: -100
UnderlineWidth: 50
Ascent: 800
Descent: 200
InvalidEm: 0
LayerCount: 2
Layer: 0 0 "Back" 1
Layer: 1 0 "Fore" 0
UniqueID: 263787
OS2Version: 0
OS2_WeightWidthSlopeOnly: 0
OS2_UseTypoMetrics: 0
CreationTime: 1634085839
ModificationTime: 1634085839
OS2TypoAscent: 0
OS2TypoAOffset: 1
OS2TypoDescent: 0
OS2TypoDOffset: 1
OS2TypoLinegap: 0
OS2WinAscent: 0
OS2WinAOffset: 1
OS2WinDescent: 0
OS2WinDOffset: 1
HheadAscent: 0
HheadAOffset: 1
HheadDescent: 0
HheadDOffset: 1
OS2Vendor: 'PfEd'
Lookup: 4 0 1 "'liga' Standard Ligatures in Latin lookup 0" { "'liga' Standard Ligatures in Latin lookup 0 subtable"  } ['liga' ('latn' <'dflt' > ) ]
DEI: 91125
Encoding: AdobeStandard
UnicodeInterp: none
NameList: AGL For New Fonts
DisplaySize: -48
AntiAlias: 1
FitToEm: 0
BeginPrivate: 6
BlueValues 33 [ -25 0 563 588 430 455 606 631 ]
OtherBlues 27 [ 234 243 330 330 128 153 ]
StdHW 6 [ 47 ]
StdVW 6 [ 50 ]
ForceBold 5 false
Erode 145 {
6.5 dup 3 -1 roll 0.1 mul exch 0.5 sub mul cvi sub dup mul
50 0 dtransform dup mul exch dup mul add
le{pop pop 1.0 1.0}{pop pop 0.0 1.5}ifelse}
EndPrivate
BeginChars: 586 479

StartChar: exclam
Encoding: 33 33 1
Width: 600
Flags: W
HStem: -17 21G<280 319.5> -17 123<298 319.5> 193 378<318 462 318 462> 551 20G<379 462 462 462>
VStem: 238 141<36.5 53> 318 144
LayerCount: 2
Fore
SplineSet
462 571 m 1xbc
 364 193 l 1
 318 193 l 1
 379 571 l 1
 462 571 l 1xbc
320 106 m 0x48
 357 106 379 82 379 55 c 0
 379 18 342 -17 297 -17 c 0
 263 -17 238 5 238 34 c 0
 238 72 276 106 320 106 c 0x48
EndSplineSet
EndChar

StartChar: quotedbl
Encoding: 34 34 2
Width: 600
Flags: W
HStem: 282 281<287 312 238 382 287 428 477 502> 543 20G<287 382 382 382 477 572 572 572>
VStem: 238 144 238 334<282 563> 428 144
LayerCount: 2
Fore
SplineSet
287 563 m 1xf0
 382 563 l 1
 312 282 l 1
 238 282 l 1
 287 563 l 1xf0
477 563 m 1x88
 572 563 l 1
 502 282 l 1
 428 282 l 1
 477 563 l 1x88
EndSplineSet
EndChar

StartChar: numbersign
Encoding: 35 35 3
Width: 600
Flags: MW
HStem: 157 65<123 204 109 222 269 396 123 252 461 554> 389 65<174 266 160 284 174 314 331 459 523 604>
VStem: 109 509<157 454>
LayerCount: 2
Fore
SplineSet
339 659 m 1
 386 659 l 1
 331 454 l 1
 476 454 l 1
 531 659 l 1
 579 659 l 1
 523 454 l 1
 618 454 l 1
 604 389 l 1
 506 389 l 1
 461 222 l 1
 567 222 l 1
 554 157 l 1
 444 157 l 1
 386 -57 l 1
 339 -57 l 1
 396 157 l 1
 252 157 l 1
 194 -57 l 1
 147 -57 l 1
 204 157 l 1
 109 157 l 1
 123 222 l 1
 222 222 l 1
 266 389 l 1
 160 389 l 1
 174 454 l 1
 284 454 l 1
 339 659 l 1
459 389 m 1
 314 389 l 1
 269 222 l 1
 414 222 l 1
 459 389 l 1
EndSplineSet
EndChar

StartChar: dollar
Encoding: 36 36 4
Width: 600
Flags: W
HStem: 16 47<277 287 287 375.5> 543 20G<595 595> 549 20G<558 558>
VStem: 146 40<157 164> 198 54<365 418> 474 53<150 196> 513 39<425 425 425 439.5>
LayerCount: 2
Fore
SplineSet
413 656 m 1xac
 461 656 l 1
 439 552 l 1
 451 552 482 544 510 516 c 0
 512 515 516 510 519 510 c 0
 527 510 552 558 558 569 c 1xaa
 595 563 l 1
 568 513 560 486 552 425 c 1
 513 418 l 1
 513 461 509 490 429 505 c 1xca
 386 299 l 1
 458 279 527 259 527 178 c 0
 527 83 426 16 325 16 c 1
 293 -134 l 1
 245 -134 l 1
 277 16 l 1
 237 20 211 36 202 42 c 0
 198 46 188 53 183 53 c 0
 173 53 161 32 146 6 c 1
 110 16 l 1
 137 74 144 143 146 157 c 1
 186 164 l 1xbc
 184 120 180 64 287 63 c 1
 330 263 l 1
 275 279 198 301 198 381 c 0
 198 455 263 544 391 552 c 1
 413 656 l 1xac
340 312 m 1
 381 505 l 1
 315 495 252 461 252 390 c 0
 252 340 288 329 340 312 c 1
375 250 m 1xac
 336 64 l 1
 430 67 474 129 474 171 c 0
 474 221 435 232 375 250 c 1xac
EndSplineSet
EndChar

StartChar: percent
Encoding: 37 37 5
Width: 600
Flags: W
HStem: -14 45<393 440.5 393 451.5> 208 45<416.5 466.5> 235 21G<141 141> 347 45<255 302.5 255 313.5> 569 45<278.5 328.5>
VStem: 147 53<433 482.5 433 491> 285 53<72 121.5 72 130> 382 53<474 523.5> 520 53<113 162.5>
LayerCount: 2
Fore
SplineSet
457 253 m 0xff80
 538 253 573 195 573 144 c 0
 573 70 501 -14 402 -14 c 0
 319 -14 285 45 285 94 c 0
 285 166 354 253 457 253 c 0xff80
450 208 m 0xdf80
 383 208 338 145 338 98 c 0
 338 46 378 31 408 31 c 0
 473 31 520 88 520 138 c 0
 520 187 483 208 450 208 c 0xdf80
319 614 m 0xbf80
 400 614 435 556 435 505 c 0
 435 431 363 347 264 347 c 0
 181 347 147 406 147 455 c 0
 147 527 216 614 319 614 c 0xbf80
312 569 m 0xbf80
 245 569 200 506 200 459 c 0
 200 407 240 392 270 392 c 0
 335 392 382 449 382 499 c 0
 382 548 345 569 312 569 c 0xbf80
584 426 m 1xbf80
 595 379 l 1
 151 187 l 1
 141 235 l 1
 584 426 l 1xbf80
EndSplineSet
EndChar

StartChar: ampersand
Encoding: 38 38 6
Width: 600
Flags: W
HStem: -7 48<223.5 255.5> 0 47<458 486 423 492> 233 48<517 540 517 517> 494 48<365.5 412.5 365.5 422>
VStem: 124 54<102 123> 248 50<401.5 429.5 401.5 451>
LayerCount: 2
Fore
SplineSet
492 281 m 1x7c
 550 281 l 1
 540 233 l 1
 517 233 l 1
 483 170 457 132 432 102 c 1
 458 47 l 1
 492 47 l 1
 486 0 l 1
 423 0 l 1
 394 58 l 2x7c
 390 66 360 34 353 28 c 0
 333 7 272 -7 239 -7 c 0xbc
 185 -7 124 28 124 109 c 0
 124 137 134 244 281 302 c 1
 253 359 248 387 248 409 c 0
 248 493 332 542 399 542 c 0
 426 542 443 536 466 529 c 0
 472 527 481 525 489 525 c 0
 502 525 511 528 522 533 c 1
 492 445 l 1
 475 465 450 494 394 494 c 0
 331 494 298 444 298 415 c 0
 298 388 314 349 329 318 c 2
 411 145 l 1
 440 189 467 230 484 264 c 2
 490 277 l 1
 490 277 492 280 492 281 c 1x7c
375 102 m 1xbc
 300 263 l 1
 238 239 178 184 178 117 c 0
 178 87 192 41 255 41 c 0
 294 41 334 60 375 102 c 1xbc
EndSplineSet
EndChar

StartChar: quoteright
Encoding: 39 8217 7
Width: 600
Flags: W
HStem: 320 243<246 479 246 479> 543 20G<374 479 479 479>
VStem: 246 233
LayerCount: 2
Fore
SplineSet
374 563 m 1xe0
 479 563 l 1
 319 320 l 1
 246 320 l 1
 374 563 l 1xe0
EndSplineSet
EndChar

StartChar: parenleft
Encoding: 40 40 8
Width: 600
Flags: MW
HStem: -96 745<391 601 391 601>
VStem: 334 59<144 199.5>
LayerCount: 2
Fore
SplineSet
547 649 m 1
 601 649 l 1
 483 491 393 344 393 163 c 0
 393 58 417 -18 441 -96 c 1
 391 -96 l 1
 391 -95 389 -92 389 -92 c 2
 345 4 334 114 334 174 c 0
 334 225 334 338 457 528 c 0
 493 584 526 625 547 649 c 1
EndSplineSet
EndChar

StartChar: parenright
Encoding: 41 41 9
Width: 600
Flags: MW
HStem: -96 745<114 324 114 324>
VStem: 322 59<342.5 416 342.5 434.5>
LayerCount: 2
Fore
SplineSet
168 -96 m 2
 114 -96 l 1
 222 49 322 199 322 391 c 0
 322 478 306 547 277 640 c 0
 276 641 274 648 274 649 c 1
 324 649 l 1
 328 640 l 2
 366 553 381 453 381 379 c 0
 381 306 369 239 327 150 c 0
 286 61 230 -25 178 -84 c 0
 171 -92 170 -93 168 -96 c 2
EndSplineSet
EndChar

StartChar: asterisk
Encoding: 42 42 10
Width: 600
Flags: W
HStem: 207 356<258 451 424 424> 331 21G<367 367> 543 20G<382 451 451 451>
VStem: 192 378<403 403>
LayerCount: 2
Fore
SplineSet
382 563 m 1xf0
 451 563 l 1
 412 416 l 1
 563 467 l 1
 570 403 l 1
 417 363 l 1
 486 247 l 1
 424 207 l 1
 367 331 l 1
 258 207 l 1
 210 247 l 1
 328 363 l 1
 192 403 l 1
 226 467 l 1
 356 416 l 1
 382 563 l 1xf0
EndSplineSet
EndChar

StartChar: plus
Encoding: 43 43 11
Width: 600
Flags: MW
HStem: 278 50<131 340 131 340 390 599>
VStem: 340 50<73 278 73 278 328 533>
LayerCount: 2
Fore
SplineSet
340 533 m 1
 390 533 l 1
 390 328 l 1
 599 328 l 1
 599 278 l 1
 390 278 l 1
 390 73 l 1
 340 73 l 1
 340 278 l 1
 131 278 l 1
 131 328 l 1
 340 328 l 1
 340 533 l 1
EndSplineSet
EndChar

StartChar: comma
Encoding: 44 44 12
Width: 600
Flags: MW
HStem: -109 242<152 385 152 385>
VStem: 152 233
LayerCount: 2
Fore
SplineSet
280 133 m 1
 385 133 l 1
 224 -109 l 1
 152 -109 l 1
 280 133 l 1
EndSplineSet
EndChar

StartChar: hyphen
Encoding: 45 45 13
Width: 600
Flags: MW
HStem: 262 55<259 471 259 471>
VStem: 259 212<262 317 262 317>
LayerCount: 2
Fore
SplineSet
259 317 m 1
 471 317 l 1
 471 262 l 1
 259 262 l 1
 259 317 l 1
EndSplineSet
EndChar

StartChar: period
Encoding: 46 46 14
Width: 600
Flags: W
HStem: -17 21G<280 318> -17 136<300.5 318>
VStem: 231 156<39 62>
LayerCount: 2
Fore
SplineSet
322 119 m 0xe0
 358 119 387 96 387 63 c 0
 387 15 339 -17 297 -17 c 0
 263 -17 231 4 231 39 c 0
 231 85 279 119 322 119 c 0xe0
EndSplineSet
EndChar

StartChar: slash
Encoding: 47 47 15
Width: 600
Flags: MW
HStem: -133 835<105 611>
VStem: 64 588
LayerCount: 2
Fore
SplineSet
611 702 m 1
 652 683 l 1
 105 -133 l 1
 64 -112 l 1
 611 702 l 1
EndSplineSet
EndChar

StartChar: zero
Encoding: 48 48 16
Width: 600
Flags: MW
HStem: -14 45<256 385.5 256 405.5> 576 45<342 469.5>
VStem: 157 54<149 214 149 216.5> 515 54<397 457.5>
LayerCount: 2
Fore
SplineSet
429 621 m 0
 562 621 569 493 569 449 c 0
 569 326 513 -14 298 -14 c 0
 166 -14 157 109 157 157 c 0
 157 276 210 621 429 621 c 0
423 576 m 0
 261 576 211 266 211 162 c 0
 211 136 210 31 302 31 c 0
 469 31 515 350 515 444 c 0
 515 471 516 576 423 576 c 0
EndSplineSet
EndChar

StartChar: one
Encoding: 49 49 17
Width: 600
Flags: MW
HStem: 0 47<119 293 343 505 109 293> 601 20G<432 465 465 465>
VStem: 109 406<0 47>
LayerCount: 2
Fore
SplineSet
217 533 m 1
 432 621 l 1
 465 621 l 1
 343 47 l 1
 515 47 l 1
 505 0 l 1
 109 0 l 1
 119 47 l 1
 293 47 l 1
 402 563 l 1
 228 489 l 1
 217 533 l 1
EndSplineSet
EndChar

StartChar: two
Encoding: 50 50 18
Width: 600
Flags: MW
HStem: 0 47<159 435 159 471> 572 49<391.5 432>
VStem: 515 54<462 500>
LayerCount: 2
Fore
SplineSet
455 146 m 1
 502 146 l 1
 471 0 l 1
 81 0 l 1
 92 54 l 1
 127 79 402 282 460 343 c 0
 510 396 515 452 515 472 c 0
 515 528 462 572 402 572 c 0
 381 572 268 558 252 467 c 1
 199 467 l 1
 214 533 l 1
 269 585 339 621 415 621 c 0
 494 621 569 563 569 474 c 0
 569 398 526 347 506 323 c 0
 464 275 317 157 159 49 c 1
 159 47 l 1
 435 47 l 1
 455 146 l 1
EndSplineSet
EndChar

StartChar: three
Encoding: 51 51 19
Width: 600
Flags: W
HStem: -15 47<247 318.5 247 334> 298 47<297 307> 329 21G 573 47<363.5 410.5>
VStem: 453 54<153.5 218.5> 483 54<490.5 517.5>
LayerCount: 2
Fore
SplineSet
90 35 m 1xd8
 117 78 l 1
 174 48 223 32 271 32 c 0
 366 32 453 103 453 204 c 0
 453 233 438 267 405 285 c 0xd8
 374 302 326 299 297 298 c 1
 307 345 l 1
 346 346 390 347 433 385 c 0
 476 423 483 466 483 489 c 0
 483 546 433 573 388 573 c 0
 334 573 289 547 250 526 c 0
 247 525 232 516 229 515 c 2
 212 555 l 1
 278 593 332 620 395 620 c 0
 475 620 537 568 537 497 c 0xd4
 537 484 537 389 428 329 c 1xb8
 477 306 507 258 507 205 c 0
 507 96 405 -15 263 -15 c 0
 202 -15 161 3 112 25 c 0
 109 26 93 34 90 35 c 1xd8
EndSplineSet
EndChar

StartChar: four
Encoding: 52 52 20
Width: 600
Flags: W
HStem: 0 47<214 349 398 479 205 349> 146 48<164 371 430 510 164 419> 559 62<456 456> 601 20G<451 520 520 520>
VStem: 103 417<146 194>
LayerCount: 2
Fore
SplineSet
520 621 m 1xd8
 430 194 l 1
 520 194 l 1
 510 146 l 1
 419 146 l 1
 398 47 l 1
 488 47 l 1
 479 0 l 1
 205 0 l 1
 214 47 l 1
 349 47 l 1
 371 146 l 1
 103 146 l 1
 116 205 l 1
 451 621 l 1
 520 621 l 1xd8
164 194 m 1
 381 194 l 1
 458 557 l 1
 456 559 l 1xe8
 164 194 l 1
EndSplineSet
EndChar

StartChar: five
Encoding: 53 53 21
Width: 600
Flags: MW
HStem: -14 49<257 349 257 364> 337 47<344 393.5> 559 47<288 578 288 288>
VStem: 478 54<186 259.5>
LayerCount: 2
Fore
SplineSet
253 606 m 1
 588 606 l 1
 578 559 l 1
 288 559 l 1
 245 356 l 1
 278 369 317 384 371 384 c 0
 453 384 532 339 532 231 c 0
 532 134 452 -14 276 -14 c 0
 207 -14 167 2 96 32 c 1
 122 76 l 1
 185 45 236 35 278 35 c 0
 420 35 478 147 478 225 c 0
 478 294 429 337 358 337 c 0
 287 337 231 301 213 289 c 1
 189 304 l 1
 253 606 l 1
EndSplineSet
EndChar

StartChar: six
Encoding: 54 54 22
Width: 600
Flags: MW
HStem: -14 50<280 353.5 280 357.5> 320 50<348.5 404> 572 48<607 617>
VStem: 145 52<119.5 175.5 119.5 231.5> 465 55<172.5 242.5>
LayerCount: 2
Fore
SplineSet
617 620 m 1
 607 572 l 1
 462 576 311 581 217 299 c 1
 219 297 l 1
 262 339 318 370 379 370 c 0
 446 370 520 326 520 217 c 0
 520 99 415 -14 300 -14 c 0
 211 -14 145 52 145 164 c 0
 145 299 223 536 415 600 c 0
 476 621 534 621 617 620 c 1
200 210 m 1
 199 198 197 185 197 166 c 0
 197 73 255 36 305 36 c 0
 402 36 465 131 465 214 c 0
 465 271 433 320 375 320 c 0
 302 320 239 273 200 210 c 1
EndSplineSet
EndChar

StartChar: seven
Encoding: 55 55 23
Width: 600
Flags: MW
HStem: 0 21G<246 305 246 246> 559 47<273 567 273 273>
VStem: 204 423<467 606>
LayerCount: 2
Fore
SplineSet
234 606 m 1
 627 606 l 1
 616 558 l 1
 305 0 l 1
 246 0 l 1
 567 559 l 1
 273 559 l 1
 254 467 l 1
 204 467 l 1
 234 606 l 1
EndSplineSet
EndChar

StartChar: eight
Encoding: 56 56 24
Width: 600
Flags: W
HStem: -14 47<268 342 268 367.5> 282 50<329.5 390> 574 47<379 458.5>
VStem: 136 54<105 164 105 168> 210 54<410 467 410 477> 474 54<144.5 193 144.5 215.5> 527 54<445.5 504.5>
LayerCount: 2
Fore
SplineSet
273 309 m 1xec
 254 320 210 356 210 424 c 0
 210 530 315 621 429 621 c 0
 531 621 581 551 581 488 c 0xea
 581 403 511 335 456 309 c 1
 528 270 528 199 528 187 c 0
 528 102 439 -14 296 -14 c 0
 190 -14 136 52 136 129 c 0xfc
 136 207 201 280 273 309 c 1xec
423 574 m 0
 335 574 264 506 264 428 c 0
 264 392 291 332 368 332 c 0
 443 332 527 401 527 483 c 0xea
 527 526 494 574 423 574 c 0
360 282 m 0xfc
 254 282 190 196 190 132 c 0
 190 78 234 33 302 33 c 0
 382 33 474 93 474 181 c 0
 474 250 420 282 360 282 c 0xfc
EndSplineSet
EndChar

StartChar: nine
Encoding: 57 57 25
Width: 600
Flags: MW
HStem: -13 45 237 50<318 374> 571 50<369 441>
VStem: 202 54<364 435 364 449> 525 52<431.5 488>
LayerCount: 2
Fore
SplineSet
104 -13 m 1
 118 35 l 1
 132 34 145 32 167 32 c 0
 328 32 435 96 505 308 c 1
 503 310 l 1
 460 268 405 237 343 237 c 0
 278 237 202 279 202 389 c 0
 202 509 307 621 421 621 c 0
 509 621 577 556 577 442 c 0
 577 301 500 116 374 37 c 0
 285 -19 192 -16 104 -13 c 1
521 397 m 1
 523 409 525 422 525 441 c 0
 525 535 465 571 417 571 c 0
 321 571 256 477 256 393 c 0
 256 335 289 287 347 287 c 0
 420 287 482 334 521 397 c 1
EndSplineSet
EndChar

StartChar: colon
Encoding: 58 58 26
Width: 600
Flags: W
HStem: -17 21G<280 318> -17 136<301 318> 254 136<359 376>
VStem: 231 156<39.5 62> 289 156<310.5 333>
LayerCount: 2
Fore
SplineSet
381 390 m 0xb8
 415 390 445 367 445 334 c 0
 445 287 397 254 355 254 c 0
 321 254 289 275 289 310 c 0
 289 356 337 390 381 390 c 0xb8
323 119 m 0x50
 357 119 387 96 387 63 c 0
 387 16 339 -17 297 -17 c 0
 263 -17 231 4 231 39 c 0
 231 85 279 119 323 119 c 0x50
EndSplineSet
EndChar

StartChar: semicolon
Encoding: 59 59 27
Width: 600
Flags: W
HStem: -108 498<156 398 156 398> 254 136<359 376>
VStem: 289 156<310.5 333>
LayerCount: 2
Fore
SplineSet
285 134 m 1xa0
 389 134 l 1
 229 -108 l 1
 156 -108 l 1
 285 134 l 1xa0
381 390 m 0x60
 415 390 445 367 445 334 c 0
 445 287 397 254 355 254 c 0
 321 254 289 275 289 310 c 0
 289 356 337 390 381 390 c 0x60
EndSplineSet
EndChar

StartChar: less
Encoding: 60 60 28
Width: 600
Flags: MW
HStem: 133 21G<599 599>
VStem: 107 492<133 308>
LayerCount: 2
Fore
SplineSet
579 89 m 1
 107 308 l 1
 579 532 l 1
 599 487 l 1
 218 308 l 1
 599 133 l 1
 579 89 l 1
EndSplineSet
EndChar

StartChar: equal
Encoding: 61 61 29
Width: 600
Flags: MW
HStem: 188 50<129 601 129 601> 369 50<129 601 129 601>
VStem: 129 472<188 238 188 238 369 419 188 419>
LayerCount: 2
Fore
SplineSet
129 419 m 1
 601 419 l 1
 601 369 l 1
 129 369 l 1
 129 419 l 1
129 238 m 1
 601 238 l 1
 601 188 l 1
 129 188 l 1
 129 238 l 1
EndSplineSet
EndChar

StartChar: greater
Encoding: 62 62 30
Width: 600
Flags: MW
HStem: 129 21G<141 141>
VStem: 141 492<129 308 308 483>
LayerCount: 2
Fore
SplineSet
161 527 m 1
 633 308 l 1
 161 84 l 1
 141 129 l 1
 522 308 l 1
 141 483 l 1
 161 527 l 1
EndSplineSet
EndChar

StartChar: question
Encoding: 63 63 31
Width: 600
Flags: W
HStem: -17 21G<246 284> -17 123<264 284> 178 98<301 302.5 301 329 280 302.5> 523 49<373 403>
VStem: 204 141<36 53.5> 511 52<423 468 366.5 479>
LayerCount: 2
Fore
SplineSet
211 435 m 1xbc
 233 538 l 1
 309 562 346 572 400 572 c 0
 530 572 563 494 563 442 c 0
 563 291 396 251 342 238 c 1
 329 178 l 1
 280 178 l 1
 301 276 l 2
 304 276 314 279 321 280 c 0
 387 296 433 306 473 348 c 0
 502 377 511 411 511 435 c 0
 511 523 411 523 395 523 c 0
 339 523 301 509 275 498 c 1
 261 435 l 1
 211 435 l 1xbc
286 106 m 0x48
 322 106 345 83 345 55 c 0
 345 17 305 -17 263 -17 c 0
 229 -17 204 5 204 35 c 0
 204 72 242 106 286 106 c 0x48
EndSplineSet
EndChar

StartChar: at
Encoding: 64 64 32
Width: 600
Flags: MW
HStem: -14 47<251.5 330> 106 47<446 487.5> 354 50<360 394.5> 499 47<317 443>
VStem: 78 54<134 257 134 269> 209 51<180.5 209.5 180.5 218.5> 588 47<303 416.5>
LayerCount: 2
Fore
SplineSet
530 99 m 2
 544 56 l 1
 463 15 375 -14 285 -14 c 0
 146 -14 78 71 78 190 c 0
 78 348 197 546 422 546 c 0
 551 546 635 474 635 359 c 0
 635 213 535 106 453 106 c 0
 437 106 416 113 407 116 c 0
 390 122 386 131 375 154 c 1
 364 146 363 145 354 138 c 0
 319 107 277 104 268 104 c 0
 244 104 209 124 209 173 c 0
 209 264 306 404 400 404 c 0
 434 404 444 378 449 364 c 1
 466 399 l 1
 518 399 l 1
 442 241 l 2
 435 227 421 198 421 185 c 0
 421 167 436 153 456 153 c 0
 519 153 588 253 588 353 c 0
 588 480 472 499 414 499 c 0
 220 499 132 321 132 193 c 0
 132 75 209 33 294 33 c 0
 385 33 460 66 523 96 c 0
 524 96 529 99 530 99 c 2
281 153 m 0
 340 153 412 268 412 322 c 0
 412 340 402 354 387 354 c 0
 333 354 260 237 260 182 c 0
 260 179 261 153 281 153 c 0
EndSplineSet
EndChar

StartChar: A
Encoding: 65 65 33
Width: 600
Flags: MW
HStem: 0 47<19 71 122 214 9 71 394 496 548 589> 186 44<236 461 236 468 209 461> 516 47<231 364 223 446>
VStem: 9 590<0 47>
LayerCount: 2
Fore
SplineSet
231 563 m 1
 446 563 l 1
 548 47 l 1
 599 47 l 1
 589 0 l 1
 384 0 l 1
 394 47 l 1
 496 47 l 1
 468 186 l 1
 209 186 l 1
 122 47 l 1
 223 47 l 1
 214 0 l 1
 9 0 l 1
 19 47 l 1
 71 47 l 1
 364 516 l 1
 223 516 l 1
 231 563 l 1
461 230 m 1
 407 504 l 1
 236 230 l 1
 461 230 l 1
EndSplineSet
EndChar

StartChar: B
Encoding: 66 66 34
Width: 600
Flags: W
HStem: 0 47<53 136 186 309 43 136> 270 47<243 361 234 375> 516 47<162 234 152 434 286 286 286 426>
VStem: 526 52<160.5 222.5 156.5 224.5> 547 52<435 477.5>
LayerCount: 2
Fore
SplineSet
162 563 m 1xe8
 434 563 l 2
 466 563 599 563 599 446 c 0xe8
 599 374 555 327 491 294 c 1
 515 285 578 263 578 182 c 0
 578 131 549 80 511 49 c 0xf0
 452 1 369 0 309 0 c 2
 43 0 l 1
 53 47 l 1
 136 47 l 1
 234 516 l 1
 152 516 l 1
 162 563 l 1xe8
426 516 m 2
 286 516 l 1
 243 317 l 1
 375 317 l 2
 539 317 547 431 547 439 c 0
 547 516 455 516 426 516 c 2
361 270 m 2
 234 270 l 1
 186 47 l 1
 314 47 l 2
 362 47 434 47 478 82 c 0
 508 106 526 142 526 179 c 0xf0
 526 270 391 270 361 270 c 2
EndSplineSet
EndChar

StartChar: C
Encoding: 67 67 35
Width: 600
Flags: W
HStem: -17 50<277.5 396 277.5 406> 368 133<602.5 608 602.5 625 581 608> 530 50<373 467> 543 20G<635 635>
VStem: 117 54<164.5 295.5 164.5 311> 584 41<368 461.5>
LayerCount: 2
Fore
SplineSet
635 563 m 1xfc
 675 555 l 2
 675 552 671 542 670 539 c 0
 643 458 633 434 625 368 c 1
 581 368 l 1xdc
 583 382 584 393 584 408 c 0
 584 515 484 530 450 530 c 0
 296 530 171 384 171 207 c 0
 171 122 208 33 347 33 c 0
 445 33 508 73 546 100 c 0
 547 101 551 104 552 104 c 2
 581 62 l 1
 542 35 468 -17 344 -17 c 0
 178 -17 117 85 117 208 c 0
 117 414 275 580 452 580 c 0xac
 506 580 544 561 573 533 c 0
 578 528 601 501 604 501 c 0
 612 501 620 523 626 538 c 0
 632 554 632 556 635 563 c 1xfc
EndSplineSet
EndChar

StartChar: D
Encoding: 68 68 36
Width: 600
Flags: MW
HStem: 0 47<42 121 172 280 32 121> 516 47<152 221 142 400 272 272 272 394>
VStem: 566 54<353 399>
LayerCount: 2
Fore
SplineSet
152 563 m 1
 400 563 l 2
 488 563 521 553 551 532 c 0
 595 501 620 437 620 375 c 0
 620 331 608 197 514 91 c 0
 434 0 325 0 280 0 c 2
 32 0 l 1
 42 47 l 1
 121 47 l 1
 221 516 l 1
 142 516 l 1
 152 563 l 1
394 516 m 2
 272 516 l 1
 172 47 l 1
 287 47 l 2
 326 47 413 47 477 122 c 0
 549 206 566 311 566 360 c 0
 566 438 531 477 516 489 c 0
 498 504 475 516 394 516 c 2
EndSplineSet
EndChar

StartChar: E
Encoding: 69 69 37
Width: 600
Flags: MW
HStem: 0 47<65 151 201 499 55 151> 274 47<259 411 250 421> 516 47<175 250 165 651 301 589 301 301>
VStem: 55 596<0 563>
LayerCount: 2
Fore
SplineSet
175 563 m 1
 651 563 l 1
 616 379 l 1
 570 379 l 1
 589 516 l 1
 301 516 l 1
 259 321 l 1
 421 321 l 1
 437 394 l 1
 483 394 l 1
 442 202 l 1
 396 202 l 1
 411 274 l 1
 250 274 l 1
 201 47 l 1
 499 47 l 1
 533 184 l 1
 580 184 l 1
 541 0 l 1
 55 0 l 1
 65 47 l 1
 151 47 l 1
 250 516 l 1
 165 516 l 1
 175 563 l 1
EndSplineSet
EndChar

StartChar: F
Encoding: 70 70 38
Width: 600
Flags: MW
HStem: 0 47<82 164 212 332 72 164> 274 47<270 422 262 432> 516 47<192 262 182 659 312 598 312 312>
VStem: 72 587<0 563>
LayerCount: 2
Fore
SplineSet
192 563 m 1
 659 563 l 1
 626 383 l 1
 581 383 l 1
 598 516 l 1
 312 516 l 1
 270 321 l 1
 432 321 l 1
 448 395 l 1
 493 395 l 1
 453 204 l 1
 407 204 l 1
 422 274 l 1
 262 274 l 1
 212 47 l 1
 342 47 l 1
 332 0 l 1
 72 0 l 1
 82 47 l 1
 164 47 l 1
 262 516 l 1
 182 516 l 1
 192 563 l 1
EndSplineSet
EndChar

StartChar: G
Encoding: 71 71 39
Width: 600
Flags: W
HStem: -17 50<266.5 347 266.5 348> 201 46<382 521 372 629 571 619 571 571> 530 50<351 446.5> 543 20G<613 613>
VStem: 98 54<156 290 156 295.5> 565 48<364 372>
LayerCount: 2
Fore
SplineSet
382 247 m 1xec
 629 247 l 1
 619 201 l 1
 571 201 l 1
 535 31 l 1
 443 -5 376 -17 320 -17 c 0
 176 -17 98 70 98 204 c 0
 98 387 241 580 431 580 c 0
 491 580 544 553 572 510 c 0
 574 508 579 500 582 500 c 0xec
 592 500 612 561 613 563 c 2
 659 555 l 1xdc
 650 530 621 448 613 372 c 1
 565 364 l 1
 567 396 569 430 551 465 c 0
 523 519 467 530 426 530 c 0
 276 530 152 375 152 205 c 0
 152 107 203 33 330 33 c 0
 364 33 407 38 492 66 c 1
 521 201 l 1
 372 201 l 1
 382 247 l 1xec
EndSplineSet
EndChar

StartChar: H
Encoding: 72 72 40
Width: 600
Flags: MW
HStem: 0 47<47 122 173 237 37 122 370 445 494 560> 267 47<229 494 221 502> 516 47<157 221 147 359 272 347 272 272 480 544 595 595 595 670>
VStem: 37 643<0 563>
LayerCount: 2
Fore
SplineSet
157 563 m 1
 359 563 l 1
 347 516 l 1
 272 516 l 1
 229 314 l 1
 502 314 l 1
 544 516 l 1
 470 516 l 1
 480 563 l 1
 680 563 l 1
 670 516 l 1
 595 516 l 1
 494 47 l 1
 570 47 l 1
 560 0 l 1
 359 0 l 1
 370 47 l 1
 445 47 l 1
 494 267 l 1
 221 267 l 1
 173 47 l 1
 248 47 l 1
 237 0 l 1
 37 0 l 1
 47 47 l 1
 122 47 l 1
 221 516 l 1
 147 516 l 1
 157 563 l 1
EndSplineSet
EndChar

StartChar: I
Encoding: 73 73 41
Width: 600
Flags: MW
HStem: 0 47<108 283 334 498 98 283> 516 47<218 382 208 618 433 608 433 433>
VStem: 98 520
LayerCount: 2
Fore
SplineSet
218 563 m 1
 618 563 l 1
 608 516 l 1
 433 516 l 1
 334 47 l 1
 508 47 l 1
 498 0 l 1
 98 0 l 1
 108 47 l 1
 283 47 l 1
 382 516 l 1
 208 516 l 1
 218 563 l 1
EndSplineSet
EndChar

StartChar: J
Encoding: 74 74 42
Width: 600
Flags: MW
HStem: -17 50<251.5 315> 516 47<323 509 313 698 560 688 560 560>
VStem: 76 622<47 563>
LayerCount: 2
Fore
SplineSet
323 563 m 1
 698 563 l 1
 688 516 l 1
 560 516 l 1
 494 204 l 2
 478 131 466 96 445 66 c 0
 410 13 348 -17 282 -17 c 0
 221 -17 161 2 76 47 c 1
 113 263 l 1
 162 263 l 1
 145 165 l 2
 144 155 140 134 140 115 c 0
 140 57 224 33 277 33 c 0
 404 33 425 118 443 204 c 2
 509 516 l 1
 313 516 l 1
 323 563 l 1
EndSplineSet
EndChar

StartChar: K
Encoding: 75 75 43
Width: 600
Flags: MW
HStem: 0 47<68 153 204 278 58 153 503 586> 516 47<178 254 168 397 304 387 304 304 481 552 624 624 624 667>
VStem: 58 619<0 563>
LayerCount: 2
Fore
SplineSet
178 563 m 1
 397 563 l 1
 387 516 l 1
 304 516 l 1
 254 290 l 1
 552 514 l 1
 552 516 l 1
 471 516 l 1
 481 563 l 1
 677 563 l 1
 667 516 l 1
 624 516 l 1
 367 320 l 1
 429 224 458 158 503 47 c 1
 597 47 l 1
 586 0 l 1
 464 0 l 1
 462 6 461 8 456 24 c 0
 397 183 344 262 325 290 c 1
 242 227 l 1
 204 47 l 1
 288 47 l 1
 278 0 l 1
 58 0 l 1
 68 47 l 1
 153 47 l 1
 254 516 l 1
 168 516 l 1
 178 563 l 1
EndSplineSet
EndChar

StartChar: L
Encoding: 76 76 44
Width: 600
Flags: MW
HStem: 0 47<67 167 217 500 57 167> 516 47<177 267 167 450 317 440 317 317>
VStem: 57 548<0 249>
LayerCount: 2
Fore
SplineSet
177 563 m 1
 450 563 l 1
 440 516 l 1
 317 516 l 1
 217 47 l 1
 500 47 l 1
 557 249 l 1
 605 249 l 1
 540 0 l 1
 57 0 l 1
 67 47 l 1
 167 47 l 1
 267 516 l 1
 167 516 l 1
 177 563 l 1
EndSplineSet
EndChar

StartChar: M
Encoding: 77 77 45
Width: 600
Flags: MW
HStem: 0 47<10 71 117 216 0 71 385 495 543 602> 144 80<337 354 337 354 303 354> 516 47<127 186 117 290 231 249 231 231 569 586 569 569 635 697 635 635>
VStem: 0 707<0 563>
LayerCount: 2
Fore
SplineSet
127 563 m 1
 290 563 l 1
 337 224 l 1
 354 224 l 1
 550 563 l 1
 707 563 l 1
 697 516 l 1
 635 516 l 1
 543 47 l 1
 609 47 l 1
 602 0 l 1
 375 0 l 1
 385 47 l 1
 495 47 l 1
 586 516 l 1
 569 516 l 1
 354 144 l 1
 303 144 l 1
 249 516 l 1
 231 516 l 1
 117 47 l 1
 226 47 l 1
 216 0 l 1
 0 0 l 1
 10 47 l 1
 71 47 l 1
 186 516 l 1
 117 516 l 1
 127 563 l 1
EndSplineSet
EndChar

StartChar: N
Encoding: 78 78 46
Width: 600
Flags: W
HStem: -13 55<470 487 470 525 434 487> 0 47<36 119 166 263 26 119> 516 47<146 216 136 316 263 279 263 263 487 584 631 631 631 699>
VStem: 26 683<0 563>
LayerCount: 2
Fore
SplineSet
146 563 m 1x70
 316 563 l 1
 470 42 l 1
 487 42 l 1
 584 516 l 1
 476 516 l 1
 487 563 l 1
 709 563 l 1
 699 516 l 1
 631 516 l 1
 525 -13 l 1
 434 -13 l 1xb0
 279 516 l 1
 263 516 l 1
 166 47 l 1
 274 47 l 1
 263 0 l 1
 26 0 l 1
 36 47 l 1
 119 47 l 1
 216 516 l 1
 136 516 l 1
 146 563 l 1x70
EndSplineSet
EndChar

StartChar: O
Encoding: 79 79 47
Width: 600
Flags: MW
HStem: -17 47<238 377.5 238 390> 533 47<336 475>
VStem: 92 54<186 285.5 181.5 292> 570 54<276.5 389>
LayerCount: 2
Fore
SplineSet
92 211 m 0
 92 373 223 580 419 580 c 0
 598 580 624 420 624 361 c 0
 624 174 483 -17 297 -17 c 0
 107 -17 92 161 92 211 c 0
146 215 m 0
 146 148 174 30 302 30 c 0
 453 30 570 198 570 355 c 0
 570 423 536 533 414 533 c 0
 258 533 146 356 146 215 c 0
EndSplineSet
EndChar

StartChar: P
Encoding: 80 80 48
Width: 600
Flags: MW
HStem: 0 47<101 183 231 369 91 183> 221 47<278 326 268 332> 516 47<211 283 201 438 332 332 332 431>
VStem: 588 52<396 440 392.5 466.5>
LayerCount: 2
Fore
SplineSet
211 563 m 1
 438 563 l 2
 490 563 555 561 594 527 c 0
 624 500 640 460 640 420 c 0
 640 365 608 309 569 274 c 0
 509 221 436 221 326 221 c 2
 268 221 l 1
 231 47 l 1
 379 47 l 1
 369 0 l 1
 91 0 l 1
 101 47 l 1
 183 47 l 1
 283 516 l 1
 201 516 l 1
 211 563 l 1
431 516 m 2
 332 516 l 1
 278 268 l 1
 332 268 l 2
 423 268 489 267 532 305 c 0
 563 333 588 375 588 417 c 0
 588 516 492 516 431 516 c 2
EndSplineSet
EndChar

StartChar: Q
Encoding: 81 81 49
Width: 600
Flags: W
HStem: -127 49<414 438 414 441.5> -17 47 -6 21G 533 47<336 462.5 330 475>
VStem: 92 54<181.5 285.5 181.5 297.5> 570 54<286 389>
LayerCount: 2
Fore
SplineSet
503 -52 m 1xdc
 526 -90 l 1
 499 -107 463 -127 420 -127 c 0
 388 -127 369 -118 339 -103 c 0
 310 -89 292 -84 267 -84 c 0
 220 -84 191 -99 138 -126 c 1
 123 -85 l 1
 155 -67 171 -57 226 -6 c 1xbc
 151 15 92 97 92 197 c 0
 92 398 238 580 422 580 c 0
 503 580 624 530 624 361 c 0
 624 211 514 -21 279 -17 c 1
 274 -24 270 -26 256 -36 c 1
 258 -38 l 1
 277 -36 307 -34 358 -57 c 0
 401 -76 406 -78 422 -78 c 0
 454 -78 477 -66 503 -52 c 1xdc
146 215 m 0xdc
 146 148 174 30 302 30 c 0
 453 30 570 198 570 355 c 0
 570 423 536 533 414 533 c 0
 258 533 146 356 146 215 c 0xdc
EndSplineSet
EndChar

StartChar: R
Encoding: 82 82 50
Width: 600
Flags: MW
HStem: 0 47<54 136 185 265 44 136 497 576> 259 44<239 334 334 347 230 334> 516 47<163 235 153 418 284 284 284 412>
VStem: 535 52<414.5 478>
LayerCount: 2
Fore
SplineSet
163 563 m 1
 418 563 l 2
 487 563 587 563 587 442 c 0
 587 362 522 272 403 259 c 1
 405 254 408 247 413 237 c 0
 423 216 428 204 474 101 c 0
 488 69 492 59 497 47 c 1
 586 47 l 1
 576 0 l 1
 450 0 l 1
 433 67 406 131 377 193 c 0
 372 203 351 249 349 254 c 0
 349 255 347 258 347 259 c 1
 230 259 l 1
 185 47 l 1
 275 47 l 1
 265 0 l 1
 44 0 l 1
 54 47 l 1
 136 47 l 1
 235 516 l 1
 153 516 l 1
 163 563 l 1
412 516 m 2
 284 516 l 1
 239 303 l 1
 334 303 l 2
 375 303 435 303 478 334 c 0
 503 352 535 389 535 440 c 0
 535 516 473 516 412 516 c 2
EndSplineSet
EndChar

StartChar: S
Encoding: 83 83 51
Width: 600
Flags: W
HStem: -17 47<304.5 377 246.5 397> -12 21G<67 67> 51 117<142 147.5> 533 47<354.5 444> 550 20G<631 631>
VStem: 110 44<168 168> 184 54<383 437.5 360.5 442.5> 491 54<137 207.5> 539 38<383 462.5>
LayerCount: 2
Fore
SplineSet
590 581 m 2x93
 631 570 l 1x8a80
 593 476 582 418 577 383 c 1
 535 391 l 1
 537 401 539 412 539 426 c 0x9280
 539 499 482 533 406 533 c 0
 303 533 238 470 238 405 c 0
 238 316 325 311 368 308 c 0
 468 301 545 269 545 173 c 0
 545 86 471 -17 323 -17 c 0x93
 286 -17 203 -10 157 42 c 0
 155 45 149 51 146 51 c 0xb7
 138 51 116 -4 110 -19 c 1x97
 67 -12 l 1
 92 64 100 91 110 168 c 1x77
 154 168 l 1x97
 151 117 176 30 317 30 c 0
 437 30 491 105 491 169 c 0
 491 246 419 252 351 258 c 0
 296 263 263 274 239 292 c 0
 206 317 184 362 184 404 c 0
 184 481 260 580 402 580 c 0
 492 580 524 541 535 527 c 0
 538 524 543 518 546 518 c 0
 557 518 580 561 586 574 c 0
 587 575 589 580 590 581 c 2x93
EndSplineSet
EndChar

StartChar: T
Encoding: 84 84 52
Width: 600
Flags: MW
HStem: 0 47<164 284 333 445 153 284> 516 47<214 384 214 214 432 603 432 432>
VStem: 118 540<353 563>
LayerCount: 2
Fore
SplineSet
178 563 m 1
 658 563 l 1
 628 353 l 1
 580 353 l 1
 603 516 l 1
 432 516 l 1
 333 47 l 1
 455 47 l 1
 445 0 l 1
 153 0 l 1
 164 47 l 1
 284 47 l 1
 384 516 l 1
 214 516 l 1
 167 353 l 1
 118 353 l 1
 178 563 l 1
EndSplineSet
EndChar

StartChar: U
Encoding: 85 85 53
Width: 600
Flags: MW
HStem: -17 51<263 326.5> 516 47<148 212 138 373 262 363 262 262 477 570 617 617 617 688>
VStem: 137 51<118.5 132.5>
LayerCount: 2
Fore
SplineSet
148 563 m 1
 373 563 l 1
 363 516 l 1
 262 516 l 1
 201 234 l 2
 197 214 188 165 188 130 c 0
 188 107 197 34 309 34 c 0
 467 34 489 135 508 227 c 2
 570 516 l 1
 467 516 l 1
 477 563 l 1
 698 563 l 1
 688 516 l 1
 617 516 l 1
 554 221 l 2
 530 108 507 70 471 40 c 0
 418 -3 352 -17 301 -17 c 0
 225 -17 137 19 137 123 c 0
 137 142 138 169 152 234 c 2
 212 516 l 1
 138 516 l 1
 148 563 l 1
EndSplineSet
EndChar

StartChar: V
Encoding: 86 86 54
Width: 600
Flags: W
HStem: 0 21G<270 331 270 270> 0 56<313 313 313 331 270 313> 516 47<125 184 115 339 234 331 234 234 499 591 641 641 641 702>
VStem: 115 597<516 563>
LayerCount: 2
Fore
SplineSet
125 563 m 1xb0
 339 563 l 1
 331 516 l 1
 234 516 l 1
 313 56 l 1x70
 591 516 l 1
 489 516 l 1
 499 563 l 1
 712 563 l 1
 702 516 l 1
 641 516 l 1
 331 0 l 1
 270 0 l 1
 184 516 l 1
 115 516 l 1
 125 563 l 1xb0
EndSplineSet
EndChar

StartChar: W
Encoding: 87 87 55
Width: 600
Flags: W
HStem: 0 21G<120 168 120 120 426 477 426 426> 0 96<120 176 120 176 464 466> 516 47<120 158 111 318 206 308 206 206 521 613 660 660 660 706>
VStem: 111 605<516 563>
LayerCount: 2
Fore
SplineSet
120 563 m 1xb0
 318 563 l 1
 308 516 l 1
 206 516 l 1
 174 98 l 1
 176 96 l 1
 381 460 l 1
 415 460 l 1
 464 96 l 1
 466 96 l 1x70
 613 516 l 1
 511 516 l 1
 521 563 l 1
 716 563 l 1
 706 516 l 1
 660 516 l 1
 477 0 l 1
 426 0 l 1
 377 364 l 1
 375 364 l 1
 168 0 l 1
 120 0 l 1
 158 516 l 1
 111 516 l 1
 120 563 l 1xb0
EndSplineSet
EndChar

StartChar: X
Encoding: 88 88 56
Width: 600
Flags: MW
HStem: 0 47<41 91 149 244 31 91 372 465 523 566> 516 47<170 214 160 364 272 354 272 272 483 548 606 606 606 657>
VStem: 31 636<0 563>
LayerCount: 2
Fore
SplineSet
170 563 m 1
 364 563 l 1
 354 516 l 1
 272 516 l 1
 372 333 l 1
 548 516 l 1
 473 516 l 1
 483 563 l 1
 667 563 l 1
 657 516 l 1
 606 516 l 1
 390 296 l 1
 523 47 l 1
 576 47 l 1
 566 0 l 1
 364 0 l 1
 372 47 l 1
 465 47 l 1
 354 259 l 1
 149 47 l 1
 255 47 l 1
 244 0 l 1
 31 0 l 1
 41 47 l 1
 91 47 l 1
 334 296 l 1
 214 516 l 1
 160 516 l 1
 170 563 l 1
EndSplineSet
EndChar

StartChar: Y
Encoding: 89 89 57
Width: 600
Flags: MW
HStem: 0 47<166 285 336 443 156 285> 516 47<150 204 140 347 260 336 260 260 492 559 615 615 615 677>
VStem: 140 547<516 563>
LayerCount: 2
Fore
SplineSet
150 563 m 1
 347 563 l 1
 336 516 l 1
 260 516 l 1
 358 268 l 1
 559 516 l 1
 482 516 l 1
 492 563 l 1
 687 563 l 1
 677 516 l 1
 615 516 l 1
 371 218 l 1
 336 47 l 1
 453 47 l 1
 443 0 l 1
 156 0 l 1
 166 47 l 1
 285 47 l 1
 322 218 l 1
 204 516 l 1
 140 516 l 1
 150 563 l 1
EndSplineSet
EndChar

StartChar: Z
Encoding: 90 90 58
Width: 600
Flags: MW
HStem: 0 47<93 93 154 478 83 93> 516 47<246 536 246 246>
VStem: 83 529
LayerCount: 2
Fore
SplineSet
209 563 m 1
 612 563 l 1
 603 521 l 1
 154 47 l 1
 478 47 l 1
 514 209 l 1
 559 209 l 1
 514 0 l 1
 83 0 l 1
 93 47 l 1
 536 516 l 1
 246 516 l 1
 215 370 l 1
 168 370 l 1
 209 563 l 1
EndSplineSet
EndChar

StartChar: bracketleft
Encoding: 91 91 59
Width: 600
Flags: MW
HStem: -94 50<349 464> 604 50<487 612 487 487>
VStem: 288 335
LayerCount: 2
Fore
SplineSet
447 654 m 1
 623 654 l 1
 612 604 l 1
 487 604 l 1
 349 -44 l 1
 474 -44 l 1
 464 -94 l 1
 288 -94 l 1
 447 654 l 1
EndSplineSet
EndChar

StartChar: backslash
Encoding: 92 92 60
Width: 600
Flags: MW
HStem: -139 845<284 437>
VStem: 237 247
LayerCount: 2
Fore
SplineSet
284 706 m 1
 484 -119 l 1
 437 -139 l 1
 237 687 l 1
 284 706 l 1
EndSplineSet
EndChar

StartChar: bracketright
Encoding: 93 93 61
Width: 600
Flags: MW
HStem: -94 50<104 229 104 269 93 229> 604 50<252 367 242 428>
VStem: 93 335
LayerCount: 2
Fore
SplineSet
269 -94 m 1
 93 -94 l 1
 104 -44 l 1
 229 -44 l 1
 367 604 l 1
 242 604 l 1
 252 654 l 1
 428 654 l 1
 269 -94 l 1
EndSplineSet
EndChar

StartChar: asciicircum
Encoding: 94 94 62
Width: 600
Flags: W
HStem: 154 21G<138 214 138 138 516 516 516 592> 479 84<365 365> 543 20G<328 402 402 402>
VStem: 138 454<154 154>
LayerCount: 2
Fore
SplineSet
365 479 m 1xf0
 214 154 l 1
 138 154 l 1
 328 563 l 1
 402 563 l 1
 592 154 l 1
 516 154 l 1
 365 479 l 1xf0
EndSplineSet
EndChar

StartChar: underscore
Encoding: 95 95 63
Width: 600
Flags: MW
HStem: -125 50<-48 648 -48 648>
VStem: -48 696<-125 -75 -125 -75>
LayerCount: 2
Fore
SplineSet
-48 -75 m 1
 648 -75 l 1
 648 -125 l 1
 -48 -125 l 1
 -48 -75 l 1
EndSplineSet
EndChar

StartChar: quoteleft
Encoding: 96 8216 64
Width: 600
Flags: W
HStem: 320 243<228 461 228 461> 543 20G<388 461 461 461>
VStem: 228 233
LayerCount: 2
Fore
SplineSet
332 320 m 1xe0
 228 320 l 1
 388 563 l 1
 461 563 l 1
 332 320 l 1xe0
EndSplineSet
EndChar

StartChar: a
Encoding: 97 97 65
Width: 600
Flags: W
HStem: -14 48<202 254.5 202 255.5> 0 47<472 549> 230 48<253 340.5 244.5 353> 402 48<345.5 415>
VStem: 82 54<84 127.5 84 139.5> 477 53<337.5 351.5>
LayerCount: 2
Fore
SplineSet
523 296 m 2x7c
 472 47 l 1
 559 47 l 1
 549 0 l 1
 410 0 l 1x7c
 422 57 l 1
 364 24 297 -14 214 -14 c 0xbc
 135 -14 82 38 82 103 c 0
 82 176 158 278 331 278 c 0
 350 278 406 276 467 265 c 1
 472 296 l 2
 473 301 477 327 477 339 c 0
 477 364 455 402 375 402 c 0
 306 402 235 375 195 360 c 1
 185 406 l 1
 231 423 304 450 387 450 c 0
 463 450 530 417 530 347 c 0
 530 328 524 302 523 296 c 2x7c
435 119 m 1xbc
 457 219 l 1
 415 226 374 230 332 230 c 0
 174 230 136 147 136 108 c 0
 136 60 183 34 221 34 c 0
 288 34 384 80 435 119 c 1xbc
EndSplineSet
EndChar

StartChar: b
Encoding: 98 98 66
Width: 600
Flags: W
HStem: -10 49<311 382.5 288 390> 0 47<25 106 25 144 15 106> 384 49<358 439> 575 54 600 20G<135 135>
VStem: 537 54<197 294>
LayerCount: 2
Fore
SplineSet
135 620 m 1x7c
 278 629 l 1
 218 350 l 1
 220 348 l 1
 243 371 309 433 407 433 c 0
 503 433 591 371 591 254 c 0
 591 122 460 -10 320 -10 c 0
 302 -10 213 -10 161 78 c 1xb4
 144 0 l 1
 15 0 l 1
 25 47 l 1
 106 47 l 1
 218 577 l 1
 128 573 l 1x74
 135 620 l 1x7c
407 384 m 0
 282 384 186 274 186 174 c 0
 186 89 250 39 326 39 c 0
 439 39 537 144 537 250 c 0
 537 338 471 384 407 384 c 0
EndSplineSet
EndChar

StartChar: c
Encoding: 99 99 67
Width: 600
Flags: W
HStem: -14 49<298 347.5> 396 49<321 433 311 463.5> 419 20G<603 603>
VStem: 106 54<106 223.5 106 235.5> 524 43<273 279>
LayerCount: 2
Fore
SplineSet
567 447 m 1xd8
 603 439 l 1xb8
 580 379 572 343 567 279 c 1
 524 273 l 1
 526 322 530 396 397 396 c 0
 245 396 160 274 160 173 c 0
 160 39 286 35 310 35 c 0
 390 35 477 87 516 110 c 1
 536 69 l 1
 485 38 399 -14 296 -14 c 0
 220 -14 106 28 106 168 c 0
 106 303 227 445 395 445 c 0
 471 445 504 416 525 395 c 0
 526 394 531 390 534 390 c 0
 542 390 556 415 567 447 c 1xd8
EndSplineSet
EndChar

StartChar: d
Encoding: 100 100 68
Width: 600
Flags: W
HStem: -10 49<248.5 287> 0 47<506 580> 383 49<303.5 393.5 297.5 400> 607 20G<629 629>
VStem: 94 56<125 226 125 239>
LayerCount: 2
Fore
SplineSet
417 608 m 1x78
 629 627 l 1
 506 47 l 1
 590 47 l 1
 580 0 l 1
 447 0 l 1x78
 462 71 l 1
 460 73 l 1
 379 -10 299 -10 275 -10 c 0xb8
 158 -10 94 77 94 168 c 0
 94 310 232 432 363 432 c 0
 424 432 488 404 516 348 c 1
 518 348 l 1
 568 573 l 1
 401 563 l 1
 417 608 l 1x78
277 39 m 0xb8
 401 39 494 147 494 249 c 0
 494 330 438 383 362 383 c 0
 245 383 150 281 150 171 c 0
 150 79 220 39 277 39 c 0xb8
EndSplineSet
EndChar

StartChar: e
Encoding: 101 101 69
Width: 600
Flags: MW
HStem: -14 49<287.5 348> 203 45<180 536 180 577 167 536> 396 49<332 446.5>
VStem: 112 54<116 180 116 234> 538 54<269.5 304.5>
LayerCount: 2
Fore
SplineSet
541 96 m 1
 555 51 l 1
 551 49 550 49 549 48 c 2
 535 41 l 2
 474 10 382 -14 314 -14 c 0
 191 -14 112 51 112 163 c 0
 112 305 235 445 401 445 c 0
 535 445 592 362 592 281 c 0
 592 258 588 238 578 208 c 2
 577 203 l 1
 167 203 l 1
 166 194 166 186 166 174 c 0
 166 58 255 35 320 35 c 0
 398 35 475 68 541 96 c 1
180 248 m 1
 536 248 l 1
 537 255 538 263 538 275 c 0
 538 334 498 396 395 396 c 0
 269 396 203 304 180 248 c 1
EndSplineSet
EndChar

StartChar: f
Encoding: 102 102 70
Width: 600
Flags: W
HStem: 0 47<105 210 260 433 95 210> 371 47<184 279 174 289 339 515 184 329> 578 47<420.5 482> 593 20G<625 625.5>
VStem: 95 541
LayerCount: 2
Fore
SplineSet
184 418 m 1xe8
 289 418 l 1
 301 477 l 2
 318 558 345 625 488 625 c 0xe8
 541 625 587 618 625 613 c 0
 626 613 634 611 636 611 c 1xd8
 605 563 l 1
 548 573 496 578 468 578 c 0
 373 578 362 527 350 471 c 2
 339 418 l 1
 525 418 l 1
 515 371 l 1
 329 371 l 1
 260 47 l 1
 443 47 l 1
 433 0 l 1
 95 0 l 1
 105 47 l 1
 210 47 l 1
 279 371 l 1
 174 371 l 1
 184 418 l 1xe8
EndSplineSet
EndChar

StartChar: g
Encoding: 103 103 71
Width: 600
Flags: W
HStem: -157 49<238 309 238 316> 11 49<245 289> 383 47<551 633 551 551> 385 49<293.5 375 282.5 381.5>
VStem: 89 54<138.5 236.5 138.5 244>
LayerCount: 2
Fore
SplineSet
511 430 m 1xe8
 643 430 l 1
 633 383 l 1
 551 383 l 1xe8
 476 26 l 2
 452 -90 396 -157 236 -157 c 0
 202 -157 175 -156 151 -155 c 1
 163 -102 l 1
 192 -105 220 -108 256 -108 c 0
 362 -108 410 -63 427 26 c 2
 438 84 l 1
 436 86 l 1
 376 29 315 11 263 11 c 0
 154 11 89 88 89 181 c 0
 89 307 211 434 354 434 c 0
 396 434 462 417 495 356 c 1xd8
 511 430 l 1xe8
268 60 m 0
 382 60 471 159 471 262 c 0
 471 339 413 385 350 385 c 0xd8
 237 385 143 287 143 186 c 0
 143 91 222 60 268 60 c 0
EndSplineSet
EndChar

StartChar: h
Encoding: 104 104 72
Width: 600
Flags: W
HStem: 0 47<45 130 180 251 36 130 363 450 499 573> 393 51<395 448> 573.5 55.5 597 20G<154 154>
VStem: 505 49<317.5 347>
LayerCount: 2
Fore
SplineSet
154 617 m 1xf8
 304 629 l 1
 251 372 l 1
 293 400 359 444 431 444 c 0
 487 444 554 405 554 326 c 0
 554 304 549 279 548 273 c 2
 499 47 l 1
 584 47 l 1
 573 0 l 1
 354 0 l 1
 363 47 l 1
 450 47 l 1
 499 273 l 2
 501 281 505 307 505 328 c 0
 505 366 468 393 428 393 c 0
 356 393 277 339 236 310 c 1
 180 47 l 1
 262 47 l 1
 251 0 l 1
 36 0 l 1
 45 47 l 1
 130 47 l 1
 243 577 l 1
 148 570 l 1xe8
 154 617 l 1xf8
EndSplineSet
EndChar

StartChar: i
Encoding: 105 105 73
Width: 600
Flags: W
HStem: 0 47<108 284 335 498 98 284> 383 47<218 355 208 416> 537 119<366 464 391 439>
VStem: 98 410<0 47> 366 98
LayerCount: 2
Fore
SplineSet
218 430 m 1xf0
 416 430 l 1
 335 47 l 1
 508 47 l 1
 498 0 l 1
 98 0 l 1
 108 47 l 1
 284 47 l 1
 355 383 l 1
 208 383 l 1
 218 430 l 1xf0
366 537 m 1x28
 391 656 l 1
 464 656 l 1
 439 537 l 1
 366 537 l 1x28
EndSplineSet
EndChar

StartChar: j
Encoding: 106 106 74
Width: 600
Flags: W
HStem: -151 49<156.5 249.5 156.5 264> 383 47<174 420 164 481> 537 119<409 507 434 482>
VStem: 37 470 409 98
LayerCount: 2
Fore
SplineSet
174 430 m 1xf0
 481 430 l 1
 397 39 l 2
 386 -15 357 -151 171 -151 c 0
 117 -151 73 -141 37 -134 c 1
 59 -87 l 1
 84 -92 131 -102 182 -102 c 0
 317 -102 337 -8 349 47 c 2
 420 383 l 1
 164 383 l 1
 174 430 l 1xf0
409 537 m 1x28
 434 656 l 1
 507 656 l 1
 482 537 l 1
 409 537 l 1x28
EndSplineSet
EndChar

StartChar: k
Encoding: 107 107 75
Width: 600
Flags: W
HStem: 0 47<61 144 61 184 52 144 364 429 487 562> 383 47<406 451 396 616 528 528 528 606> 573 56 596 20G<166 166>
VStem: 52 564<0 430>
LayerCount: 2
Fore
SplineSet
166 616 m 1xf8
 318 629 l 1
 235 241 l 1
 451 381 l 1
 451 383 l 1
 396 383 l 1
 406 430 l 1
 616 430 l 1
 606 383 l 1
 528 383 l 1
 331 253 l 1
 383 196 451 108 487 47 c 1
 572 47 l 1
 562 0 l 1
 354 0 l 1
 364 47 l 1
 429 47 l 1
 409 80 391 108 289 225 c 1
 223 182 l 1
 184 0 l 1
 52 0 l 1
 61 47 l 1
 144 47 l 1
 257 577 l 1
 161 569 l 1xe8
 166 616 l 1xf8
EndSplineSet
EndChar

StartChar: l
Encoding: 108 108 76
Width: 600
Flags: MW
HStem: 0 47<110 285 332 497 100 285> 557 54
VStem: 100 407<0 47>
LayerCount: 2
Fore
SplineSet
233 597 m 1
 452 611 l 1
 332 47 l 1
 507 47 l 1
 497 0 l 1
 100 0 l 1
 110 47 l 1
 285 47 l 1
 394 563 l 1
 228 551 l 1
 233 597 l 1
EndSplineSet
EndChar

StartChar: m
Encoding: 109 109 77
Width: 600
Flags: W
HStem: 0 47<5 77 127 188 -5 77 339 391 549 602> 383 47<86 149 77 205> 390 51<280.5 321.5 490.5 533.5>
VStem: 560 49<340.5 350>
LayerCount: 2
Fore
SplineSet
86 430 m 1xd0
 205 430 l 1xd0
 198 396 l 1
 223 415 256 441 305 441 c 0
 364 441 380 403 391 379 c 1
 422 406 462 441 519 441 c 0
 568 441 609 406 609 355 c 0
 609 326 600 283 598 272 c 2
 549 47 l 1
 612 47 l 1
 602 0 l 1
 490 0 l 1
 549 272 l 2
 551 281 560 321 560 346 c 0
 560 354 554 390 513 390 c 0
 468 390 428 357 397 324 c 1
 339 47 l 1
 401 47 l 1
 391 0 l 1
 280 0 l 1
 339 278 l 2
 341 286 348 320 348 341 c 0
 348 343 346 390 297 390 c 0
 264 390 233 377 188 334 c 1xb0
 127 47 l 1
 198 47 l 1
 188 0 l 1
 -5 0 l 1
 5 47 l 1
 77 47 l 1
 149 383 l 1
 77 383 l 1
 86 430 l 1xd0
EndSplineSet
EndChar

StartChar: n
Encoding: 110 110 78
Width: 600
Flags: W
HStem: 0 47<42 124 175 249 32 124 359 446 495 570> 383 47<124 196 113 258> 393 51<390 444.5>
VStem: 502 49<317.5 346>
LayerCount: 2
Fore
SplineSet
124 430 m 1xd0
 258 430 l 1xd0
 244 371 l 1
 287 400 353 444 426 444 c 0
 482 444 551 406 551 325 c 0
 551 304 545 279 544 273 c 2
 495 47 l 1
 580 47 l 1
 570 0 l 1
 350 0 l 1
 359 47 l 1
 446 47 l 1
 495 273 l 2
 497 281 502 307 502 328 c 0
 502 364 467 393 422 393 c 0
 358 393 301 359 231 312 c 1xb0
 175 47 l 1
 258 47 l 1
 249 0 l 1
 32 0 l 1
 42 47 l 1
 124 47 l 1
 196 383 l 1
 113 383 l 1
 124 430 l 1xd0
EndSplineSet
EndChar

StartChar: o
Encoding: 111 111 79
Width: 600
Flags: MW
HStem: -14 47<246.5 378.5 246.5 391.5> 403 47<311.5 437.5>
VStem: 91 54<140 227.5 140 232.5> 543 54<209.5 301>
LayerCount: 2
Fore
SplineSet
394 450 m 0
 509 450 597 388 597 267 c 0
 597 138 487 -14 296 -14 c 0
 185 -14 91 43 91 169 c 0
 91 296 198 450 394 450 c 0
387 403 m 0
 236 403 145 280 145 175 c 0
 145 105 189 33 304 33 c 0
 453 33 543 159 543 260 c 0
 543 342 488 403 387 403 c 0
EndSplineSet
EndChar

StartChar: p
Encoding: 112 112 80
Width: 600
Flags: W
HStem: -157 47<-6 76 126 265 -16 76> -7 49<319.5 384 295 389.5> 383 47<109 181 99 241> 394 49<364 453>
VStem: 544 54<204.5 302>
LayerCount: 2
Fore
SplineSet
109 430 m 1xe8
 241 430 l 1xe8
 226 362 l 1
 228 360 l 1
 248 381 311 443 417 443 c 0xd8
 539 443 598 354 598 266 c 0
 598 116 453 -7 326 -7 c 0
 313 -7 218 -7 166 80 c 1
 126 -110 l 1
 275 -110 l 1
 265 -157 l 1
 -16 -157 l 1
 -6 -110 l 1
 76 -110 l 1
 181 383 l 1
 99 383 l 1
 109 430 l 1xe8
414 394 m 0xd8
 290 394 188 292 188 177 c 0
 188 91 262 42 328 42 c 0
 440 42 544 148 544 261 c 0
 544 343 492 394 414 394 c 0xd8
EndSplineSet
EndChar

StartChar: q
Encoding: 113 113 81
Width: 600
Flags: W
HStem: -153 47<276 425 474 547 266 425> -8 49<233.5 318> 383 47<578 660 578 578> 392 49<298.5 394>
VStem: 90 54<141.5 227.5 141.5 237>
LayerCount: 2
Fore
SplineSet
539 430 m 1xe8
 670 430 l 1
 660 383 l 1
 578 383 l 1xe8
 474 -106 l 1
 557 -106 l 1
 547 -153 l 1
 266 -153 l 1
 276 -106 l 1
 425 -106 l 1
 463 73 l 1
 461 75 l 1
 430 42 363 -8 273 -8 c 0
 152 -8 90 81 90 172 c 0
 90 302 215 441 368 441 c 0
 438 441 496 402 522 354 c 1xd8
 539 430 l 1xe8
273 41 m 0
 391 41 499 135 499 256 c 0
 499 344 431 392 357 392 c 0xd8
 240 392 144 276 144 179 c 0
 144 104 194 41 273 41 c 0
EndSplineSet
EndChar

StartChar: r
Encoding: 114 114 82
Width: 600
Flags: W
HStem: 0 47<83 208 259 438 73 208> 383 47<173 280 163 340> 392 49<471 523 471 533>
VStem: 73 559<0 338>
LayerCount: 2
Fore
SplineSet
173 430 m 1xd0
 340 430 l 1xd0
 320 340 l 1
 322 338 l 1
 365 382 426 441 516 441 c 0
 530 441 611 441 632 338 c 1
 576 332 l 1
 568 359 557 392 509 392 c 0xb0
 432 392 345 306 302 250 c 1
 259 47 l 1
 448 47 l 1
 438 0 l 1
 73 0 l 1
 83 47 l 1
 208 47 l 1
 280 383 l 1
 163 383 l 1
 173 430 l 1xd0
EndSplineSet
EndChar

StartChar: s
Encoding: 115 115 83
Width: 600
Flags: W
HStem: -14 49<281 359.5 281 388.5> -9 21G<102 102> 293 104<506.5 512.5 506.5 547 505 512.5> 396 47<326.5 397 309.5 439> 428 20G<541 541>
VStem: 129 46<128.5 154> 170 54<275.5 327 275.5 332.5> 485 53<104.5 160> 505 42<293 311.5>
LayerCount: 2
Fore
SplineSet
541 448 m 2xbb
 576 443 l 1x9280
 562 400 552 361 547 293 c 1xa280
 505 293 l 1
 505 330 506 396 372 396 c 0
 281 396 224 350 224 304 c 0x9280
 224 247 293 243 390 238 c 0
 433 236 538 230 538 140 c 0
 538 66 460 -14 317 -14 c 0
 236 -14 193 17 182 28 c 0
 180 31 175 36 172 36 c 0
 165 36 145 -4 140 -15 c 1x95
 102 -9 l 2
 102 -7 104 -1 106 3 c 0
 109 14 123 61 124 68 c 0x55
 125 77 129 124 129 133 c 0
 130 136 130 144 131 148 c 2
 175 154 l 1
 174 119 173 105 183 86 c 0x95
 198 58 247 35 315 35 c 0
 404 35 485 72 485 137 c 0
 485 183 441 185 356 190 c 0
 287 194 170 200 170 298 c 0
 170 367 244 443 375 443 c 0x93
 419 443 465 433 498 403 c 0
 500 401 505 397 508 397 c 0
 517 397 526 416 536 438 c 0
 538 441 540 447 541 448 c 2xbb
EndSplineSet
EndChar

StartChar: t
Encoding: 116 116 84
Width: 600
Flags: W
HStem: -14 49<291 359.5 291 365> 369 47<193 251 183 260 309 522 193 300> 369 194<183 340 183 340 300 340 292 522 300 300>
VStem: 196 52<91 95>
LayerCount: 2
Fore
SplineSet
292 563 m 1xf0
 340 563 l 1xb0
 309 416 l 1
 532 416 l 1
 522 369 l 1
 300 369 l 1
 260 180 l 2
 258 171 248 120 248 95 c 0
 248 87 251 35 331 35 c 0
 388 35 461 58 545 92 c 1
 545 42 l 1
 475 13 403 -14 327 -14 c 0
 232 -14 196 44 196 83 c 0
 196 107 206 155 211 180 c 2
 251 369 l 1
 183 369 l 1
 193 416 l 1
 260 416 l 1xd0
 292 563 l 1xf0
EndSplineSet
EndChar

StartChar: u
Encoding: 117 117 85
Width: 600
Flags: W
HStem: -14 49<238 303.5> 0 47<484 554> 383 47<123 194 113 254 430 505>
VStem: 141 50<97.5 120 97.5 121.5>
LayerCount: 2
Fore
SplineSet
123 430 m 1x70
 254 430 l 1
 198 165 l 2
 197 158 191 131 191 109 c 0
 191 86 208 35 268 35 c 0
 354 35 432 107 450 124 c 1xb0
 505 383 l 1
 420 383 l 1
 430 430 l 1
 564 430 l 1
 484 47 l 1
 564 47 l 1
 554 0 l 1
 424 0 l 1x70
 435 52 l 1
 395 24 342 -14 265 -14 c 0xb0
 158 -14 141 78 141 111 c 0
 141 132 147 160 148 165 c 2
 194 383 l 1
 113 383 l 1
 123 430 l 1x70
EndSplineSet
EndChar

StartChar: v
Encoding: 118 118 86
Width: 600
Flags: W
HStem: 0 21G<276 324 276 276> 0 58<314 314 314 324 276 314> 383 47<111 176 101 324 233 314 233 233 466 534 586 586 586 659>
VStem: 101 568<383 430>
LayerCount: 2
Fore
SplineSet
111 430 m 1xb0
 324 430 l 1
 314 383 l 1
 233 383 l 1
 314 58 l 1x70
 534 383 l 1
 456 383 l 1
 466 430 l 1
 669 430 l 1
 659 383 l 1
 586 383 l 1
 324 0 l 1
 276 0 l 1
 176 383 l 1
 101 383 l 1
 111 430 l 1xb0
EndSplineSet
EndChar

StartChar: w
Encoding: 119 119 87
Width: 600
Flags: W
HStem: 0 21G<157 206 157 157 394 447 394 394> 0 76<435 437 435 447 394 437> 0 80<202 204 202 206 157 204> 383 47<93 126 83 271 178 261 178 178 518 592 640 640 640 678>
VStem: 83 605<383 430>
LayerCount: 2
Fore
SplineSet
93 430 m 1x98
 271 430 l 1
 261 383 l 1
 178 383 l 1
 202 80 l 1
 204 80 l 1x38
 359 352 l 1
 394 352 l 1
 435 76 l 1
 437 76 l 1x58
 592 383 l 1
 508 383 l 1
 518 430 l 1
 688 430 l 1
 678 383 l 1
 640 383 l 1
 447 0 l 1
 394 0 l 1
 356 258 l 1
 354 258 l 1
 206 0 l 1
 157 0 l 1
 126 383 l 1
 83 383 l 1
 93 430 l 1x98
EndSplineSet
EndChar

StartChar: x
Encoding: 120 120 88
Width: 600
Flags: MW
HStem: 0 47<34 95 163 222 24 95 378 451 518 573> 383 47<130 186 120 324 252 314 252 252 455 502 569 569 569 629>
VStem: 24 615<0 430>
LayerCount: 2
Fore
SplineSet
130 430 m 1
 324 430 l 1
 314 383 l 1
 252 383 l 1
 351 258 l 1
 502 381 l 1
 502 383 l 1
 445 383 l 1
 455 430 l 1
 639 430 l 1
 629 383 l 1
 569 383 l 1
 378 225 l 1
 518 47 l 1
 583 47 l 1
 573 0 l 1
 369 0 l 1
 378 47 l 1
 451 47 l 1
 337 193 l 1
 163 49 l 1
 163 47 l 1
 232 47 l 1
 222 0 l 1
 24 0 l 1
 34 47 l 1
 95 47 l 1
 311 225 l 1
 186 383 l 1
 120 383 l 1
 130 430 l 1
EndSplineSet
EndChar

StartChar: y
Encoding: 121 121 89
Width: 600
Flags: MW
HStem: -163 49<229 326 229 344> 15 49<270 308 270 320> 383 47<122 189 113 340 240 240 240 331 438 512 563 645 563 563>
VStem: 146 52<127 170.5>
LayerCount: 2
Fore
SplineSet
438 430 m 1
 655 430 l 1
 645 383 l 1
 563 383 l 1
 490 40 l 2
 472 -44 447 -163 241 -163 c 0
 200 -163 178 -159 146 -154 c 1
 157 -100 l 1
 184 -107 206 -114 252 -114 c 0
 400 -114 419 -38 438 40 c 2
 450 90 l 1
 448 92 l 1
 410 57 356 15 284 15 c 0
 201 15 146 71 146 162 c 0
 146 179 150 197 152 206 c 2
 189 383 l 1
 113 383 l 1
 122 430 l 1
 340 430 l 1
 331 383 l 1
 240 383 l 1
 202 202 l 2
 200 191 198 179 198 164 c 0
 198 90 247 64 293 64 c 0
 323 64 372 71 466 164 c 1
 512 383 l 1
 427 383 l 1
 438 430 l 1
EndSplineSet
EndChar

StartChar: z
Encoding: 122 122 90
Width: 600
Flags: MW
HStem: 0 47<112 112 182 457 102 112> 383 47<242 504 242 242>
VStem: 102 485<0 430>
LayerCount: 2
Fore
SplineSet
204 430 m 1
 587 430 l 1
 577 386 l 1
 182 47 l 1
 457 47 l 1
 476 139 l 1
 525 139 l 1
 495 0 l 1
 102 0 l 1
 112 47 l 1
 504 383 l 1
 242 383 l 1
 223 294 l 1
 175 294 l 1
 204 430 l 1
EndSplineSet
EndChar

StartChar: braceleft
Encoding: 123 123 91
Width: 600
Flags: W
HStem: -96 49<428 439> 604 48<578 588>
VStem: 298 52<-19.5 18.5 -19.5 19> 360 53<196 224> 402 52<402 471.5>
LayerCount: 2
Fore
SplineSet
598 652 m 1xe8
 588 604 l 1
 526 604 492 591 474 566 c 0
 456 540 454 502 454 447 c 0xe8
 454 357 454 328 376 278 c 1
 397 258 413 242 413 207 c 0xf0
 413 185 409 175 372 85 c 0
 358 50 350 29 350 8 c 0
 350 -47 407 -47 449 -47 c 1
 439 -96 l 1
 399 -96 298 -99 298 2 c 0
 298 36 313 71 317 80 c 0xe8
 319 86 332 116 335 121 c 0
 344 142 360 183 360 203 c 0
 360 245 309 251 287 253 c 1xf0
 298 304 l 1
 399 316 402 366 402 432 c 0
 402 511 402 565 456 613 c 0
 502 653 558 652 598 652 c 1xe8
EndSplineSet
EndChar

StartChar: bar
Encoding: 124 124 92
Width: 600
Flags: MW
HStem: -185 858<338 391 338 391>
VStem: 338 53<-185 673 -185 673>
LayerCount: 2
Fore
SplineSet
391 673 m 1
 391 -185 l 1
 338 -185 l 1
 338 673 l 1
 391 673 l 1
EndSplineSet
EndChar

StartChar: braceright
Encoding: 125 125 93
Width: 600
Flags: W
HStem: -95 48<127 137> 604 49<276 287>
VStem: 261 52<85.5 155> 302 53<333 361> 365 52<538.5 576.5>
LayerCount: 2
Fore
SplineSet
117 -95 m 1xe8
 127 -47 l 1
 189 -47 223 -34 241 -9 c 0
 259 17 261 55 261 110 c 0xe8
 261 200 261 229 339 279 c 1
 318 299 302 315 302 350 c 0xd8
 302 372 306 382 343 472 c 0
 357 507 365 528 365 549 c 0
 365 604 308 604 266 604 c 1
 276 653 l 1
 316 653 417 656 417 555 c 0
 417 521 402 486 398 477 c 0xe8
 396 471 383 441 380 436 c 0
 371 415 355 374 355 354 c 0
 355 312 406 306 428 304 c 1xd8
 417 253 l 1
 316 241 313 191 313 125 c 0
 313 46 313 -8 259 -56 c 0
 213 -96 157 -95 117 -95 c 1xe8
EndSplineSet
EndChar

StartChar: asciitilde
Encoding: 126 126 94
Width: 600
Flags: W
HStem: 229 158 312 57<252.5 283>
VStem: 150 429<268 349>
LayerCount: 2
Fore
SplineSet
546 387 m 1xe0
 579 349 l 1
 564 321 525 254 457 254 c 0
 445 254 433 254 363 282 c 0
 300 309 293 312 273 312 c 0
 232 312 212 277 184 229 c 1
 150 268 l 1
 177 313 210 369 273 369 c 0
 302 369 326 359 378 337 c 0
 431 315 443 311 456 311 c 0
 472 311 507 318 541 378 c 0
 541 380 545 386 546 387 c 1xe0
EndSplineSet
EndChar

StartChar: exclamdown
Encoding: 161 161 95
Width: 600
Flags: W
HStem: -138 378<254 398 254 398> 327 123<396.5 418> 430 20G<396.5 436>
VStem: 254 144 337 141<380 396.5>
LayerCount: 2
Fore
SplineSet
254 -138 m 1xb8
 352 240 l 1
 398 240 l 1
 337 -138 l 1
 254 -138 l 1xb8
396 327 m 0x48
 359 327 337 351 337 378 c 0
 337 415 374 450 419 450 c 0
 453 450 478 428 478 399 c 0
 478 361 440 327 396 327 c 0x48
EndSplineSet
EndChar

StartChar: cent
Encoding: 162 162 96
Width: 600
Flags: MW
HStem: 88 48<357 357 357 378.5> 415 20G<516 522.5> 593 20G<410 458 458 458>
VStem: 164 54<236.5 275.5 236.5 295.5> 523 41<335 344>
LayerCount: 2
Fore
SplineSet
410 613 m 1
 458 613 l 1
 429 476 l 1
 459 471 487 463 504 445 c 0
 507 442 514 435 518 435 c 0
 527 435 543 467 554 491 c 1
 595 481 l 1
 572 426 566 398 564 344 c 1
 523 335 l 1
 518 387 515 421 419 430 c 1
 357 136 l 1
 409 141 463 164 523 199 c 1
 539 157 l 1
 481 121 410 88 347 88 c 1
 316 -56 l 1
 269 -56 l 1
 299 88 l 1
 266 94 164 115 164 241 c 0
 164 350 253 459 381 476 c 1
 410 613 l 1
310 138 m 1
 371 430 l 1
 249 401 218 303 218 248 c 0
 218 225 220 152 310 138 c 1
EndSplineSet
EndChar

StartChar: sterling
Encoding: 163 163 97
Width: 600
Flags: W
HStem: -20 21G<156 156> -14 49<410 443 410 453.5> 20 47<268 292.5> 302 45<167 254 167 261 156 254 310 513 310 310> 562 20G<533 538> 563 47<369.5 462.5 369.5 483.5>
VStem: 250 50<405.5 425.5 396.5 462.5> 262 50<246.5 271.5 246.5 280>
LayerCount: 2
Fore
SplineSet
167 347 m 1x56
 254 347 l 1
 253 358 250 393 250 418 c 0
 250 507 302 610 437 610 c 0x56
 488 610 519 591 523 588 c 0
 526 586 531 582 535 582 c 0x5a
 541 582 544 590 547 597 c 0
 547 598 549 602 549 603 c 0
 550 605 551 608 551 609 c 1
 593 603 l 1
 586 571 582 538 582 504 c 0
 582 499 582 485 583 465 c 1
 538 465 l 1
 536 494 533 563 434 563 c 0
 300 563 300 440 300 411 c 0
 300 382 303 360 305 347 c 1x56
 523 347 l 1
 513 302 l 1
 310 302 l 1
 311 291 312 277 312 266 c 0
 312 227 308 215 266 115 c 0
 257 95 243 78 235 69 c 2
 221 56 l 1
 223 54 l 1
 243 62 256 67 280 67 c 0x35
 314 67 340 58 363 49 c 0
 390 38 401 35 419 35 c 0
 467 35 488 65 501 82 c 1
 538 47 l 1
 525 30 490 -14 417 -14 c 0x55
 389 -14 366 -6 348 1 c 0
 313 16 303 20 282 20 c 0
 242 20 206 6 156 -20 c 1
 132 24 l 1
 215 92 262 184 262 273 c 0
 262 287 261 295 261 302 c 1xb5
 156 302 l 1
 167 347 l 1x56
EndSplineSet
EndChar

StartChar: fraction
Encoding: 164 8260 98
Width: 600
Flags: W
HStem: -26 21G<-2 -2> 559 20G<603 603> 588 20G<568 568>
VStem: -2 605
LayerCount: 2
Fore
SplineSet
568 608 m 1
 603 579 l 1xf0
 31 -57 l 1
 -2 -26 l 1
 568 608 l 1
EndSplineSet
EndChar

StartChar: yen
Encoding: 165 165 99
Width: 600
Flags: MW
HStem: 0 47<177 288 337 439 166 288> 131 47<177 305 166 315 177 356 366 493> 230 47<198 327 188 337 198 377 388 514> 516 47<166 213 154 351 269 269 269 341 488 545 610 610 610 662>
VStem: 337 51<277 286 277 286>
LayerCount: 2
Fore
SplineSet
288 47 m 1
 305 131 l 1
 166 131 l 1
 177 178 l 1
 315 178 l 1
 327 230 l 1
 188 230 l 1
 198 277 l 1
 337 277 l 1
 337 286 l 1
 213 516 l 1
 154 516 l 1
 166 563 l 1
 351 563 l 1
 341 516 l 1
 269 516 l 1
 371 332 l 1
 545 516 l 1
 478 516 l 1
 488 563 l 1
 672 563 l 1
 662 516 l 1
 610 516 l 1
 388 286 l 1
 388 277 l 1
 524 277 l 1
 514 230 l 1
 377 230 l 1
 366 178 l 1
 503 178 l 1
 493 131 l 1
 356 131 l 1
 337 47 l 1
 449 47 l 1
 439 0 l 1
 166 0 l 1
 177 47 l 1
 288 47 l 1
EndSplineSet
EndChar

StartChar: florin
Encoding: 166 402 100
Width: 600
Flags: MW
HStem: -99 47<56.5 110.5 56.5 120> 409 47<247 334 228 352 402 490 247 384> 616 47<505.5 555.5>
VStem: -14 648
LayerCount: 2
Fore
SplineSet
247 456 m 1
 352 456 l 1
 376 516 l 2
 402 581 434 663 573 663 c 0
 598 663 619 659 634 657 c 1
 603 608 l 1
 578 613 564 616 547 616 c 0
 464 616 442 557 423 509 c 2
 402 456 l 1
 510 456 l 1
 490 409 l 1
 384 409 l 1
 244 47 l 2
 223 -8 187 -99 53 -99 c 0
 26 -99 3 -96 -14 -94 c 1
 17 -44 l 1
 31 -48 46 -52 67 -52 c 0
 154 -52 176 5 196 56 c 2
 334 409 l 1
 228 409 l 1
 247 456 l 1
EndSplineSet
EndChar

StartChar: section
Encoding: 167 167 101
Width: 600
Flags: MW
HStem: -91 49<176 275> 514 49<381 593 443 531>
VStem: 187 54<272.5 293 272.5 295.5> 279 54<434.5 440.5> 382 54<14 38> 480 54<175 197.5>
LayerCount: 2
Fore
SplineSet
593 563 m 1
 564 428 l 1
 513 428 l 1
 531 514 l 1
 423 514 l 2
 339 514 333 457 333 444 c 0
 333 425 346 405 355 396 c 2
 473 289 l 2
 507 258 534 233 534 193 c 0
 534 143 490 90 423 80 c 1
 428 72 436 58 436 34 c 0
 436 -6 402 -91 275 -91 c 2
 115 -91 l 1
 145 52 l 1
 196 52 l 1
 176 -42 l 1
 287 -42 l 2
 349 -42 382 -6 382 29 c 0
 382 47 370 67 355 80 c 2
 242 184 l 2
 205 218 187 238 187 274 c 0
 187 317 220 371 292 390 c 1
 283 408 279 417 279 434 c 0
 279 447 281 563 443 563 c 2
 593 563 l 1
434 254 m 2
 327 352 l 1
 270 346 241 307 241 279 c 0
 241 266 242 254 276 223 c 2
 390 119 l 1
 457 122 480 163 480 187 c 0
 480 208 465 225 434 254 c 2
EndSplineSet
EndChar

StartChar: currency
Encoding: 168 164 102
Width: 600
Flags: MW
HStem: 103 47<357 375.5> 413 47<352 394 352 405.5>
VStem: 187 47<269 306> 497 47<256.5 296 256.5 315.5>
LayerCount: 2
Fore
SplineSet
508 174 m 1
 590 94 l 1
 555 60 l 1
 474 140 l 1
 433 107 386 103 365 103 c 0
 349 103 301 105 256 140 c 1
 175 60 l 1
 140 94 l 1
 222 174 l 1
 187 225 187 264 187 274 c 0
 187 338 208 369 222 389 c 1
 140 470 l 1
 175 503 l 1
 256 423 l 1
 297 455 339 460 365 460 c 0
 423 460 459 434 474 423 c 1
 555 503 l 1
 590 470 l 1
 508 389 l 1
 541 343 544 303 544 289 c 0
 544 224 521 192 508 174 c 1
497 282 m 0
 497 349 446 413 365 413 c 0
 283 413 234 347 234 282 c 0
 234 215 283 150 364 150 c 0
 445 150 497 215 497 282 c 0
EndSplineSet
EndChar

StartChar: quotesingle
Encoding: 169 39 103
Width: 600
Flags: W
HStem: 281 282<372 406 332 486> 543 20G<372 486 486 486>
VStem: 332 154
LayerCount: 2
Fore
SplineSet
372 563 m 1xe0
 486 563 l 1
 406 281 l 1
 332 281 l 1
 372 563 l 1xe0
EndSplineSet
EndChar

StartChar: quotedblleft
Encoding: 170 8220 104
Width: 600
Flags: W
HStem: 320 243<213 445 213 445 385 445 373 489 385 385> 543 20G<373 445 445 445 545 617 617 617>
VStem: 213 232 213 404<320 563> 385 232
LayerCount: 2
Fore
SplineSet
489 320 m 1xd8
 385 320 l 1
 545 563 l 1
 617 563 l 1
 489 320 l 1xd8
317 320 m 1xa0
 213 320 l 1
 373 563 l 1
 445 563 l 1
 317 320 l 1xa0
EndSplineSet
EndChar

StartChar: guillemotleft
Encoding: 171 171 105
Width: 600
Flags: W
HStem: 26 404<293 374 374 485> 410 20G<374 374 565 565>
VStem: 100 303<230 389> 100 495<230 389> 293 302<230 389>
LayerCount: 2
Fore
SplineSet
293 26 m 1xf0
 100 230 l 1
 374 430 l 1
 403 389 l 1
 175 222 l 1
 330 59 l 1
 293 26 l 1xf0
485 26 m 1x88
 293 230 l 1
 565 430 l 1
 595 389 l 1
 367 222 l 1
 521 59 l 1
 485 26 l 1x88
EndSplineSet
EndChar

StartChar: guilsinglleft
Encoding: 172 8249 106
Width: 600
Flags: W
HStem: 26 404<405 485> 410 20G<485 485>
VStem: 212 303<230 389>
LayerCount: 2
Fore
SplineSet
405 26 m 1xe0
 212 230 l 1
 485 430 l 1
 515 389 l 1
 287 222 l 1
 442 59 l 1
 405 26 l 1xe0
EndSplineSet
EndChar

StartChar: guilsinglright
Encoding: 173 8250 107
Width: 600
Flags: W
HStem: 26 404<207 287> 234 21G<405 405> 410 20G<287 287>
VStem: 177 303<67 226>
LayerCount: 2
Fore
SplineSet
287 430 m 1xf0
 480 226 l 1
 207 26 l 1
 177 67 l 1
 405 234 l 1
 250 397 l 1
 287 430 l 1xf0
EndSplineSet
EndChar

StartChar: fi
Encoding: 174 64257 108
Width: 600
Flags: W
HStem: 0 47<6 100 150 397 448 600 -4 100> 371 47<85 168 75 178 85 218 228 466> 537 119<479 577 504 552> 578 47<309 371> 586 20G<462 462>
VStem: -4 614<0 47>
LayerCount: 2
Fore
SplineSet
527 418 m 1xd4
 448 47 l 1
 610 47 l 1
 600 0 l 1
 -4 0 l 1
 6 47 l 1
 100 47 l 1
 168 371 l 1
 75 371 l 1
 85 418 l 1
 178 418 l 1
 191 477 l 2
 203 531 222 625 360 625 c 0xd4
 409 625 442 613 462 606 c 1xcc
 433 563 l 1
 413 569 389 578 353 578 c 0
 265 578 254 533 240 471 c 2
 228 418 l 1
 527 418 l 1xd4
466 371 m 1
 218 371 l 1
 150 47 l 1
 397 47 l 1
 466 371 l 1
479 537 m 1xe4
 504 656 l 1
 577 656 l 1
 552 537 l 1
 479 537 l 1xe4
EndSplineSet
Ligature2: "'liga' Standard Ligatures in Latin lookup 0 subtable" f i
EndChar

StartChar: fl
Encoding: 175 64258 109
Width: 600
Flags: W
HStem: 0 47<6 100 150 399 447 587 -4 100> 370 48<85 168 75 178 85 218 228 431> 577 48<309.5 376.5> 600 20G<568 568>
VStem: -4 601<0 47>
LayerCount: 2
Fore
SplineSet
450 612 m 1xf8
 568 620 l 1xd8
 447 47 l 1
 597 47 l 1
 587 0 l 1
 -4 0 l 1
 6 47 l 1
 100 47 l 1
 168 370 l 1
 75 370 l 1
 85 418 l 1
 178 418 l 1
 191 477 l 2
 203 533 222 625 362 625 c 0xe8
 404 625 431 617 450 612 c 1xf8
510 570 m 1
 437 563 l 1
 419 569 396 577 357 577 c 0xe8
 262 577 252 529 240 471 c 2
 228 418 l 1
 442 418 l 1
 431 370 l 1
 218 370 l 1
 150 47 l 1
 399 47 l 1
 510 570 l 1
EndSplineSet
Ligature2: "'liga' Standard Ligatures in Latin lookup 0 subtable" f l
EndChar

StartChar: endash
Encoding: 177 8211 110
Width: 600
Flags: MW
HStem: 262 55<153 577 153 577>
VStem: 153 424<262 317 262 317>
LayerCount: 2
Fore
SplineSet
153 317 m 1
 577 317 l 1
 577 262 l 1
 153 262 l 1
 153 317 l 1
EndSplineSet
EndChar

StartChar: dagger
Encoding: 178 8224 111
Width: 600
Flags: W
HStem: 376 49<245 346 235 357 412 513 245 401> 376 187<235 442 235 442 401 442 387 513 401 401>
VStem: 235 288<376 425>
LayerCount: 2
Fore
SplineSet
387 563 m 1xe0
 442 563 l 1x60
 412 425 l 1
 523 425 l 1
 513 376 l 1
 401 376 l 1
 311 -48 l 1
 256 -48 l 1
 346 376 l 1
 235 376 l 1
 245 425 l 1
 357 425 l 1xa0
 387 563 l 1xe0
EndSplineSet
EndChar

StartChar: daggerdbl
Encoding: 179 8225 112
Width: 600
Flags: MW
HStem: 169 47<206 304 196 313 369 466 206 358> 376 47<247 348 235 358 413 513 247 403> 543 20G<388 443 443 443>
VStem: 196 327<169 423>
LayerCount: 2
Fore
SplineSet
388 563 m 1
 443 563 l 1
 413 423 l 1
 523 423 l 1
 513 376 l 1
 403 376 l 1
 369 216 l 1
 477 216 l 1
 466 169 l 1
 358 169 l 1
 313 -48 l 1
 258 -48 l 1
 304 169 l 1
 196 169 l 1
 206 216 l 1
 313 216 l 1
 348 376 l 1
 235 376 l 1
 247 423 l 1
 358 423 l 1
 388 563 l 1
EndSplineSet
EndChar

StartChar: periodcentered
Encoding: 180 183 113
Width: 600
Flags: W
HStem: 235 21G<336 374> 235 136<356.5 374>
VStem: 287 156<291 314>
LayerCount: 2
Fore
SplineSet
378 371 m 0xe0
 414 371 443 348 443 315 c 0
 443 267 395 235 353 235 c 0
 319 235 287 256 287 291 c 0
 287 337 335 371 378 371 c 0xe0
EndSplineSet
EndChar

StartChar: paragraph
Encoding: 182 182 114
Width: 600
Flags: MW
HStem: -77 30<198 260 306 319 192 260 369 388 433 479> 261 30<326 331> 533 30<384 611 429 511 429 429 556 605 556 556>
VStem: 184 75<332.5 361.5 332.5 394>
LayerCount: 2
Fore
SplineSet
556 533 m 1
 433 -47 l 1
 486 -47 l 1
 479 -77 l 1
 362 -77 l 1
 369 -47 l 1
 388 -47 l 1
 511 533 l 1
 429 533 l 1
 306 -47 l 1
 326 -47 l 1
 319 -77 l 1
 192 -77 l 1
 198 -47 l 1
 260 -47 l 1
 326 261 l 1
 267 258 184 275 184 371 c 0
 184 417 201 479 240 520 c 0
 280 563 339 563 402 563 c 2
 611 563 l 1
 605 533 l 1
 556 533 l 1
331 291 m 1
 384 533 l 1
 343 532 294 532 275 441 c 2
 262 378 l 2
 261 375 259 366 259 357 c 0
 259 308 278 286 331 291 c 1
EndSplineSet
EndChar

StartChar: bullet
Encoding: 183 8226 115
Width: 600
Flags: MW
HStem: 182 200<331.5 386.5>
VStem: 259 200<254.5 309.5>
LayerCount: 2
Fore
SplineSet
359 382 m 0
 304 382 259 337 259 282 c 0
 259 227 304 182 359 182 c 0
 414 182 459 227 459 282 c 0
 459 337 414 382 359 382 c 0
EndSplineSet
EndChar

StartChar: quotesinglbase
Encoding: 184 8218 116
Width: 600
Flags: MW
HStem: -109 242<152 385 152 385>
VStem: 152 233
LayerCount: 2
Fore
SplineSet
280 133 m 1
 385 133 l 1
 224 -109 l 1
 152 -109 l 1
 280 133 l 1
EndSplineSet
EndChar

StartChar: quotedblbase
Encoding: 185 8222 117
Width: 600
Flags: W
HStem: -109 242<66 298 66 298 238 238 238 298 194 310>
VStem: 66 232 66 404<-109 133> 238 232
LayerCount: 2
Fore
SplineSet
194 133 m 1xe0
 298 133 l 1
 138 -109 l 1
 66 -109 l 1
 194 133 l 1xe0
366 133 m 1x90
 470 133 l 1
 310 -109 l 1
 238 -109 l 1
 366 133 l 1x90
EndSplineSet
EndChar

StartChar: quotedblright
Encoding: 186 8221 118
Width: 600
Flags: W
HStem: 320 243<160 393 160 393 333 333 333 393 288 405> 543 20G<288 393 393 393 461 565 565 565>
VStem: 160 233 160 405<320 563> 333 232
LayerCount: 2
Fore
SplineSet
288 563 m 1xf0
 393 563 l 1
 233 320 l 1
 160 320 l 1
 288 563 l 1xf0
461 563 m 1x88
 565 563 l 1
 405 320 l 1
 333 320 l 1
 461 563 l 1x88
EndSplineSet
EndChar

StartChar: guillemotright
Encoding: 187 187 119
Width: 600
Flags: W
HStem: 26 404<119 200 200 311> 233 21G<318 318 510 510> 410 20G<200 200 392 392>
VStem: 90 302<66 226> 90 495<66 226> 282 303<66 226>
LayerCount: 2
Fore
SplineSet
200 430 m 1xf8
 392 226 l 1
 119 26 l 1
 90 66 l 1
 318 233 l 1
 163 396 l 1
 200 430 l 1xf8
392 430 m 1x84
 585 226 l 1
 311 26 l 1
 282 66 l 1
 510 233 l 1
 355 396 l 1
 392 430 l 1x84
EndSplineSet
EndChar

StartChar: ellipsis
Encoding: 188 8230 120
Width: 600
Flags: W
HStem: -17 136<97 114 300 318 504.5 521>
VStem: 28 156<39 62> 231 156<39 62> 435 156<39 62.5>
LayerCount: 2
Fore
SplineSet
119 119 m 0
 153 119 184 97 184 63 c 0
 184 15 135 -17 93 -17 c 0
 60 -17 28 4 28 39 c 0
 28 85 75 119 119 119 c 0
322 119 m 0xa0
 357 119 387 97 387 63 c 0
 387 15 339 -17 297 -17 c 0
 264 -17 231 3 231 39 c 0
 231 85 278 119 322 119 c 0xa0
526 119 m 0x90
 561 119 591 96 591 63 c 0
 591 15 542 -17 500 -17 c 0
 467 -17 435 3 435 39 c 0
 435 86 483 119 526 119 c 0x90
EndSplineSet
EndChar

StartChar: perthousand
Encoding: 189 8240 121
Width: 600
Flags: W
HStem: -14 45<161 206.5 161 217 471 516.5> 195 45<183.5 228 493.5 538> 348 45<116 162 116 172.5> 557 45<137 184>
VStem: 13 52<433 479 433 485.5> 58 52<71 117.5 71 124> 236 52<471 518> 281 52<108.5 157> 368 52<70.5 117.5 70.5 123> 591 52<108.5 157>
LayerCount: 2
Fore
SplineSet
222 240 m 0xf5c0
 300 240 333 184 333 136 c 0
 333 67 264 -14 170 -14 c 0
 91 -14 58 40 58 90 c 0
 58 158 124 240 222 240 c 0xf5c0
215 195 m 0xc5
 152 195 110 140 110 95 c 0
 110 47 146 31 176 31 c 0
 237 31 281 85 281 132 c 0
 281 182 241 195 215 195 c 0xc5
177 602 m 0x3a
 255 602 288 546 288 499 c 0
 288 429 220 348 125 348 c 0
 45 348 13 405 13 452 c 0
 13 519 79 602 177 602 c 0x3a
169 557 m 0x3a
 105 557 65 501 65 457 c 0
 65 409 101 393 131 393 c 0
 193 393 236 448 236 494 c 0
 236 542 199 557 169 557 c 0x3a
532 240 m 0xc0c0
 610 240 643 184 643 136 c 0
 643 67 575 -14 480 -14 c 0
 400 -14 368 42 368 89 c 0
 368 157 433 240 532 240 c 0xc0c0
525 195 m 0xc0c0
 462 195 420 140 420 95 c 0
 420 46 456 31 486 31 c 0
 547 31 591 85 591 132 c 0
 591 182 551 195 525 195 c 0xc0c0
441 417 m 1x2080
 451 370 l 1
 32 213 l 1
 22 260 l 1
 441 417 l 1x2080
EndSplineSet
EndChar

StartChar: questiondown
Encoding: 191 191 122
Width: 600
Flags: W
HStem: -139 49<307 337> 153 21G 153 102 327 123<426 446> 430 20G<426 464>
VStem: 147 52<-35 10 -46 66.5> 365 141<379.5 397>
LayerCount: 2
Fore
SplineSet
499 -2 m 1xce
 477 -105 l 1
 401 -129 364 -139 310 -139 c 0
 180 -139 147 -61 147 -9 c 0
 147 142 314 182 368 195 c 1
 381 255 l 1
 430 255 l 1xae
 409 157 l 2
 406 157 396 154 389 153 c 0
 323 137 277 127 237 85 c 0
 209 55 199 22 199 -2 c 0
 199 -90 299 -90 315 -90 c 0
 371 -90 409 -76 435 -65 c 1
 449 -2 l 1
 499 -2 l 1xce
424 327 m 0x12
 388 327 365 350 365 378 c 0
 365 416 405 450 447 450 c 0
 481 450 506 428 506 398 c 0
 506 361 468 327 424 327 c 0x12
EndSplineSet
EndChar

StartChar: grave
Encoding: 193 96 123
Width: 600
Flags: MW
HStem: 503 115<319 485 319 435>
VStem: 319 166<503 618>
LayerCount: 2
Fore
SplineSet
319 618 m 1
 424 618 l 1
 485 503 l 1
 435 503 l 1
 319 618 l 1
EndSplineSet
EndChar

StartChar: acute
Encoding: 194 180 124
Width: 600
Flags: MW
HStem: 503 115<314 534 314 534>
VStem: 314 220<503 618>
LayerCount: 2
Fore
SplineSet
534 618 m 1
 368 503 l 1
 314 503 l 1
 424 618 l 1
 534 618 l 1
EndSplineSet
EndChar

StartChar: circumflex
Encoding: 195 710 125
Width: 600
Flags: MW
HStem: 567 53<421 421>
VStem: 291 254<526 528>
LayerCount: 2
Fore
SplineSet
394 620 m 1
 470 620 l 1
 545 526 l 1
 510 503 l 1
 421 567 l 1
 319 503 l 1
 291 528 l 1
 394 620 l 1
EndSplineSet
EndChar

StartChar: tilde
Encoding: 196 732 126
Width: 600
Flags: W
HStem: 514 106<329 477> 575 45<339.5 362.5>
VStem: 251 334<532 605>
LayerCount: 2
Fore
SplineSet
547 618 m 1xe0
 585 605 l 1
 540 516 485 514 469 514 c 0
 445 514 427 524 403 546 c 0
 377 570 368 575 357 575 c 0
 322 575 301 538 292 522 c 0
 291 520 289 518 288 517 c 2
 251 532 l 1
 263 555 297 620 361 620 c 0
 392 620 412 602 429 586 c 0
 446 570 460 559 477 559 c 0
 515 559 538 601 547 618 c 1xe0
EndSplineSet
EndChar

StartChar: macron
Encoding: 197 175 127
Width: 600
Flags: MW
HStem: 542 50<252 581 241 592>
VStem: 241 351<542 592>
LayerCount: 2
Fore
SplineSet
252 592 m 1
 592 592 l 1
 581 542 l 1
 241 542 l 1
 252 592 l 1
EndSplineSet
EndChar

StartChar: breve
Encoding: 198 728 128
Width: 600
Flags: W
HStem: 510 43<411.5 417.5> 600 20G<318.5 319> 604 20G<271 317 317 317 548 595 595 595>
VStem: 271 324<624 624>
LayerCount: 2
Fore
SplineSet
271 624 m 1xb0
 317 624 l 1
 317 624 318 620 319 620 c 0xd0
 343 553 405 553 418 553 c 0
 433 553 495 553 545 621 c 0
 546 622 547 624 548 624 c 2
 595 624 l 1
 563 567 523 539 488 524 c 0
 453 510 423 510 412 510 c 0
 320 510 282 563 271 624 c 1xb0
EndSplineSet
EndChar

StartChar: dotaccent
Encoding: 199 729 129
Width: 600
Flags: MW
HStem: 513 108<371 466 394 444>
VStem: 371 95
LayerCount: 2
Fore
SplineSet
371 513 m 1
 394 621 l 1
 466 621 l 1
 444 513 l 1
 371 513 l 1
EndSplineSet
EndChar

StartChar: dieresis
Encoding: 200 168 130
Width: 600
Flags: W
HStem: 513 108<306 401 328 378 459 508 328 436>
VStem: 306 95 306 225<513 621> 436 95
LayerCount: 2
Fore
SplineSet
306 513 m 1xe0
 328 621 l 1
 401 621 l 1
 378 513 l 1
 306 513 l 1xe0
436 513 m 1x90
 459 621 l 1
 531 621 l 1
 508 513 l 1
 436 513 l 1x90
EndSplineSet
EndChar

StartChar: ring
Encoding: 202 730 131
Width: 600
Flags: MW
HStem: 490 38<409.5 430.5 409.5 440> 604 38<409.5 430.5>
VStem: 343 38<555.5 578 555.5 587> 457 38<555.5 576.5>
LayerCount: 2
Fore
SplineSet
419 642 m 0
 461 642 495 608 495 566 c 0
 495 524 461 490 419 490 c 0
 377 490 343 524 343 566 c 0
 343 608 377 642 419 642 c 0
420 604 m 0
 399 604 381 590 381 566 c 0
 381 545 399 528 420 528 c 0
 441 528 457 545 457 566 c 0
 457 587 441 604 420 604 c 0
EndSplineSet
EndChar

StartChar: cedilla
Encoding: 203 184 132
Width: 600
Flags: W
HStem: -142 45<292.5 300.5 292.5 326> -60 38 -22 23<327 327>
VStem: 337 47<-87 -74.5>
LayerCount: 2
Fore
SplineSet
334 1 m 1xb0
 327 -22 l 1
 366 -28 384 -48 384 -78 c 0
 384 -111 358 -142 294 -142 c 0
 286 -142 249 -142 191 -128 c 1
 183 -127 l 1
 200 -83 l 1
 201 -84 205 -85 206 -85 c 0
 255 -97 288 -97 297 -97 c 0
 304 -97 337 -96 337 -78 c 0
 337 -71 337 -62 281 -60 c 2
 269 -60 l 1xd0
 289 1 l 1
 334 1 l 1xb0
EndSplineSet
EndChar

StartChar: hungarumlaut
Encoding: 205 733 133
Width: 600
Flags: MW
HStem: 504 113<284 475 410 410 410 455>
VStem: 284 317<504 617>
LayerCount: 2
Fore
SplineSet
475 617 m 1
 329 504 l 1
 284 504 l 1
 398 617 l 1
 475 617 l 1
601 617 m 1
 455 504 l 1
 410 504 l 1
 524 617 l 1
 601 617 l 1
EndSplineSet
EndChar

StartChar: ogonek
Encoding: 206 731 134
Width: 600
Flags: MW
HStem: -117 131<257.5 396>
VStem: 222 63<-58 -51>
LayerCount: 2
Fore
SplineSet
355 -39 m 1
 333 -94 l 1
 323 -101 301 -117 270 -117 c 0
 245 -117 222 -101 222 -70 c 0
 222 -32 258 0 301 14 c 1
 396 14 l 1
 396 9 l 1
 372 3 354 0 340 -6 c 0
 324 -13 285 -24 285 -52 c 0
 285 -64 296 -65 299 -65 c 0
 311 -65 319 -60 333 -52 c 0
 340 -48 342 -46 355 -39 c 1
EndSplineSet
EndChar

StartChar: caron
Encoding: 207 711 135
Width: 600
Flags: MW
HStem: 503 53<417 417 417 447 367 417> 600 20G<338 338 517 517>
VStem: 303 247<595 597>
LayerCount: 2
Fore
SplineSet
447 503 m 1
 367 503 l 1
 303 597 l 1
 338 620 l 1
 417 556 l 1
 517 620 l 1
 550 595 l 1
 447 503 l 1
EndSplineSet
EndChar

StartChar: emdash
Encoding: 208 8212 136
Width: 600
Flags: MW
HStem: 262 55<17 713 17 713>
VStem: 17 696<262 317 262 317>
LayerCount: 2
Fore
SplineSet
17 317 m 1
 713 317 l 1
 713 262 l 1
 17 262 l 1
 17 317 l 1
EndSplineSet
EndChar

StartChar: AE
Encoding: 225 198 137
Width: 600
Flags: MW
HStem: 0 47<27 80 131 209 17 80 360 511> 184 44<243 339 219 348> 276 47<419 479 407 489> 383 12 516 47<275 368 265 666 460 603 460 460>
VStem: 17 649<0 563>
LayerCount: 2
Fore
SplineSet
275 563 m 1
 666 563 l 1
 633 383 l 1
 587 383 l 1
 603 516 l 1
 460 516 l 1
 419 323 l 1
 489 323 l 1
 503 395 l 1
 548 395 l 1
 511 203 l 1
 464 203 l 1
 479 276 l 1
 407 276 l 1
 360 47 l 1
 511 47 l 1
 548 184 l 1
 593 184 l 1
 554 0 l 1
 300 0 l 1
 339 184 l 1
 219 184 l 1
 131 47 l 1
 219 47 l 1
 209 0 l 1
 17 0 l 1
 27 47 l 1
 80 47 l 1
 368 516 l 1
 265 516 l 1
 275 563 l 1
348 228 m 1
 407 494 l 1
 405 496 l 1
 243 228 l 1
 348 228 l 1
EndSplineSet
EndChar

StartChar: ordfeminine
Encoding: 227 170 138
Width: 600
Flags: W
HStem: 266 36<225 493 217 501> 339 36<326.5 345> 346 36<464 500> 459 36<361 394.5> 544 36<401 422.5>
VStem: 259 39<399 423 399 426.5> 453 39<516 542.5>
LayerCount: 2
Fore
SplineSet
316 521 m 1xbe
 309 555 l 1
 360 574 386 580 416 580 c 0
 463 580 492 560 492 525 c 1
 489 499 l 1
 464 382 l 1
 508 382 l 1
 500 346 l 1
 419 346 l 1xbe
 425 374 l 1
 385 347 361 339 329 339 c 0xde
 289 339 259 365 259 400 c 0
 259 453 316 495 389 495 c 0
 409 495 421 494 449 490 c 1
 450 498 l 1
 453 516 l 2
 453 534 437 544 408 544 c 0
 383 544 356 537 316 521 c 1xbe
435 423 m 1xde
 442 454 l 1
 414 458 403 459 386 459 c 0
 336 459 298 438 298 408 c 0
 298 390 316 375 337 375 c 0
 366 375 398 390 433 421 c 2
 435 423 l 1xde
225 302 m 1
 501 302 l 1
 493 266 l 1
 217 266 l 1
 225 302 l 1
EndSplineSet
EndChar

StartChar: Lslash
Encoding: 232 321 139
Width: 600
Flags: MW
HStem: 0 47<67 167 217 500 57 167> 242 21G<106 106 209 209> 410 20G<489 489> 516 47<177 267 167 451 317 317 317 440>
VStem: 57 548<0 249>
LayerCount: 2
Fore
SplineSet
276 322 m 1
 489 430 l 1
 504 389 l 1
 264 265 l 1
 217 47 l 1
 500 47 l 1
 557 249 l 1
 605 249 l 1
 541 0 l 1
 57 0 l 1
 67 47 l 1
 167 47 l 1
 209 242 l 1
 122 198 l 1
 106 242 l 1
 221 299 l 1
 267 516 l 1
 167 516 l 1
 177 563 l 1
 451 563 l 1
 440 516 l 1
 317 516 l 1
 276 322 l 1
EndSplineSet
EndChar

StartChar: Oslash
Encoding: 233 216 140
Width: 600
Flags: W
HStem: -22 21G<95 95> -17 47<292.5 374 292.5 391> 533 47<338.5 420.5> 550 20G<620 620>
VStem: 92 54<187 286.5> 570 54<270.5 380>
LayerCount: 2
Fore
SplineSet
154 37 m 1x6c
 95 -22 l 1
 66 7 l 1
 128 71 l 1
 116 90 92 139 92 210 c 0
 92 363 214 580 420 580 c 0
 510 580 550 539 570 519 c 1xac
 620 570 l 1
 649 540 l 1
 594 484 l 1x5c
 606 460 624 427 624 360 c 0
 624 174 484 -17 298 -17 c 0
 209 -17 170 21 154 37 c 1x6c
552 441 m 1
 193 76 l 1
 224 36 280 30 305 30 c 0x6c
 443 30 570 184 570 357 c 0
 570 403 558 425 552 441 c 1
169 112 m 1
 530 479 l 1
 489 534 428 533 413 533 c 0
 264 533 146 370 146 213 c 0
 146 161 161 131 169 112 c 1
EndSplineSet
EndChar

StartChar: OE
Encoding: 234 338 141
Width: 600
Flags: MW
HStem: 0 47<174 310 264 310 360 505> 276 47<419 473 409 483> 383 12 516 47<307.5 654 395 409 459 591 459 459>
VStem: 66 52<186.5 291.5 186.5 295.5>
LayerCount: 2
Fore
SplineSet
548 0 m 1
 242 0 l 2
 106 0 66 121 66 209 c 0
 66 382 203 563 395 563 c 2
 654 563 l 1
 621 383 l 1
 575 383 l 1
 591 516 l 1
 459 516 l 1
 419 323 l 1
 483 323 l 1
 497 395 l 1
 542 395 l 1
 505 203 l 1
 459 203 l 1
 473 276 l 1
 409 276 l 1
 360 47 l 1
 505 47 l 1
 542 185 l 1
 587 185 l 1
 548 0 l 1
310 47 m 1
 409 516 l 1
 385 516 l 2
 230 516 118 367 118 216 c 0
 118 157 135 47 264 47 c 2
 310 47 l 1
EndSplineSet
EndChar

StartChar: ordmasculine
Encoding: 235 186 142
Width: 600
Flags: MW
HStem: 266 36<226 494 218 502> 339 36<357.5 409.5 357.5 414.5> 544 36<386 438>
VStem: 267 39<420 469 420 473> 489 39<450.5 499>
LayerCount: 2
Fore
SplineSet
423 580 m 0
 488 580 528 544 528 486 c 0
 528 405 457 339 372 339 c 0
 308 339 267 375 267 432 c 0
 267 514 337 580 423 580 c 0
416 544 m 0
 356 544 306 498 306 440 c 0
 306 400 335 375 380 375 c 0
 439 375 489 422 489 479 c 0
 489 519 460 544 416 544 c 0
226 302 m 1
 502 302 l 1
 494 266 l 1
 218 266 l 1
 226 302 l 1
EndSplineSet
EndChar

StartChar: ae
Encoding: 241 230 143
Width: 600
Flags: W
HStem: -14 45<412.5 453.5> 205 44<370 566 370 604 363 566> 219 45<192.5 258.5> 405 45<497.5 542.5>
VStem: 54 51<74 115.5 74 125.5> 313 42<72 147> 338 46 573 49<301 318.5>
LayerCount: 2
Fore
SplineSet
604 205 m 1xdd
 363 205 l 1
 359 185 355 160 355 134 c 0
 355 76 385 31 440 31 c 0
 470 31 512 40 560 55 c 1
 569 11 l 1
 524 -4 477 -14 430 -14 c 0
 382 -14 375 -8 329 38 c 0
 313 54 313 66 313 78 c 1xdd
 268 30 197 -14 149 -14 c 0
 109 -14 54 13 54 87 c 0
 54 164 124 264 249 264 c 0
 282 264 305 260 323 256 c 1
 331 293 l 2
 339 329 338 339 338 347 c 0
 338 392 319 403 284 403 c 0
 249 403 221 396 155 375 c 1
 151 420 l 1
 214 442 253 450 292 450 c 0
 363 450 379 413 384 375 c 1xbb
 412 404 455 450 520 450 c 0
 570 450 622 417 622 309 c 0
 622 258 613 231 604 205 c 1xdd
293 118 m 1
 313 210 l 1
 296 214 274 219 243 219 c 0xbd
 142 219 105 138 105 93 c 0
 105 55 128 33 154 33 c 0
 195 33 258 80 293 118 c 1
370 249 m 1xdd
 566 249 l 1
 571 270 573 291 573 311 c 0
 573 326 572 405 513 405 c 0
 482 405 401 377 370 249 c 1xdd
EndSplineSet
EndChar

StartChar: dotlessi
Encoding: 245 305 144
Width: 600
Flags: MW
HStem: 0 47<109 285 336 499 99 285> 383 47<219 356 209 417>
VStem: 99 410<0 47>
LayerCount: 2
Fore
SplineSet
219 430 m 1
 417 430 l 1
 336 47 l 1
 509 47 l 1
 499 0 l 1
 99 0 l 1
 109 47 l 1
 285 47 l 1
 356 383 l 1
 209 383 l 1
 219 430 l 1
EndSplineSet
EndChar

StartChar: lslash
Encoding: 248 322 145
Width: 600
Flags: MW
HStem: 0 47<110 285 333 497 100 285> 240 21G<166 166> 410 20G<549 549> 557 54
VStem: 100 464<0 389>
LayerCount: 2
Fore
SplineSet
398 353 m 1
 549 430 l 1
 564 389 l 1
 386 297 l 1
 333 47 l 1
 507 47 l 1
 497 0 l 1
 100 0 l 1
 110 47 l 1
 285 47 l 1
 333 276 l 1
 182 198 l 1
 166 240 l 1
 345 332 l 1
 394 563 l 1
 228 551 l 1
 233 597 l 1
 452 611 l 1
 398 353 l 1
EndSplineSet
EndChar

StartChar: oslash
Encoding: 249 248 146
Width: 600
Flags: W
HStem: -14 47<300 376 300 391> 404 46<314 400 298.5 405.5> 435 20G<596 596>
VStem: 91 54<160.5 228.5 160.5 235> 543 54<208 280>
LayerCount: 2
Fore
SplineSet
152 32 m 1xd8
 95 -14 l 1
 64 24 l 1
 119 69 l 1
 99 98 91 136 91 171 c 0
 91 299 204 450 393 450 c 0
 407 450 483 450 537 408 c 1xd8
 596 455 l 1
 627 416 l 1
 569 369 l 1xb8
 589 340 597 302 597 266 c 0
 597 138 483 -14 299 -14 c 0
 288 -14 204 -13 152 32 c 1xd8
525 334 m 1
 194 65 l 1
 236 32 294 33 306 33 c 0
 446 33 543 153 543 263 c 0
 543 297 534 315 525 334 c 1
164 106 m 1
 493 372 l 1
 463 395 425 404 386 404 c 0
 242 404 145 284 145 173 c 0
 145 148 154 122 164 106 c 1
EndSplineSet
EndChar

StartChar: oe
Encoding: 250 339 147
Width: 600
Flags: MW
HStem: -14 47<135.5 191> 205 44<370 566 370 604 363 566> 403 47<207.5 290.5>
VStem: 40 54<104 164.5 104 168> 315 40 573 49<294.5 322 284 328.5>
LayerCount: 2
Fore
SplineSet
604 205 m 2
 363 205 l 1
 358 184 355 162 355 139 c 0
 355 83 375 31 449 31 c 0
 485 31 506 43 538 64 c 1
 559 24 l 1
 533 8 500 -14 444 -14 c 0
 348 -14 328 39 315 72 c 1
 277 18 223 -14 159 -14 c 0
 51 -14 40 80 40 112 c 0
 40 224 107 450 267 450 c 0
 341 450 369 399 382 376 c 1
 434 436 483 450 517 450 c 0
 619 450 622 335 622 309 c 0
 622 259 613 230 606 210 c 0
 606 209 605 206 604 205 c 2
370 249 m 1
 566 249 l 1
 568 259 573 277 573 312 c 0
 573 345 565 405 513 405 c 0
 470 405 394 360 370 249 c 1
297 129 m 2
 334 306 l 2
 335 311 338 329 338 342 c 0
 338 365 316 403 265 403 c 0
 150 403 94 210 94 119 c 0
 94 89 104 33 167 33 c 0
 243 33 293 111 297 129 c 2
EndSplineSet
EndChar

StartChar: germandbls
Encoding: 251 223 148
Width: 600
Flags: W
HStem: -13 49<337.5 376 337.5 385> 0 47<70 132 70 171 60 132> 590 49<373 438>
VStem: 496 50<139.5 242> 510 50<481.5 543.5>
LayerCount: 2
Fore
SplineSet
70 47 m 1x70
 132 47 l 1
 214 430 l 2
 224 476 259 639 420 639 c 0
 500 639 560 593 560 514 c 0x68
 560 405 454 365 413 351 c 1
 413 349 l 1
 451 337 546 305 546 191 c 0
 546 67 435 -13 335 -13 c 0xb0
 304 -13 281 -6 263 0 c 1
 273 47 l 1x70
 284 45 295 42 307 39 c 0
 319 37 331 36 344 36 c 0
 408 36 496 92 496 187 c 0xb0
 496 297 379 316 329 325 c 1
 339 375 l 1
 449 391 510 450 510 513 c 0
 510 574 457 590 419 590 c 0x68
 327 590 283 522 263 430 c 2
 171 0 l 1
 60 0 l 1
 70 47 l 1x70
EndSplineSet
EndChar

StartChar: copyright
Encoding: 256 169 149
Width: 600
Flags: MW
HStem: -5 38<288 428.5 288 438.5> 116 31<312.5 350.5> 431 28<357 420> 542 38<289 427.5>
VStem: 66 38<217.5 358.5 217.5 368.5> 194 52<218.5 294.5 218.5 298.5> 612 38<217.5 358>
LayerCount: 2
Fore
SplineSet
520 436 m 2
 500 341 l 1
 471 341 l 1
 474 359 477 375 477 391 c 0
 477 422 433 431 407 431 c 0
 307 431 246 337 246 252 c 0
 246 185 285 147 340 147 c 0
 377 147 416 161 453 213 c 2
 457 218 l 1
 480 208 l 1
 479 207 476 202 476 201 c 0
 440 144 378 116 323 116 c 0
 256 116 194 156 194 248 c 0
 194 349 273 459 406 459 c 0
 449 459 502 444 514 439 c 0
 516 438 519 437 520 436 c 2
358 580 m 0
 519 580 650 450 650 287 c 0
 650 126 519 -5 358 -5 c 0
 197 -5 66 126 66 287 c 0
 66 450 197 580 358 580 c 0
358 542 m 0
 220 542 104 430 104 287 c 0
 104 148 218 33 358 33 c 0
 499 33 612 148 612 287 c 0
 612 429 497 542 358 542 c 0
EndSplineSet
EndChar

StartChar: approxequalalt
Encoding: 257 -1 150
Width: 600
Flags: W
HStem: 188 57<152 578 152 578> 330 57<450.5 464 450.5 491> 388 57<252.5 282.5> 425 20G<241 287.5>
VStem: 151 429<345 426>
LayerCount: 2
Fore
SplineSet
578 245 m 1xa8
 578 188 l 1
 152 188 l 1
 152 245 l 1
 578 245 l 1xa8
546 464 m 1xc8
 580 426 l 1
 563 397 525 330 457 330 c 0xd8
 443 330 434 330 363 359 c 0
 299 385 292 388 273 388 c 0
 232 388 211 352 184 306 c 1
 151 345 l 1
 151 345 153 348 153 349 c 0
 177 389 210 445 272 445 c 0xa8
 303 445 327 435 378 414 c 0
 431 392 444 387 457 387 c 0
 471 387 507 393 541 455 c 0
 541 456 545 462 546 464 c 1xc8
EndSplineSet
EndChar

StartChar: twosuperior
Encoding: 258 178 151
Width: 600
Flags: MW
HStem: 248 34<277 432 277 456> 587 34<400.5 431.5>
VStem: 478 37<520.5 546>
LayerCount: 2
Fore
SplineSet
444 340 m 1
 476 340 l 1
 456 248 l 1
 220 248 l 1
 227 283 l 1
 235 290 l 1
 336 366 l 2
 382 400 424 434 439 449 c 0
 465 475 478 501 478 530 c 0
 478 562 449 587 414 587 c 0
 367 587 330 561 323 525 c 1
 290 525 l 1
 300 571 l 1
 331 600 381 621 420 621 c 0
 474 621 515 583 515 532 c 0
 515 509 507 483 495 464 c 0
 485 448 471 433 458 421 c 0
 434 401 405 377 369 351 c 2
 277 284 l 1
 277 282 l 1
 432 282 l 1
 444 340 l 1
EndSplineSet
EndChar

StartChar: rightangle
Encoding: 259 8735 152
Width: 600
Flags: MW
HStem: 0 50<196 575 196 575> 409 20G<146 196 196 196>
VStem: 146 50<50 429 50 429 50 429>
LayerCount: 2
Fore
SplineSet
575 0 m 1
 146 0 l 1
 146 429 l 1
 196 429 l 1
 196 50 l 1
 575 50 l 1
 575 0 l 1
EndSplineSet
EndChar

StartChar: productdot
Encoding: 260 -1 153
Width: 600
Flags: MW
HStem: 235 136<347.5 383.5>
VStem: 288 154<282 323.5 282 324>
LayerCount: 2
Fore
SplineSet
365 371 m 0
 403 371 442 344 442 303 c 0
 442 261 402 235 365 235 c 0
 330 235 288 259 288 303 c 0
 288 345 328 371 365 371 c 0
EndSplineSet
EndChar

StartChar: alpha
Encoding: 261 945 154
Width: 600
Flags: W
HStem: -15 48<163 237 163 245> 0 47<458 526> 403 48<224.5 317> 428 20G<547 598 598 598>
VStem: 34 54<126 223 126 236> 406 52<0 57 52 57 57 122 122 122>
LayerCount: 2
Fore
SplineSet
458 47 m 1x6c
 536 47 l 1
 526 0 l 1
 406 0 l 2
 405 2 403 8 403 12 c 0
 403 13 406 46 406 52 c 2x6c
 406 122 l 1
 404 122 l 1
 392 104 301 -15 189 -15 c 0
 86 -15 34 76 34 166 c 0
 34 306 146 451 278 451 c 0xac
 361 451 431 391 451 259 c 1
 499 335 528 400 547 448 c 1
 598 448 l 1x5c
 561 352 530 299 458 183 c 1
 456 162 458 67 458 47 c 1x6c
406 195 m 1
 403 313 359 403 275 403 c 0
 174 403 88 280 88 166 c 0
 88 86 131 33 195 33 c 0xac
 279 33 364 139 406 195 c 1
EndSplineSet
EndChar

StartChar: Sigma
Encoding: 262 931 155
Width: 600
Flags: MW
HStem: 0 47<171 457 171 501> 516 47<212 615 266 550 266 266>
VStem: 103 512
LayerCount: 2
Fore
SplineSet
223 563 m 1
 615 563 l 1
 578 380 l 1
 531 380 l 1
 550 516 l 1
 266 516 l 1
 400 296 l 1
 171 47 l 1
 457 47 l 1
 494 184 l 1
 541 184 l 1
 501 0 l 1
 103 0 l 1
 114 54 l 1
 340 300 l 1
 212 516 l 1
 223 563 l 1
EndSplineSet
EndChar

StartChar: Tbar
Encoding: 263 358 156
Width: 600
Flags: MW
HStem: 0 47<164 284 333 445 153 284> 307 47<210 339 200 349 398 528 210 388> 516 47<214 384 214 214 432 603 432 432>
VStem: 118 540<353 563>
LayerCount: 2
Fore
SplineSet
178 563 m 1
 658 563 l 1
 628 353 l 1
 580 353 l 1
 603 516 l 1
 432 516 l 1
 398 354 l 1
 538 354 l 1
 528 307 l 1
 388 307 l 1
 333 47 l 1
 455 47 l 1
 445 0 l 1
 153 0 l 1
 164 47 l 1
 284 47 l 1
 339 307 l 1
 200 307 l 1
 210 354 l 1
 349 354 l 1
 384 516 l 1
 214 516 l 1
 167 353 l 1
 118 353 l 1
 178 563 l 1
EndSplineSet
EndChar

StartChar: SS270000
Encoding: 264 8993 157
Width: 600
Flags: MW
HStem: -245 110<163.5 187.5 159.5 228.5>
VStem: 258 84<-104 -28 -28 841>
LayerCount: 2
Fore
SplineSet
258 841 m 1
 342 841 l 1
 342 -28 l 2
 342 -184 261 -245 196 -245 c 0
 131 -245 123 -201 123 -186 c 0
 123 -153 148 -135 171 -135 c 0
 204 -135 214 -151 225 -167 c 0
 226 -169 234 -182 241 -182 c 0
 258 -182 258 -163 258 -104 c 2
 258 841 l 1
EndSplineSet
EndChar

StartChar: Scedilla
Encoding: 265 350 158
Width: 600
Flags: W
HStem: -142 45<271 295.5 271 321> -60 90<265 265> -17 47<324 324> -14 44<280 280> 51 117<142 149> 533 47<354.5 416 331 444> 550 20G<631 631>
VStem: 110 44<168 168> 184 54<383 437.5 360.5 442.5> 332 48<-87 -73.5> 491 54<136.5 206.5> 539 38<383 462.5>
LayerCount: 2
Fore
SplineSet
324 -17 m 1xb4e0
 322 -22 l 1xa4e0
 361 -28 380 -48 380 -78 c 0
 380 -111 353 -142 289 -142 c 0
 244 -142 199 -131 179 -127 c 1
 195 -83 l 1
 214 -88 250 -97 292 -97 c 0
 299 -97 332 -96 332 -78 c 0
 332 -69 332 -62 265 -60 c 1xc4e0
 280 -14 l 1x94e0
 250 -10 206 1 176 24 c 0
 171 28 152 51 146 51 c 0x9de0
 138 51 116 -4 110 -19 c 1xa5e0
 67 -12 l 1x95e0
 92 64 100 91 110 168 c 1x9de0
 154 168 l 1
 151 105 181 30 316 30 c 0
 436 30 491 104 491 168 c 0x95e0
 491 245 419 252 351 258 c 0
 296 263 263 274 239 292 c 0
 206 317 184 362 184 404 c 0
 184 481 260 580 402 580 c 0
 430 580 485 576 520 544 c 0
 524 540 541 518 546 518 c 0
 557 518 577 557 590 581 c 1x94d0
 631 570 l 1x92d0
 593 476 582 418 577 383 c 1
 535 391 l 1
 537 401 539 412 539 426 c 0x94d0
 539 499 482 533 406 533 c 0
 303 533 238 470 238 405 c 0
 238 316 325 311 368 308 c 0
 468 301 545 269 545 173 c 0
 545 100 488 -14 324 -17 c 1xb4e0
EndSplineSet
EndChar

StartChar: brokenbar
Encoding: 266 166 159
Width: 600
Flags: MW
HStem: -185 858<338 391 338 391>
VStem: 338 53<-185 188 -185 188 300 673>
LayerCount: 2
Fore
SplineSet
391 673 m 1
 391 300 l 1
 338 300 l 1
 338 673 l 1
 391 673 l 1
391 188 m 1
 391 -185 l 1
 338 -185 l 1
 338 188 l 1
 391 188 l 1
EndSplineSet
EndChar

StartChar: SM680000
Encoding: 267 8976 160
Width: 600
Flags: MW
HStem: 386 52<224 601 224 224>
VStem: 172 52<169 386 169 438>
LayerCount: 2
Fore
SplineSet
601 438 m 1
 601 386 l 1
 224 386 l 1
 224 169 l 1
 172 169 l 1
 172 438 l 1
 601 438 l 1
EndSplineSet
EndChar

StartChar: arrowright
Encoding: 268 8594 161
Width: 600
Flags: MW
HStem: 262 50<26 436 26 436>
VStem: 26 556<280.5 291 280.5 312 280.5 312>
LayerCount: 2
Fore
SplineSet
26 262 m 1
 26 312 l 1
 436 312 l 1
 399 367 396 395 396 396 c 0
 396 399 399 415 417 415 c 0
 426 415 433 407 451 388 c 0
 495 341 555 309 563 305 c 0
 572 301 582 297 582 285 c 0
 582 276 573 272 558 264 c 0
 522 248 475 213 448 182 c 0
 430 161 427 158 417 158 c 0
 402 158 396 170 396 177 c 0
 396 198 426 247 436 262 c 1
 26 262 l 1
EndSplineSet
EndChar

StartChar: approxequal
Encoding: 269 8776 162
Width: 600
Flags: W
HStem: 139 21G<184 184> 163 57<450.5 464 450.5 491> 221 57<252.5 282.5> 330 57<450.5 464 450.5 491> 388 57<252.5 282.5> 425 20G<241 287.5>
VStem: 151 429<178 259 259 345>
LayerCount: 2
Fore
SplineSet
546 464 m 1xba
 580 426 l 1
 563 397 525 330 457 330 c 0x56
 443 330 434 330 363 359 c 0
 299 385 292 388 273 388 c 0
 232 388 211 352 184 306 c 1
 151 345 l 1
 151 345 153 348 153 349 c 0
 177 389 210 445 272 445 c 0xaa
 303 445 327 435 378 414 c 0
 431 392 444 387 457 387 c 0
 471 387 507 393 541 455 c 0
 541 456 545 462 546 464 c 1xba
546 297 m 1
 580 259 l 1
 563 230 525 163 457 163 c 0x4a
 443 163 434 163 363 192 c 0
 299 218 292 221 273 221 c 0
 232 221 211 185 184 139 c 1
 151 178 l 1
 151 178 153 181 153 182 c 0
 177 222 210 278 272 278 c 0xaa
 303 278 327 268 378 247 c 0
 431 225 444 220 457 220 c 0
 471 220 507 226 541 288 c 0
 541 289 545 295 546 297 c 1
EndSplineSet
EndChar

StartChar: club
Encoding: 270 9827 163
Width: 600
Flags: MW
HStem: 0 16<111 111 107 111> 234 21G<293 295 293 293 307 307> 543 20G<263 334.5>
VStem: 295 10<232 232 232 234 232 234>
LayerCount: 2
Fore
SplineSet
495 0 m 1
 107 0 l 1
 111 16 l 1
 117 17 l 1
 197 35 217 44 246 78 c 0
 277 114 295 164 295 212 c 2
 295 234 l 1
 293 234 l 1
 260 163 208 125 145 125 c 0
 74 125 18 181 18 253 c 0
 18 321 66 377 128 379 c 0
 157 377 166 374 201 356 c 1
 203 358 l 1
 178 398 172 412 172 439 c 0
 172 509 227 563 299 563 c 0
 370 563 426 509 426 441 c 0
 426 411 417 387 395 358 c 1
 397 356 l 1
 411 364 l 2
 438 377 449 380 469 380 c 0
 532 380 582 324 582 255 c 0
 582 183 527 125 457 125 c 0
 415 125 368 149 338 184 c 0
 327 196 320 207 307 234 c 1
 305 232 l 1
 306 171 314 137 336 103 c 0
 368 54 404 33 482 18 c 2
 491 16 l 1
 495 0 l 1
EndSplineSet
EndChar

StartChar: SS010000
Encoding: 271 9787 164
Width: 600
Flags: W
HStem: 0 110<268 329.5 268 377.5> 403 160<222 224.5 222 403> 543 20G<222 377.5>
VStem: 18 99<314 314 314 359.5> 255 94<349 372 348.5 372.5> 483 99<314 316 314 314>
LayerCount: 2
Fore
SplineSet
300 563 m 0xbc
 455 563 582 437 582 282 c 0
 582 126 455 0 300 0 c 0
 145 0 18 126 18 282 c 0
 18 437 144 563 300 563 c 0xbc
213 403 m 0xdc
 189 403 170 384 170 361 c 0
 170 337 189 318 213 318 c 0
 236 318 255 337 255 361 c 0
 255 384 236 403 213 403 c 0xdc
391 403 m 0
 368 403 349 384 349 360 c 0
 349 337 368 318 391 318 c 0
 415 318 434 337 434 360 c 0
 434 384 415 403 391 403 c 0
483 316 m 1
 483 314 l 1
 481 316 l 1
 475 277 467 261 447 238 c 0
 410 195 363 175 300 175 c 0
 238 175 191 195 154 238 c 0
 134 261 126 277 119 316 c 1
 117 314 l 1
 122 249 131 219 154 184 c 0
 186 135 236 110 300 110 c 0
 359 110 406 131 439 172 c 0
 468 209 478 244 483 316 c 1
EndSplineSet
EndChar

StartChar: SM490000
Encoding: 272 -1 165
Width: 600
Flags: W
HStem: 0 21G<71 71 531 531> 72 64<263.5 334 263.5 347.5> 533 64<264.5 335> 592 20G<21 21 579 579>
VStem: 83 64<307.5 364 307.5 382.5> 453 64<334 334>
LayerCount: 2
Fore
SplineSet
21 612 m 1xdc
 71 670 l 1
 156 616 217 597 300 597 c 0
 385 597 443 615 531 670 c 1xec
 579 612 l 1
 536 517 516 430 517 334 c 0
 518 234 538 143 579 59 c 1
 531 0 l 1
 457 51 390 72 305 72 c 0
 218 72 148 51 71 0 c 1
 21 59 l 1
 62 142 83 234 83 334 c 0
 83 431 63 518 21 612 c 1xdc
100 588 m 1
 114 535 l 1
 139 465 147 394 147 334 c 0
 147 281 137 200 115 135 c 2
 100 81 l 1
 177 122 229 136 298 136 c 0
 370 136 426 121 499 81 c 1
 484 135 l 2
 466 199 453 281 453 334 c 0
 453 394 458 464 483 535 c 2
 501 586 l 1
 499 588 l 1
 444 551 372 533 298 533 c 0
 231 533 168 550 100 588 c 1
EndSplineSet
EndChar

StartChar: arrowup
Encoding: 273 8593 166
Width: 600
Flags: MW
HStem: 0 21G<275 325 275 275> 568 20G<296 306.5>
VStem: 275 50<0 442>
LayerCount: 2
Fore
SplineSet
325 0 m 1
 275 0 l 1
 275 442 l 1
 220 405 192 402 191 402 c 0
 188 402 172 405 172 423 c 0
 172 432 180 439 199 457 c 0
 246 501 278 561 282 569 c 0
 286 578 290 588 302 588 c 0
 311 588 315 579 323 564 c 0
 339 528 374 481 405 454 c 0
 426 436 429 433 429 423 c 0
 429 408 417 402 410 402 c 0
 389 402 340 432 325 442 c 1
 325 0 l 1
EndSplineSet
EndChar

StartChar: SF020000
Encoding: 274 9492 167
Width: 600
Flags: MW
HStem: 216 72<336 600 336 600>
VStem: 264 72<288 288 288 792>
LayerCount: 2
Fore
SplineSet
336 288 m 1
 600 288 l 1
 600 216 l 1
 264 216 l 1
 264 792 l 1
 336 792 l 1
 336 288 l 1
EndSplineSet
EndChar

StartChar: SF610000
Encoding: 275 9608 168
Width: 600
Flags: MW
HStem: -288 1080<0 600 0 600>
VStem: 0 600<-288 792 -288 792>
LayerCount: 2
Fore
SplineSet
0 -288 m 1
 0 792 l 1
 600 792 l 1
 600 -288 l 1
 0 -288 l 1
EndSplineSet
EndChar

StartChar: commasuperior
Encoding: 276 -1 169
Width: 600
Flags: MW
HStem: 199 156<248 425 248 425>
VStem: 248 177<199 355>
LayerCount: 2
Fore
SplineSet
337 355 m 1
 425 355 l 1
 313 199 l 1
 248 199 l 1
 337 355 l 1
EndSplineSet
EndChar

StartChar: zeroslash
Encoding: 277 -1 170
Width: 600
Flags: W
HStem: -14 45<286 318.5> 544 20G<547 547> 576 45<349 428.5>
VStem: 157 54<160.5 165 160.5 213> 515 54<393 446>
LayerCount: 2
Fore
SplineSet
511 597 m 1
 547 656 l 1
 591 638 l 1xb8
 547 564 l 1xf8
 561 534 569 492 569 452 c 0
 569 313 520 159 462 77 c 0
 407 0 337 -14 300 -14 c 0
 272 -14 238 -9 218 10 c 1
 174 -62 l 1
 131 -44 l 1
 183 45 l 1
 160 85 157 133 157 160 c 0
 157 266 203 621 429 621 c 0
 461 621 490 616 511 597 c 1
217 107 m 1
 485 552 l 1
 467 572 434 576 423 576 c 0
 275 576 212 304 211 165 c 0
 211 156 211 119 217 107 c 1
511 508 m 1
 244 53 l 1
 250 48 265 31 301 31 c 0
 470 31 515 352 515 434 c 0
 515 458 515 484 513 508 c 1
 511 508 l 1
EndSplineSet
EndChar

StartChar: Tcedilla
Encoding: 278 354 171
Width: 600
Flags: W
HStem: -142 45<270.5 295 270.5 321> -22 21G<321 321> 0 47<164 284 164 284 153 284 333 445 164 328> 516 47<214 384 214 214 432 432 432 603>
VStem: 332 47<-87 -73.5>
LayerCount: 2
Fore
SplineSet
328 0 m 1
 321 -22 l 1xd8
 360 -28 379 -48 379 -78 c 0
 379 -111 353 -142 289 -142 c 0
 243 -142 198 -131 178 -127 c 1
 194 -83 l 1
 213 -88 250 -97 291 -97 c 0
 299 -97 332 -96 332 -78 c 0
 332 -69 332 -62 264 -60 c 1
 284 0 l 1
 153 0 l 1
 164 47 l 1
 284 47 l 1
 384 516 l 1
 214 516 l 1
 167 353 l 1
 118 353 l 1
 178 563 l 1
 658 563 l 1
 628 353 l 1
 580 353 l 1
 603 516 l 1
 432 516 l 1
 333 47 l 1
 455 47 l 1
 445 0 l 1
 328 0 l 1
EndSplineSet
EndChar

StartChar: carriagereturn
Encoding: 279 8629 172
Width: 600
Flags: MW
HStem: 262 50<164 524 164 574 164 524>
VStem: 524 50<312 527 262 527>
LayerCount: 2
Fore
SplineSet
524 312 m 1
 524 527 l 1
 574 527 l 1
 574 262 l 1
 164 262 l 1
 201 207 204 179 204 178 c 0
 204 175 201 159 183 159 c 0
 174 159 167 167 149 186 c 0
 105 233 45 265 37 269 c 0
 28 273 18 277 18 289 c 0
 18 298 27 302 42 310 c 0
 78 326 125 361 152 392 c 0
 170 413 173 416 183 416 c 0
 198 416 204 404 204 397 c 0
 204 376 174 327 164 312 c 1
 524 312 l 1
EndSplineSet
EndChar

StartChar: diamond
Encoding: 280 9830 173
Width: 600
Flags: MW
HStem: -11 21G 543 20G
VStem: 90 420<276 276>
LayerCount: 2
Fore
SplineSet
100 265 m 1
 90 276 l 1
 105 294 116 308 145 344 c 0
 189 400 199 412 214 434 c 0
 249 481 274 518 299 563 c 1
 328 513 361 466 414 395 c 0
 447 353 475 316 492 297 c 0
 498 290 501 286 510 276 c 1
 495 261 482 245 458 215 c 2
 402 142 l 2
 367 96 327 37 300 -11 c 1
 288 12 273 35 248 71 c 0
 201 137 169 180 149 205 c 2
 100 265 l 1
EndSplineSet
EndChar

StartChar: SF440000
Encoding: 281 9580 174
Width: 600
Flags: MW
HStem: 144 72<0 192 0 264 408 408 408 600> 288 72<0 192 0 264 0 192 408 600>
VStem: 192 72<-288 144 144 144 360 792> 336 72<-288 144 -288 216 360 792>
LayerCount: 2
Fore
SplineSet
264 216 m 1
 264 -288 l 1
 192 -288 l 1
 192 144 l 1
 0 144 l 1
 0 216 l 1
 264 216 l 1
264 288 m 1
 0 288 l 1
 0 360 l 1
 192 360 l 1
 192 792 l 1
 264 792 l 1
 264 288 l 1
336 216 m 1
 600 216 l 1
 600 144 l 1
 408 144 l 1
 408 -288 l 1
 336 -288 l 1
 336 216 l 1
336 288 m 1
 336 792 l 1
 408 792 l 1
 408 360 l 1
 600 360 l 1
 600 288 l 1
 336 288 l 1
EndSplineSet
EndChar

StartChar: trademark
Encoding: 282 8482 175
Width: 600
Flags: W
HStem: 280 25<110 129.5 110 232 105 129.5> 549 25<205 205 247 247 699 714>
VStem: 158 39<309 326> 309 21 359 23<310.5 330> 593 39<323 330>
LayerCount: 2
Fore
SplineSet
719 574 m 1
 714 549 l 1
 684 549 680 547 677 533 c 2
 632 323 l 2
 629 307 633 308 663 305 c 1
 657 280 l 1
 547 280 l 1
 553 305 l 1
 583 306 588 305 593 330 c 2
 632 510 l 1
 630 512 l 1
 473 269 l 1
 424 512 l 1
 422 512 l 1
 384 330 l 2
 383 329 382 317 382 315 c 0
 382 306 385 306 414 305 c 1
 409 280 l 1
 315 280 l 1
 320 305 l 1
 350 307 354 306 359 330 c 2
 403 540 l 2
 405 550 402 550 378 549 c 1
 384 574 l 1
 455 574 l 1xfc
 499 352 l 1
 642 574 l 1
 719 574 l 1
330 497 m 1xf4
 305 497 l 1
 308 516 309 520 309 529 c 0
 309 545 302 550 247 549 c 1
 198 323 l 1
 197 312 l 2
 197 306 223 306 237 305 c 1
 232 280 l 1
 105 280 l 1
 110 305 l 1
 149 305 153 304 158 326 c 2
 205 549 l 1
 145 550 139 544 125 497 c 1
 98 497 l 1
 111 534 112 538 120 574 c 1
 347 574 l 1
 342 556 336 537 330 497 c 1xf4
EndSplineSet
EndChar

StartChar: sigma
Encoding: 283 963 176
Width: 600
Flags: W
HStem: -15 49<210.5 317 210.5 328.5> 401 49<283 640 630 630> 408 42
VStem: 64 54<141.5 230> 480 54<198 304>
LayerCount: 2
Fore
SplineSet
640 450 m 1xb8
 630 401 l 1xd8
 444 415 l 1
 442 413 l 1
 469 398 534 357 534 254 c 0
 534 112 401 -15 256 -15 c 0
 131 -15 64 76 64 176 c 0
 64 284 139 367 196 403 c 0
 269 449 365 450 423 450 c 2
 640 450 l 1xb8
342 401 m 0
 224 401 118 291 118 173 c 0
 118 110 160 34 261 34 c 0
 373 34 480 139 480 257 c 0
 480 351 413 401 342 401 c 0
EndSplineSet
EndChar

StartChar: Kcedilla
Encoding: 284 310 177
Width: 600
Flags: W
HStem: -142 45<323.5 348 323.5 374> -60 60<58 317> -22 22<374 374> 0 47<68 153 204 278 58 153 503 586> 516 47<178 254 168 397 304 387 304 304 481 552 624 624 624 667>
VStem: 385 47<-87 -73.5>
LayerCount: 2
Fore
SplineSet
178 563 m 1x9c
 397 563 l 1
 387 516 l 1
 304 516 l 1
 254 290 l 1
 552 514 l 1
 552 516 l 1
 471 516 l 1
 481 563 l 1
 677 563 l 1
 667 516 l 1
 624 516 l 1
 367 320 l 1
 428 224 457 161 503 47 c 1
 597 47 l 1
 586 0 l 1
 464 0 l 1
 424 106 391 192 325 290 c 1
 242 227 l 1
 204 47 l 1
 288 47 l 1
 278 0 l 1
 58 0 l 1
 68 47 l 1
 153 47 l 1
 254 516 l 1
 168 516 l 1
 178 563 l 1x9c
382 0 m 1xac
 374 -22 l 1xac
 413 -28 432 -48 432 -78 c 0
 432 -111 406 -142 342 -142 c 0
 296 -142 251 -131 231 -127 c 1
 247 -83 l 1
 266 -88 303 -97 344 -97 c 0
 352 -97 385 -96 385 -78 c 0
 385 -69 385 -62 317 -60 c 1xcc
 337 0 l 1
 382 0 l 1xac
EndSplineSet
EndChar

StartChar: tquoteright
Encoding: 285 -1 178
Width: 600
Flags: W
HStem: -14 49<291 359.5 291 365> 369 47<193 251 183 260 309 522 193 300> 369 194<183 340 183 340 300 340 292 522 300 300>
VStem: 196 52<91 95>
LayerCount: 2
Fore
SplineSet
292 563 m 1xf0
 340 563 l 1xb0
 309 416 l 1
 532 416 l 1
 522 369 l 1
 300 369 l 1
 260 180 l 2
 258 171 248 120 248 95 c 0
 248 87 251 35 331 35 c 0
 388 35 461 58 545 92 c 1
 545 42 l 1
 475 13 403 -14 327 -14 c 0
 232 -14 196 44 196 83 c 0
 196 107 206 155 211 180 c 2
 251 369 l 1
 183 369 l 1
 193 416 l 1
 260 416 l 1xd0
 292 563 l 1xf0
675 563 m 1
 780 563 l 1
 620 320 l 1
 547 320 l 1
 675 563 l 1
EndSplineSet
EndChar

StartChar: aogonek
Encoding: 286 261 179
Width: 600
Flags: W
HStem: -117 52<398.5 446.5> -14 48<202 254.5 202 255.5> 0 47<496 496 496 549> 229 49<253.5 340.5 244.5 353> 402 48<345.5 415>
VStem: 82 54<84 128 84 139.5> 363 63<-58 -54> 477 53<337.5 351.5>
LayerCount: 2
Fore
SplineSet
496 -39 m 1xbf
 474 -94 l 1
 463 -101 441 -117 411 -117 c 0
 386 -117 363 -101 363 -70 c 0
 363 -38 387 -15 410 0 c 1
 422 57 l 1
 364 24 297 -14 214 -14 c 0xdf
 135 -14 82 38 82 103 c 0
 82 176 158 278 331 278 c 0
 350 278 406 276 467 265 c 1
 472 296 l 2
 473 301 477 327 477 339 c 0
 477 364 455 402 375 402 c 0
 306 402 235 375 195 360 c 1
 185 406 l 1
 231 423 304 450 387 450 c 0
 463 450 530 417 530 347 c 0
 530 328 524 302 523 296 c 2
 472 47 l 1
 559 47 l 1
 549 0 l 1
 496 0 l 1
 479 -5 426 -24 426 -52 c 0
 426 -64 437 -65 440 -65 c 0
 453 -65 457 -62 496 -39 c 1xbf
435 119 m 1
 457 219 l 1
 415 226 374 229 332 229 c 0
 175 229 136 148 136 108 c 0
 136 60 183 34 221 34 c 0
 288 34 384 80 435 119 c 1
EndSplineSet
EndChar

StartChar: SF280000
Encoding: 287 9563 180
Width: 600
Flags: MW
HStem: 144 72<0 264 0 336 0 264> 288 72<0 264 0 264>
VStem: 264 72<216 288 288 288 360 792 144 792>
LayerCount: 2
Fore
SplineSet
336 792 m 1
 336 144 l 1
 0 144 l 1
 0 216 l 1
 264 216 l 1
 264 288 l 1
 0 288 l 1
 0 360 l 1
 264 360 l 1
 264 792 l 1
 336 792 l 1
EndSplineSet
EndChar

StartChar: tbar
Encoding: 288 359 181
Width: 600
Flags: W
HStem: -14 49<289.5 346 289.5 354.5> 259 47<169 228 159 238 286 498 169 276> 369 47<193 251 183 260 193 300 310 522> 369 194<183 340 183 340 300 300 300 340 292 522>
VStem: 196 52<93 95>
LayerCount: 2
Fore
SplineSet
286 306 m 1xe8
 508 306 l 1
 498 259 l 1
 276 259 l 1
 260 180 l 2
 258 171 248 117 248 95 c 0
 248 91 248 35 331 35 c 0
 361 35 409 39 545 91 c 1
 545 42 l 1
 448 3 382 -14 327 -14 c 0
 231 -14 196 45 196 83 c 0
 196 107 206 155 211 180 c 2
 228 259 l 1
 159 259 l 1
 169 306 l 1
 238 306 l 1
 251 369 l 1
 183 369 l 1
 193 416 l 1
 260 416 l 1xe8
 292 563 l 1
 340 563 l 1xd8
 310 416 l 1
 532 416 l 1
 522 369 l 1
 300 369 l 1
 286 306 l 1xe8
EndSplineSet
EndChar

StartChar: SF600000
Encoding: 289 9600 182
Width: 600
Flags: MW
HStem: 252 540<0 600 0 600>
VStem: 0 600<252 792 252 792>
LayerCount: 2
Fore
SplineSet
0 252 m 1
 0 792 l 1
 600 792 l 1
 600 252 l 1
 0 252 l 1
EndSplineSet
EndChar

StartChar: registered
Encoding: 290 174 183
Width: 600
Flags: MW
HStem: -4 38<288.5 429 288.5 438.5> 134 22<193 193 193 314 188 193> 283 25<309 309 309 324 304 309> 443 21<351.5 367> 542 38<289.5 428>
VStem: 67 38<218.5 358.5 218.5 370> 450 45<390 399.5> 612 38<218 358.5>
LayerCount: 2
Fore
SplineSet
251 441 m 1
 256 464 l 1
 394 464 l 2
 429 464 495 458 495 397 c 0
 495 383 492 313 398 293 c 1
 407 284 417 275 426 236 c 2
 434 203 l 2
 445 157 446 155 484 156 c 1
 479 134 l 1
 440 134 l 2
 400 134 394 166 386 211 c 0
 373 281 370 283 324 283 c 2
 304 283 l 1
 281 173 l 2
 279 167 277 160 293 159 c 0
 300 158 306 158 319 156 c 1
 314 134 l 1
 188 134 l 1
 193 156 l 1
 198 157 222 159 226 161 c 0
 233 163 235 168 236 174 c 0
 237 177 237 180 238 183 c 2
 288 418 l 2
 288 420 291 430 291 431 c 0
 291 439 282 439 278 439 c 0
 273 439 255 441 251 441 c 1
333 418 m 2
 309 308 l 1
 346 307 450 304 450 396 c 0
 450 403 448 424 430 431 c 0
 409 440 369 443 365 443 c 0
 338 443 335 429 333 418 c 2
358 580 m 0
 517 580 650 453 650 288 c 0
 650 126 519 -4 358 -4 c 0
 198 -4 67 126 67 288 c 0
 67 452 199 580 358 580 c 0
359 542 m 0
 220 542 105 429 105 288 c 0
 105 149 218 34 359 34 c 0
 499 34 612 148 612 288 c 0
 612 429 497 542 359 542 c 0
EndSplineSet
EndChar

StartChar: threeeighths
Encoding: 291 8540 184
Width: 600
Flags: W
HStem: -88 37<455.5 499.5 455.5 507.5> 85 39<496.5 527.5> 241 37<159.5 202 159.5 208.5> 256 37<521 562.5> 425 36<191 231> 427 20G 585 37<230.5 257> 593 20G<711 711>
VStem: 276 41<347.5 390> 294 41<530.5 553> 370 41<-13.5 21.5> 414 41<162.5 199 162.5 205> 572 41<9.5 47> 603 41<190 221.5>
LayerCount: 2
Fore
SplineSet
370 0 m 0xe6a8
 370 43 399 82 446 107 c 1
 424 127 414 147 414 173 c 0
 414 237 477 293 549 293 c 0
 604 293 644 258 644 210 c 0xd694
 644 170 620 133 575 105 c 1
 600 87 613 64 613 34 c 0
 613 -30 545 -88 470 -88 c 0
 411 -88 370 -53 370 0 c 0xe6a8
455 177 m 0xd694
 455 148 480 124 513 124 c 0
 559 124 603 165 603 208 c 0
 603 235 579 256 546 256 c 0
 496 256 455 221 455 177 c 0xd694
411 2 m 0xea68
 411 -29 437 -51 474 -51 c 0
 525 -51 572 -12 572 31 c 0
 572 63 547 85 508 85 c 0
 457 85 411 46 411 2 c 0xea68
146 549 m 1
 132 582 l 1
 189 613 214 622 247 622 c 0
 298 622 335 590 335 546 c 0xe668
 335 506 315 472 276 447 c 1xe6a8
 305 428 317 406 317 375 c 0
 317 303 249 241 168 241 c 0
 139 241 119 247 77 265 c 2
 58 273 l 1
 80 307 l 1
 118 287 146 278 173 278 c 0
 231 278 276 321 276 374 c 0
 276 406 252 425 210 425 c 2
 194 424 l 1
 183 424 l 1
 191 461 l 1xeaa8
 231 462 247 467 267 484 c 0
 284 499 294 521 294 540 c 0
 294 566 273 585 241 585 c 0
 218 585 199 577 163 558 c 2
 146 549 l 1
686 633 m 1
 711 613 l 1xe5a8
 51 -90 l 1
 28 -68 l 1
 686 633 l 1
EndSplineSet
EndChar

StartChar: delta
Encoding: 292 948 185
Width: 600
Flags: MW
HStem: -15 49<263 360.5 263 375> 370 49<321 375 308 400.5> 568 47<304 590 304 304>
VStem: 118 54<125 214.5 125 230.5> 513 54<192.5 285.5 182 297>
LayerCount: 2
Fore
SplineSet
600 615 m 1
 590 568 l 1
 304 568 l 1
 464 424 l 2
 510 382 567 330 567 241 c 0
 567 123 450 -15 300 -15 c 0
 175 -15 118 82 118 165 c 0
 118 296 246 419 370 419 c 0
 380 419 393 418 398 418 c 1
 294 509 l 2
 271 529 260 543 250 558 c 1
 263 615 l 1
 600 615 l 1
380 370 m 0
 262 370 172 268 172 161 c 0
 172 89 225 34 301 34 c 0
 420 34 513 142 513 243 c 0
 513 351 421 370 380 370 c 0
EndSplineSet
EndChar

StartChar: SF420000
Encoding: 293 9568 186
Width: 600
Flags: MW
HStem: 144 72<408 600 408 408> 288 72<408 600 408 600>
VStem: 192 72<-288 792 -288 792> 336 72<-288 144 -288 216 360 792>
LayerCount: 2
Fore
SplineSet
192 -288 m 1
 192 792 l 1
 264 792 l 1
 264 -288 l 1
 192 -288 l 1
336 216 m 1
 600 216 l 1
 600 144 l 1
 408 144 l 1
 408 -288 l 1
 336 -288 l 1
 336 216 l 1
336 288 m 1
 336 792 l 1
 408 792 l 1
 408 360 l 1
 600 360 l 1
 600 288 l 1
 336 288 l 1
EndSplineSet
EndChar

StartChar: SF480000
Encoding: 294 9573 187
Width: 600
Flags: MW
HStem: 216 72<0 192 0 600 264 336 264 264 408 408 408 600>
VStem: 192 72<-288 216 -288 216> 336 72<-288 216 -288 216>
LayerCount: 2
Fore
SplineSet
336 216 m 1
 264 216 l 1
 264 -288 l 1
 192 -288 l 1
 192 216 l 1
 0 216 l 1
 0 288 l 1
 600 288 l 1
 600 216 l 1
 408 216 l 1
 408 -288 l 1
 336 -288 l 1
 336 216 l 1
EndSplineSet
EndChar

StartChar: SM570001
Encoding: 295 9688 188
Width: 600
Flags: MW
HStem: 0 140<273 327 273 539> 338 140<273 327>
VStem: 61 140<211 265.5 211 478> 399 140<211 265.5>
LayerCount: 2
Fore
SplineSet
61 0 m 1
 61 478 l 1
 539 478 l 1
 539 0 l 1
 61 0 l 1
300 338 m 0
 246 338 201 293 201 238 c 0
 201 184 246 140 300 140 c 0
 354 140 399 184 399 238 c 0
 399 293 354 338 300 338 c 0
EndSplineSet
EndChar

StartChar: SF010000
Encoding: 296 9484 189
Width: 600
Flags: MW
HStem: 216 72<336 336 336 600>
VStem: 264 72<-288 216 -288 288>
LayerCount: 2
Fore
SplineSet
336 216 m 1
 336 -288 l 1
 264 -288 l 1
 264 288 l 1
 600 288 l 1
 600 216 l 1
 336 216 l 1
EndSplineSet
EndChar

StartChar: dquoteright
Encoding: 297 -1 190
Width: 600
Flags: W
HStem: -10 49<215.5 254> 0 47<473 547> 383 49<270.5 360.5 264.5 367> 543 20G<368 368 695 800 800 800> 607 20G<596 596>
VStem: 61 56<125 226 125 239>
LayerCount: 2
Fore
SplineSet
384 608 m 1x7c
 596 627 l 1
 473 47 l 1
 557 47 l 1
 547 0 l 1
 414 0 l 1x7c
 429 71 l 1
 427 73 l 1
 346 -10 266 -10 242 -10 c 0xbc
 125 -10 61 77 61 168 c 0
 61 310 199 432 330 432 c 0
 391 432 455 404 483 348 c 1
 485 348 l 1
 535 573 l 1
 368 563 l 1
 384 608 l 1x7c
244 39 m 0xbc
 368 39 461 147 461 249 c 0
 461 330 405 383 329 383 c 0
 212 383 117 281 117 171 c 0
 117 79 187 39 244 39 c 0xbc
695 563 m 1
 800 563 l 1
 640 320 l 1
 567 320 l 1
 695 563 l 1
EndSplineSet
EndChar

StartChar: SS000000
Encoding: 298 9786 191
Width: 600
Flags: MW
HStem: 0 38<232.5 367.5 232.5 377.5> 110 65<269 329.5> 321 78<205 227 373.5 395> 525 38<232.5 367.5>
VStem: 18 38<214.5 349.5 214.5 359.5> 177 78<349.5 371> 345 78<348.5 370> 544 38<214.5 349.5>
LayerCount: 2
Fore
SplineSet
300 563 m 0
 455 563 582 437 582 282 c 0
 582 126 455 0 300 0 c 0
 145 0 18 126 18 282 c 0
 18 437 144 563 300 563 c 0
300 525 m 0
 165 525 56 417 56 282 c 0
 56 147 165 38 300 38 c 0
 435 38 544 147 544 282 c 0
 544 417 435 525 300 525 c 0
216 399 m 0
 238 399 255 382 255 360 c 0
 255 339 238 321 216 321 c 0
 194 321 177 339 177 360 c 0
 177 382 194 399 216 399 c 0
384 399 m 0
 406 399 423 381 423 359 c 0
 423 337 406 321 384 321 c 0
 363 321 345 338 345 359 c 0
 345 381 363 399 384 399 c 0
483 316 m 1
 478 244 467 209 438 172 c 0
 406 131 359 110 300 110 c 0
 236 110 186 135 154 184 c 0
 131 219 122 249 117 316 c 1
 126 277 134 261 154 238 c 0
 191 195 238 175 300 175 c 0
 363 175 410 195 447 238 c 0
 467 261 474 277 483 316 c 1
EndSplineSet
EndChar

StartChar: plussuperior
Encoding: 299 8314 192
Width: 600
Flags: W
HStem: 408 43<222 356 222 356 406 540> 408 164<222 406 222 406 356 540 356 406>
VStem: 356 50<287 408 287 408 451 572>
LayerCount: 2
Fore
SplineSet
356 572 m 1xe0
 406 572 l 1x60
 406 451 l 1
 540 451 l 1
 540 408 l 1
 406 408 l 1
 406 287 l 1
 356 287 l 1
 356 408 l 1
 222 408 l 1
 222 451 l 1
 356 451 l 1xa0
 356 572 l 1xe0
EndSplineSet
EndChar

StartChar: divide
Encoding: 300 247 193
Width: 600
Flags: MW
HStem: 78 90<354 377 354 377.5> 278 50<132 600 132 600> 438 90<354.5 378 354.5 379>
VStem: 321 90<110.5 136 471 496>
LayerCount: 2
Fore
SplineSet
366 528 m 0
 390 528 411 509 411 483 c 0
 411 459 392 438 366 438 c 0
 341 438 321 459 321 483 c 0
 321 510 343 528 366 528 c 0
132 328 m 1
 600 328 l 1
 600 278 l 1
 132 278 l 1
 132 328 l 1
366 168 m 0
 388 168 411 150 411 123 c 0
 411 97 389 78 366 78 c 0
 342 78 321 98 321 123 c 0
 321 149 342 168 366 168 c 0
EndSplineSet
EndChar

StartChar: uogonek
Encoding: 301 371 194
Width: 600
Flags: W
HStem: -117 52<404.5 452> -14 49<238 303.5> 0 47<502 554 502 502> 383 47<123 194 113 254 430 505>
VStem: 141 50<97.5 120 97.5 121.5> 369 62<-58 -48.5>
LayerCount: 2
Fore
SplineSet
501 -39 m 1xbc
 480 -94 l 1
 469 -101 447 -117 417 -117 c 0
 392 -117 369 -101 369 -70 c 0
 369 -27 414 0 425 5 c 1
 435 52 l 1
 395 24 342 -14 265 -14 c 0
 158 -14 141 78 141 111 c 0
 141 132 147 160 148 165 c 2
 194 383 l 1
 113 383 l 1
 123 430 l 1
 254 430 l 1
 198 165 l 2
 197 158 191 131 191 109 c 0
 191 86 208 35 268 35 c 0
 354 35 432 107 450 124 c 1xdc
 505 383 l 1
 420 383 l 1
 430 430 l 1
 564 430 l 1
 484 47 l 1
 564 47 l 1
 554 0 l 1
 502 0 l 1
 486 -4 431 -24 431 -52 c 0
 431 -64 442 -65 445 -65 c 0
 459 -65 463 -62 501 -39 c 1xbc
EndSplineSet
EndChar

StartChar: SF410000
Encoding: 302 9574 195
Width: 600
Flags: MW
HStem: 144 72<0 192 0 264 408 600 408 408> 288 72<0 600 0 600>
VStem: 192 72<-288 144 144 144> 336 72<-288 144>
LayerCount: 2
Fore
SplineSet
408 -288 m 1
 336 -288 l 1
 336 216 l 1
 600 216 l 1
 600 144 l 1
 408 144 l 1
 408 -288 l 1
0 216 m 1
 264 216 l 1
 264 -288 l 1
 192 -288 l 1
 192 144 l 1
 0 144 l 1
 0 216 l 1
600 288 m 1
 0 288 l 1
 0 360 l 1
 600 360 l 1
 600 288 l 1
EndSplineSet
EndChar

StartChar: SM630000
Encoding: 303 9664 196
Width: 600
Flags: MW
HStem: 83 397<560 560>
VStem: 0 560<282 282>
LayerCount: 2
Fore
SplineSet
560 83 m 1
 0 282 l 1
 560 480 l 1
 560 83 l 1
EndSplineSet
EndChar

StartChar: Aogonek
Encoding: 304 260 197
Width: 600
Flags: MW
HStem: -117 52<439.5 487> 0 47<19 71 122 214 9 71 394 451 548 589> 186 44<236 461 236 468 209 461> 516 47<231 364 223 446>
VStem: 404 63<-58 -54>
LayerCount: 2
Fore
SplineSet
536 -39 m 1
 515 -94 l 1
 504 -101 482 -117 452 -117 c 0
 427 -117 404 -101 404 -70 c 0
 404 -38 427 -15 451 -2 c 1
 451 0 l 1
 384 0 l 1
 394 47 l 1
 496 47 l 1
 468 186 l 1
 209 186 l 1
 122 47 l 1
 223 47 l 1
 214 0 l 1
 9 0 l 1
 19 47 l 1
 71 47 l 1
 364 516 l 1
 223 516 l 1
 231 563 l 1
 446 563 l 1
 548 47 l 1
 599 47 l 1
 589 0 l 1
 537 0 l 1
 520 -5 467 -24 467 -52 c 0
 467 -64 478 -65 480 -65 c 0
 494 -65 498 -62 536 -39 c 1
461 230 m 1
 407 504 l 1
 236 230 l 1
 461 230 l 1
EndSplineSet
EndChar

StartChar: SF070000
Encoding: 305 9524 198
Width: 600
Flags: MW
HStem: 216 72<0 264 336 600 0 264>
VStem: 264 72<288 792>
LayerCount: 2
Fore
SplineSet
336 288 m 1
 600 288 l 1
 600 216 l 1
 0 216 l 1
 0 288 l 1
 264 288 l 1
 264 792 l 1
 336 792 l 1
 336 288 l 1
EndSplineSet
EndChar

StartChar: scedilla
Encoding: 306 351 199
Width: 600
Flags: W
HStem: -142 45<281 305.5 281 331> -22 21G<332 332> -14 49<335 335> -13 48<290 290> -9 21G<102 102> 293 104<506 512 506 547 505 512> 396 47<326.5 403.5 309.5 439> 428 20G<541 541>
VStem: 131 44<148 154> 170 54<275.5 327 275.5 332.5> 342 48<-87 -73.5> 485 53<111 160> 505 42<293 311.5>
LayerCount: 2
Fore
SplineSet
335 -14 m 1xb278
 332 -22 l 1xc268
 371 -28 390 -48 390 -78 c 0
 390 -111 363 -142 299 -142 c 0
 254 -142 209 -131 189 -127 c 1
 205 -83 l 1
 224 -88 260 -97 302 -97 c 0
 309 -97 342 -96 342 -78 c 0
 342 -69 342 -62 275 -60 c 1
 290 -13 l 1
 256 -10 227 -2 197 16 c 0
 192 19 176 36 172 36 c 0
 165 36 145 -4 140 -15 c 1x92a8
 102 -9 l 1
 105 2 124 64 124 68 c 0x8aa8
 129 129 130 136 131 148 c 1
 175 154 l 1
 174 119 173 105 183 86 c 0x92a8
 198 58 247 35 315 35 c 0
 404 35 485 72 485 137 c 0
 485 183 441 185 356 190 c 0
 287 194 170 200 170 298 c 0
 170 367 244 443 375 443 c 0x9270
 432 443 466 426 484 414 c 0
 488 412 504 397 508 397 c 0
 516 397 519 402 541 448 c 1x9568
 576 443 l 1x9268
 562 400 552 361 547 293 c 1x9468
 505 293 l 1x9268
 505 330 506 396 372 396 c 0
 281 396 224 350 224 304 c 0
 224 247 293 243 390 238 c 0
 433 236 538 230 538 140 c 0
 538 82 484 -5 335 -14 c 1xb278
EndSplineSet
EndChar

StartChar: arrowdown
Encoding: 307 8595 200
Width: 600
Flags: MW
HStem: -25 21G<293.5 304> 543 20G<275 325 325 325>
VStem: 275 50<121 563 121 563>
LayerCount: 2
Fore
SplineSet
275 563 m 1
 325 563 l 1
 325 121 l 1
 380 158 408 161 409 161 c 0
 412 161 428 158 428 140 c 0
 428 131 420 124 401 106 c 0
 354 62 322 2 318 -6 c 0
 314 -15 310 -25 298 -25 c 0
 289 -25 285 -16 277 -1 c 0
 261 35 226 82 195 109 c 0
 174 127 171 130 171 140 c 0
 171 155 183 161 190 161 c 0
 211 161 260 131 275 121 c 1
 275 563 l 1
EndSplineSet
EndChar

StartChar: thorn
Encoding: 308 254 201
Width: 600
Flags: W
HStem: -157 47<-6 76 126 266 -16 76> -7 49<319 384 294.5 389> 394 49<365 452.5> 575 54 600 20G<141 141>
VStem: 544 54<204 303>
LayerCount: 2
Fore
SplineSet
283 629 m 1xf4
 226 362 l 1
 228 360 l 1
 254 387 313 443 417 443 c 0
 539 443 598 354 598 266 c 0
 598 115 452 -7 326 -7 c 0
 312 -7 218 -7 167 80 c 1
 126 -110 l 1
 275 -110 l 1
 266 -157 l 1
 -16 -157 l 1
 -6 -110 l 1
 76 -110 l 1
 222 577 l 1
 133 573 l 1xf4
 141 620 l 1xec
 283 629 l 1xf4
415 394 m 0
 290 394 188 291 188 178 c 0
 188 91 261 42 328 42 c 0
 440 42 544 147 544 261 c 0
 544 345 490 394 415 394 c 0
EndSplineSet
EndChar

StartChar: dbar
Encoding: 309 273 202
Width: 600
Flags: W
HStem: -10 49<248.5 287> 0 47<506 580> 383 49<303.5 393.5 297.5 400> 473 47<314 547 304 557 606 680 314 596> 607 20G<629 629>
VStem: 94 56<125 226 125 239>
LayerCount: 2
Fore
SplineSet
417 608 m 1x7c
 629 627 l 1
 606 520 l 1
 690 520 l 1
 680 473 l 1
 596 473 l 1
 506 47 l 1
 590 47 l 1
 580 0 l 1
 447 0 l 1x7c
 462 71 l 1
 460 73 l 1
 379 -10 299 -10 275 -10 c 0xbc
 158 -10 94 77 94 168 c 0
 94 310 232 432 363 432 c 0
 424 432 488 404 516 348 c 1
 518 348 l 1
 547 473 l 1
 304 473 l 1
 314 520 l 1
 557 520 l 1
 568 573 l 1
 401 563 l 1
 417 608 l 1x7c
277 39 m 0xbc
 401 39 494 147 494 249 c 0
 494 330 438 383 362 383 c 0
 245 383 150 281 150 171 c 0
 150 79 220 39 277 39 c 0xbc
EndSplineSet
EndChar

StartChar: sixsuperior
Encoding: 310 8310 203
Width: 600
Flags: W
HStem: 239 35<337.5 381 337.5 388> 411 20G<309 309> 438 35<392 412> 588 33<471.5 544>
VStem: 258 36<327 353 327 386> 448 38<350.5 396>
LayerCount: 2
Fore
SplineSet
544 621 m 1
 535 587 l 1
 526 588 520 588 508 588 c 0
 435 588 398 574 361 532 c 0
 338 506 325 481 307 433 c 1
 309 431 l 1xdc
 321 444 335 455 351 462 c 0
 367 469 384 473 400 473 c 0xbc
 450 473 486 435 486 382 c 0
 486 307 423 239 353 239 c 0
 296 239 258 283 258 348 c 0
 258 424 294 512 346 564 c 0
 386 604 436 624 505 622 c 2
 534 621 l 1
 544 621 l 1
296 374 m 1xbc
 295 363 294 357 294 349 c 0
 294 305 319 274 356 274 c 0
 406 274 448 322 448 379 c 0
 448 413 427 438 397 438 c 0
 358 438 323 416 296 374 c 1xbc
EndSplineSet
EndChar

StartChar: SF470000
Encoding: 311 9572 204
Width: 600
Flags: MW
HStem: 144 72<0 264 0 600 336 600 336 336> 288 72<0 600 0 600>
VStem: 264 72<-288 144 -288 144>
LayerCount: 2
Fore
SplineSet
336 144 m 1
 336 -288 l 1
 264 -288 l 1
 264 144 l 1
 0 144 l 1
 0 216 l 1
 600 216 l 1
 600 144 l 1
 336 144 l 1
600 288 m 1
 0 288 l 1
 0 360 l 1
 600 360 l 1
 600 288 l 1
EndSplineSet
EndChar

StartChar: similar
Encoding: 312 8764 205
Width: 600
Flags: W
HStem: 254 57<451 464 449.5 491> 312 57<252.5 283>
VStem: 150 429<268 349>
LayerCount: 2
Fore
SplineSet
546 387 m 1
 579 349 l 1
 564 321 525 254 457 254 c 0xa0
 445 254 433 254 363 282 c 0
 300 309 293 312 273 312 c 0
 232 312 212 277 184 229 c 1
 150 268 l 1
 177 313 210 369 273 369 c 0x60
 302 369 326 359 378 337 c 0
 431 315 443 311 456 311 c 0
 472 311 507 318 541 378 c 0
 541 380 545 386 546 387 c 1
EndSplineSet
EndChar

StartChar: SS260000
Encoding: 313 8992 206
Width: 600
Flags: MW
HStem: 731 110<412 436 370.5 439>
VStem: 258 84<-245 624 624 700>
LayerCount: 2
Fore
SplineSet
342 -245 m 1
 258 -245 l 1
 258 624 l 2
 258 776 337 841 404 841 c 0
 468 841 477 798 477 782 c 0
 477 747 450 731 428 731 c 0
 396 731 386 747 375 763 c 0
 374 765 366 777 360 777 c 0
 342 777 342 760 342 700 c 2
 342 -245 l 1
EndSplineSet
EndChar

StartChar: degree
Encoding: 314 176 207
Width: 600
Flags: MW
HStem: 315 55<338 392.5 338 408> 566 55<338 392.5>
VStem: 212 55<441 495.5 441 509.5> 463 55<441 495.5>
LayerCount: 2
Fore
SplineSet
212 467 m 0
 212 552 280 621 365 621 c 0
 452 621 518 550 518 467 c 0
 518 384 451 315 365 315 c 0
 280 315 212 382 212 467 c 0
267 468 m 0
 267 414 311 370 365 370 c 0
 420 370 463 414 463 468 c 0
 463 523 420 566 365 566 c 0
 311 566 267 523 267 468 c 0
EndSplineSet
EndChar

StartChar: SF520000
Encoding: 315 9555 208
Width: 600
Flags: MW
HStem: 216 72<264 336 264 264 408 408 408 600>
VStem: 192 72<-288 216 -288 288> 336 72<-288 216 -288 216>
LayerCount: 2
Fore
SplineSet
336 216 m 1
 264 216 l 1
 264 -288 l 1
 192 -288 l 1
 192 288 l 1
 600 288 l 1
 600 216 l 1
 408 216 l 1
 408 -288 l 1
 336 -288 l 1
 336 216 l 1
EndSplineSet
EndChar

StartChar: ccedilla
Encoding: 316 231 209
Width: 600
Flags: W
HStem: -142 45<259 281.5 259 306.5> -60 95<252 350.5> -14 49<313 313> 396 49<321 430 311 463.5> 419 20G<603 603>
VStem: 107 54<110.5 223.5 106 234.5> 320 47<-87.5 -73.5> 524 43<273 279>
LayerCount: 2
Fore
SplineSet
313 -14 m 1xb7
 313 -23 l 1xb7
 331 -27 367 -35 367 -78 c 0
 367 -115 336 -142 277 -142 c 0
 232 -142 187 -132 166 -127 c 1
 182 -83 l 1
 205 -89 238 -97 280 -97 c 0
 283 -97 320 -97 320 -78 c 0
 320 -69 320 -63 252 -60 c 1xd7
 268 -13 l 1
 181 -1 107 54 107 167 c 0
 107 302 227 445 395 445 c 0
 465 445 496 420 509 410 c 0
 513 407 530 390 534 390 c 0
 546 390 565 440 567 447 c 1xb7
 603 439 l 1xaf
 577 352 573 338 567 279 c 1
 524 273 l 1
 526 322 530 396 397 396 c 0
 245 396 161 274 161 173 c 0
 161 39 286 35 310 35 c 0
 391 35 477 87 516 110 c 1
 536 69 l 1
 494 43 408 -10 313 -14 c 1xb7
EndSplineSet
EndChar

StartChar: SM760000
Encoding: 317 8597 210
Width: 600
Flags: MW
HStem: 587 20G<291 302>
VStem: 271 50<164 461 164 461>
LayerCount: 2
Fore
SplineSet
321 461 m 1
 321 164 l 1
 363 189 402 204 413 204 c 0
 418 204 432 200 432 183 c 0
 432 175 431 174 385 130 c 0
 364 110 331 68 313 29 c 0
 312 26 306 15 298 15 c 0
 288 15 286 19 272 46 c 0
 258 73 228 120 187 156 c 0
 170 171 168 173 168 183 c 0
 168 198 180 204 187 204 c 0
 188 204 216 202 271 164 c 1
 271 461 l 1
 224 427 190 421 187 421 c 0
 181 421 168 426 168 441 c 0
 168 450 169 452 195 475 c 0
 243 518 275 584 277 588 c 0
 281 596 285 607 297 607 c 0
 307 607 310 602 318 583 c 0
 319 581 345 527 415 467 c 0
 426 458 432 452 432 442 c 0
 432 425 419 421 414 421 c 0
 400 421 361 438 321 461 c 1
EndSplineSet
EndChar

StartChar: Uogonek
Encoding: 318 370 211
Width: 600
Flags: MW
HStem: -117 52<301.5 349.5> -17 51 516 47<148 212 138 373 262 262 262 363 477 570 617 617 617 688>
VStem: 137 51<118.5 132.5> 266 63<-85.5 -40>
LayerCount: 2
Fore
SplineSet
399 -39 m 1
 377 -94 l 1
 366 -101 344 -117 314 -117 c 0
 289 -117 266 -101 266 -70 c 0
 266 -49 277 -31 292 -17 c 1
 183 -10 137 49 137 123 c 0
 137 142 138 169 152 234 c 2
 212 516 l 1
 138 516 l 1
 148 563 l 1
 373 563 l 1
 363 516 l 1
 262 516 l 1
 201 234 l 2
 197 214 188 165 188 130 c 0
 188 107 197 34 309 34 c 0
 467 34 489 135 508 227 c 2
 570 516 l 1
 467 516 l 1
 477 563 l 1
 698 563 l 1
 688 516 l 1
 617 516 l 1
 554 221 l 2
 542 162 518 50 435 16 c 0
 354 -17 329 -28 329 -52 c 0
 329 -64 340 -65 343 -65 c 0
 356 -65 360 -62 399 -39 c 1
EndSplineSet
EndChar

StartChar: Ldot
Encoding: 319 319 212
Width: 600
Flags: W
HStem: 0 47<67 167 217 500 57 167> 223 135<418 435.5> 516 47<177 267 167 450 317 440 317 317>
VStem: 57 548<0 249> 349 156<278.5 301.5>
LayerCount: 2
Fore
SplineSet
177 563 m 1xb0
 450 563 l 1
 440 516 l 1
 317 516 l 1
 217 47 l 1
 500 47 l 1
 557 249 l 1
 605 249 l 1
 540 0 l 1
 57 0 l 1
 67 47 l 1
 167 47 l 1
 267 516 l 1
 167 516 l 1
 177 563 l 1xb0
440 358 m 0xe8
 474 358 505 337 505 303 c 0
 505 254 456 223 415 223 c 0
 380 223 349 244 349 278 c 0
 349 325 396 358 440 358 c 0xe8
EndSplineSet
EndChar

StartChar: underscoredbl
Encoding: 320 8215 213
Width: 600
Flags: MW
HStem: -225 50<-48 648 -48 648> -125 50<-48 648 -48 648>
VStem: -48 696<-225 -175 -225 -175 -125 -75 -225 -75>
LayerCount: 2
Fore
SplineSet
648 -175 m 1
 648 -225 l 1
 -48 -225 l 1
 -48 -175 l 1
 648 -175 l 1
-48 -75 m 1
 648 -75 l 1
 648 -125 l 1
 -48 -125 l 1
 -48 -75 l 1
EndSplineSet
EndChar

StartChar: SM750002
Encoding: 321 9689 214
Width: 600
Flags: MW
HStem: 0 65<240.5 359.5 240.5 582> 429 20G<254 345.5> 499 65<240.5 359.5>
VStem: 18 65<222 342.5 222 564> 517 65<222 342.5>
LayerCount: 2
Fore
SplineSet
300 499 m 0
 181 499 83 403 83 282 c 0
 83 162 181 65 300 65 c 0
 419 65 517 162 517 282 c 0
 517 403 419 499 300 499 c 0
18 0 m 1
 18 564 l 1
 582 564 l 1
 582 0 l 1
 18 0 l 1
300 449 m 0
 391 449 467 374 467 282 c 0
 467 191 392 115 300 115 c 0
 208 115 133 192 133 282 c 0
 133 374 208 449 300 449 c 0
EndSplineSet
EndChar

StartChar: SF430000
Encoding: 322 9552 215
Width: 600
Flags: MW
HStem: 144 72<0 600 0 600> 288 72<0 600 0 600>
VStem: 0 600<144 216 144 216 288 360 144 360>
LayerCount: 2
Fore
SplineSet
600 360 m 1
 600 288 l 1
 0 288 l 1
 0 360 l 1
 600 360 l 1
600 216 m 1
 600 144 l 1
 0 144 l 1
 0 216 l 1
 600 216 l 1
EndSplineSet
EndChar

StartChar: ffl
Encoding: 323 64260 216
Width: 600
Flags: W
HStem: 0 47<4 92 14 92 142 285 335 479 528 598> 371 47<92 161 82 171 221 354 92 211 414 479> 578 47<297.5 351.5 538.5 550.5> 585 20G 589 20G<648 648>
VStem: 4 644<0 609>
LayerCount: 2
Fore
SplineSet
4 0 m 1xe4
 14 47 l 1
 92 47 l 1
 161 371 l 1
 82 371 l 1
 92 418 l 1
 171 418 l 1
 184 477 l 2
 196 532 215 625 356 625 c 0xe4
 404 625 428 615 456 605 c 1xd4
 467 610 478 615 493 618 c 0
 508 622 527 625 550 625 c 0xe4
 587 625 606 620 648 609 c 1xcc
 528 47 l 1
 608 47 l 1
 598 0 l 1
 4 0 l 1xe4
211 371 m 1
 142 47 l 1
 285 47 l 1
 354 371 l 1
 211 371 l 1
232 471 m 2
 221 418 l 1
 364 418 l 1
 377 477 l 2
 389 532 394 541 408 563 c 1
 385 572 363 578 340 578 c 0
 255 578 243 524 232 471 c 2
479 47 m 1
 590 572 l 1
 580 574 563 578 538 578 c 0
 449 578 437 527 425 471 c 2
 414 418 l 1
 488 418 l 1
 479 371 l 1
 404 371 l 1
 335 47 l 1
 479 47 l 1
EndSplineSet
Ligature2: "'liga' Standard Ligatures in Latin lookup 0 subtable" ff l
EndChar

StartChar: SF400000
Encoding: 324 9577 217
Width: 600
Flags: MW
HStem: 144 72<0 600 0 600> 288 72<0 192 0 192 0 264 408 600>
VStem: 192 72<360 792 288 792> 336 72<360 792 360 792 360 792>
LayerCount: 2
Fore
SplineSet
600 288 m 1
 336 288 l 1
 336 792 l 1
 408 792 l 1
 408 360 l 1
 600 360 l 1
 600 288 l 1
0 288 m 1
 0 360 l 1
 192 360 l 1
 192 792 l 1
 264 792 l 1
 264 288 l 1
 0 288 l 1
600 216 m 1
 600 144 l 1
 0 144 l 1
 0 216 l 1
 600 216 l 1
EndSplineSet
EndChar

StartChar: SF530000
Encoding: 325 9579 218
Width: 600
Flags: MW
HStem: 216 72<0 192 0 192 264 336 408 600>
VStem: 192 72<-288 216 -288 216 288 792> 336 72<-288 216 -288 216 288 792>
LayerCount: 2
Fore
SplineSet
264 288 m 1
 336 288 l 1
 336 792 l 1
 408 792 l 1
 408 288 l 1
 600 288 l 1
 600 216 l 1
 408 216 l 1
 408 -288 l 1
 336 -288 l 1
 336 216 l 1
 264 216 l 1
 264 -288 l 1
 192 -288 l 1
 192 216 l 1
 0 216 l 1
 0 288 l 1
 192 288 l 1
 192 792 l 1
 264 792 l 1
 264 288 l 1
EndSplineSet
EndChar

StartChar: SF370000
Encoding: 326 9567 219
Width: 600
Flags: MW
HStem: 216 72<408 600 408 600>
VStem: 192 72<-288 792 -288 792> 336 72<-288 216 288 792>
LayerCount: 2
Fore
SplineSet
336 792 m 1
 408 792 l 1
 408 288 l 1
 600 288 l 1
 600 216 l 1
 408 216 l 1
 408 -288 l 1
 336 -288 l 1
 336 792 l 1
192 -288 m 1
 192 792 l 1
 264 792 l 1
 264 -288 l 1
 192 -288 l 1
EndSplineSet
EndChar

StartChar: SF060000
Encoding: 327 9516 220
Width: 600
Flags: MW
HStem: 216 72<0 264 0 600 336 600 336 336>
VStem: 264 72<-288 216 -288 216>
LayerCount: 2
Fore
SplineSet
336 216 m 1
 336 -288 l 1
 264 -288 l 1
 264 216 l 1
 0 216 l 1
 0 288 l 1
 600 288 l 1
 600 216 l 1
 336 216 l 1
EndSplineSet
EndChar

StartChar: SM690000
Encoding: 328 9788 221
Width: 600
Flags: W
HStem: -13 161<271 329 271 271> 82 66<263 271> 253 58<6 101 6 101 500 594> 416 66<263 271 329 337> 416 160<271 329 271 337> 424 20G<179 179 421 421>
VStem: 101 66<246 253 311 320 246 323> 271 58<-13 81 -13 82 -13 82 482 576> 434 66<246 253 311 320>
LayerCount: 2
Fore
SplineSet
137 404 m 1xa7
 71 469 l 1
 113 510 l 1
 179 444 l 1xa7
 198 463 245 482 271 482 c 1xb3
 271 576 l 1
 329 576 l 1xab
 329 482 l 1xb3
 356 482 397 464 421 444 c 1
 488 510 l 1
 529 469 l 1
 463 403 l 1
 481 385 500 339 500 311 c 1
 594 311 l 1
 594 253 l 1
 500 253 l 1
 500 224 483 185 463 160 c 1
 529 94 l 1
 488 53 l 1
 421 119 l 1
 407 105 360 82 329 81 c 1x6780
 329 -13 l 1
 271 -13 l 1xa7
 271 82 l 1
 236 82 199 98 179 119 c 1
 113 53 l 1
 71 94 l 1
 138 160 l 1x67
 117 181 101 225 101 253 c 1
 6 253 l 1
 6 311 l 1
 101 311 l 1
 101 335 119 382 137 404 c 1xa7
300 416 m 0xab80
 226 416 167 357 167 283 c 0
 167 209 226 148 300 148 c 0
 374 148 434 209 434 283 c 0
 434 357 374 416 300 416 c 0xab80
EndSplineSet
EndChar

StartChar: tau
Encoding: 329 964 222
Width: 600
Flags: MW
HStem: -9 49<286.5 313.5> 383 47<226 230 230 290 341 494 341 341>
VStem: 223 50<25.5 60.5>
LayerCount: 2
Fore
SplineSet
341 383 m 1
 275 75 l 2
 273 67 273 62 273 59 c 0
 273 51 274 40 299 40 c 0
 333 40 357 50 395 68 c 1
 399 20 l 1
 376 9 338 -9 289 -9 c 0
 254 -9 223 3 223 48 c 0
 223 59 225 72 226 75 c 2
 290 383 l 1
 230 383 l 2
 219 383 173 383 129 373 c 1
 139 422 l 1
 151 425 177 430 226 430 c 2
 504 430 l 1
 494 383 l 1
 341 383 l 1
EndSplineSet
EndChar

StartChar: SM700000
Encoding: 330 -1 223
Width: 600
Flags: MW
HStem: 149 179<7 593 7 593>
VStem: 7 586<149 328 149 328>
LayerCount: 2
Fore
SplineSet
7 149 m 1
 7 328 l 1
 593 328 l 1
 593 149 l 1
 7 149 l 1
EndSplineSet
EndChar

StartChar: Lcedilla
Encoding: 331 315 224
Width: 600
Flags: W
HStem: -142 45<293 317.5 293 343> -22 21G<344 344> 0 47<67 167 217 306 57 167 351 500 351 351> 516 47<177 267 167 450 317 317 317 440>
VStem: 354 48<-87 -73.5>
LayerCount: 2
Fore
SplineSet
351 0 m 1
 344 -22 l 1xd8
 383 -28 402 -48 402 -78 c 0
 402 -111 375 -142 311 -142 c 0
 266 -142 221 -131 201 -127 c 1
 217 -83 l 1
 236 -88 272 -97 314 -97 c 0
 321 -97 354 -96 354 -78 c 0
 354 -69 354 -62 287 -60 c 1
 306 0 l 1
 57 0 l 1
 67 47 l 1
 167 47 l 1
 267 516 l 1
 167 516 l 1
 177 563 l 1
 450 563 l 1
 440 516 l 1
 317 516 l 1
 217 47 l 1
 500 47 l 1
 557 249 l 1
 605 249 l 1
 540 0 l 1
 351 0 l 1
EndSplineSet
EndChar

StartChar: zerodot
Encoding: 332 -1 225
Width: 600
Flags: MW
HStem: -14 45<256 386 256 405.5> 251 101<355.5 369> 576 45<340.5 469>
VStem: 156 54<149.5 210 149.5 215> 304 116<292.5 310> 515 54<400 457>
LayerCount: 2
Fore
SplineSet
372 352 m 0
 400 352 420 334 420 310 c 0
 420 275 385 251 353 251 c 0
 327 251 304 267 304 293 c 0
 304 327 339 352 372 352 c 0
429 621 m 0
 561 621 569 494 569 447 c 0
 569 330 514 -14 297 -14 c 0
 166 -14 156 107 156 158 c 0
 156 272 208 621 429 621 c 0
423 576 m 0
 258 576 210 258 210 162 c 0
 210 137 210 31 302 31 c 0
 470 31 515 356 515 444 c 0
 515 470 515 576 423 576 c 0
EndSplineSet
EndChar

StartChar: SV040000
Encoding: 333 9660 226
Width: 600
Flags: MW
HStem: 96 371<300 300>
VStem: 102 396<467 467>
LayerCount: 2
Fore
SplineSet
102 467 m 1
 498 467 l 1
 300 96 l 1
 102 467 l 1
EndSplineSet
EndChar

StartChar: SP500000
Encoding: 334 -1 227
Width: 600
Flags: MW
HStem: 0 57<75 525 75 582> 136 21G<118 118 482 482> 410 20G<118 118 482 482> 507 57<75 75 75 525>
VStem: 18 57<57 507 57 564> 525 57<57 507 507 507>
LayerCount: 2
Fore
SplineSet
265 282 m 1
 118 430 l 1
 154 464 l 1
 300 317 l 1
 446 464 l 1
 482 430 l 1
 335 282 l 1
 482 136 l 1
 446 100 l 1
 300 247 l 1
 154 100 l 1
 118 136 l 1
 265 282 l 1
18 0 m 1
 18 564 l 1
 582 564 l 1
 582 0 l 1
 18 0 l 1
75 507 m 1
 75 57 l 1
 525 57 l 1
 525 507 l 1
 75 507 l 1
EndSplineSet
EndChar

StartChar: Rcedilla
Encoding: 335 342 228
Width: 600
Flags: W
HStem: -142 45<291 315.5 291 341> -60 60<44 285> -22 22<342 342> 0 47<54 136 185 265 44 136 497 576> 259 44<239 334 334 347 230 334> 516 47<163 235 153 418 284 284 284 412>
VStem: 352 48<-87 -73.5> 535 52<414.5 478>
LayerCount: 2
Fore
SplineSet
163 563 m 1x9f
 418 563 l 2
 487 563 587 563 587 442 c 0
 587 362 522 272 403 259 c 1
 410 245 483 84 497 47 c 1
 586 47 l 1
 576 0 l 1
 450 0 l 1
 444 24 438 47 419 97 c 0
 409 123 357 236 347 259 c 1
 230 259 l 1
 185 47 l 1
 275 47 l 1
 265 0 l 1
 44 0 l 1
 54 47 l 1
 136 47 l 1
 235 516 l 1
 153 516 l 1
 163 563 l 1x9f
412 516 m 2
 284 516 l 1
 239 303 l 1
 334 303 l 2
 375 303 435 303 478 334 c 0
 503 352 535 389 535 440 c 0
 535 516 473 516 412 516 c 2
350 0 m 1xaf
 342 -22 l 1xaf
 381 -28 400 -48 400 -78 c 0
 400 -111 373 -142 309 -142 c 0
 264 -142 219 -131 199 -127 c 1
 215 -83 l 1
 234 -88 270 -97 312 -97 c 0
 319 -97 352 -96 352 -78 c 0
 352 -69 352 -62 285 -60 c 1xcf
 305 0 l 1
 350 0 l 1xaf
EndSplineSet
EndChar

StartChar: SF490000
Encoding: 336 9561 229
Width: 600
Flags: MW
HStem: 216 72<264 336 408 600>
VStem: 192 72<288 792 288 792 288 792> 336 72<288 792 288 792>
LayerCount: 2
Fore
SplineSet
336 288 m 1
 336 792 l 1
 408 792 l 1
 408 288 l 1
 600 288 l 1
 600 216 l 1
 192 216 l 1
 192 792 l 1
 264 792 l 1
 264 288 l 1
 336 288 l 1
EndSplineSet
EndChar

StartChar: radical
Encoding: 337 8730 230
Width: 600
Flags: MW
HStem: 0 21G<202 250 202 202> 266 50<59 132 59 189> 725 50<464 694 464 464>
VStem: 59 635<266 775 316 775>
LayerCount: 2
Fore
SplineSet
59 316 m 1
 189 316 l 1
 236 131 l 1
 238 131 l 1
 426 775 l 1
 694 775 l 1
 694 725 l 1
 464 725 l 1
 250 0 l 1
 202 0 l 1
 132 266 l 1
 59 266 l 1
 59 316 l 1
EndSplineSet
EndChar

StartChar: SF460000
Encoding: 338 9576 231
Width: 600
Flags: MW
HStem: 216 72<0 192 264 336 408 600 0 192>
VStem: 192 72<288 792 288 792> 336 72<288 792 288 792>
LayerCount: 2
Fore
SplineSet
336 288 m 1
 336 792 l 1
 408 792 l 1
 408 288 l 1
 600 288 l 1
 600 216 l 1
 0 216 l 1
 0 288 l 1
 192 288 l 1
 192 792 l 1
 264 792 l 1
 264 288 l 1
 336 288 l 1
EndSplineSet
EndChar

StartChar: SM590000
Encoding: 339 9654 232
Width: 600
Flags: MW
HStem: 83 397<40 40>
VStem: 40 560<282 282 282 480 282 480>
LayerCount: 2
Fore
SplineSet
40 83 m 1
 40 480 l 1
 600 282 l 1
 40 83 l 1
EndSplineSet
EndChar

StartChar: SM750000
Encoding: 340 9675 233
Width: 600
Flags: MW
HStem: 65 50<254 346 254 359.5> 449 50<254 345.5>
VStem: 83 50<237 328 237 342.5> 467 50<236.5 328>
LayerCount: 2
Fore
SplineSet
300 499 m 0
 419 499 517 403 517 282 c 0
 517 162 419 65 300 65 c 0
 181 65 83 162 83 282 c 0
 83 403 181 499 300 499 c 0
300 449 m 0
 208 449 133 374 133 282 c 0
 133 192 208 115 300 115 c 0
 392 115 467 191 467 282 c 0
 467 374 391 449 300 449 c 0
EndSplineSet
EndChar

StartChar: SM770000
Encoding: 341 8616 234
Width: 600
Flags: MW
HStem: -87 50<195 408 195 408> 587 20G<291 302>
VStem: 271 50<164 461 164 461>
LayerCount: 2
Fore
SplineSet
321 461 m 1
 321 164 l 1
 363 189 402 204 413 204 c 0
 418 204 432 200 432 183 c 0
 432 175 431 174 385 130 c 0
 364 110 331 68 313 29 c 0
 312 26 306 15 298 15 c 0
 288 15 286 19 272 46 c 0
 258 73 228 120 187 156 c 0
 170 171 168 173 168 183 c 0
 168 198 180 204 187 204 c 0
 188 204 216 202 271 164 c 1
 271 461 l 1
 224 427 190 421 187 421 c 0
 181 421 168 426 168 441 c 0
 168 450 169 452 195 475 c 0
 243 518 275 584 277 588 c 0
 281 596 285 607 297 607 c 0
 307 607 310 602 318 583 c 0
 319 581 345 527 415 467 c 0
 426 458 432 452 432 442 c 0
 432 425 419 421 414 421 c 0
 400 421 361 438 321 461 c 1
195 -37 m 1
 408 -37 l 1
 408 -87 l 1
 195 -87 l 1
 195 -37 l 1
EndSplineSet
EndChar

StartChar: SF580000
Encoding: 342 9612 235
Width: 600
Flags: MW
HStem: -288 1080<0 300 0 300>
VStem: 0 300<-288 792 -288 792>
LayerCount: 2
Fore
SplineSet
0 -288 m 1
 0 792 l 1
 300 792 l 1
 300 -288 l 1
 0 -288 l 1
EndSplineSet
EndChar

StartChar: arrowboth
Encoding: 343 8596 236
Width: 600
Flags: W
HStem: 151 161<186 198.5 404.5 418> 262 50<171 432 171 432>
VStem: 22 556<281 290>
LayerCount: 2
Fore
SplineSet
432 262 m 1x60
 171 262 l 1x60
 196 220 211 181 211 170 c 0
 211 165 207 151 190 151 c 0
 182 151 181 152 137 198 c 0xa0
 117 219 75 252 36 270 c 0
 33 271 22 277 22 285 c 0
 22 295 26 297 53 311 c 0
 80 325 127 355 163 396 c 0
 178 413 180 415 190 415 c 0
 205 415 211 403 211 396 c 0
 211 395 209 367 171 312 c 1
 432 312 l 1
 398 359 392 393 392 396 c 0x60
 392 402 397 415 412 415 c 0
 421 415 423 414 446 388 c 0
 489 340 555 308 559 306 c 0
 567 302 578 298 578 286 c 0
 578 276 573 273 554 265 c 0
 552 264 498 238 438 168 c 0
 429 157 423 151 413 151 c 0
 396 151 392 164 392 169 c 0xa0
 392 183 409 222 432 262 c 1x60
EndSplineSet
EndChar

StartChar: SF240000
Encoding: 344 9553 237
Width: 600
Flags: MW
HStem: -288 1080<192 264 192 264 336 408 192 336>
VStem: 192 72<-288 792 -288 792> 336 72<-288 792>
LayerCount: 2
Fore
SplineSet
408 -288 m 1
 336 -288 l 1
 336 792 l 1
 408 792 l 1
 408 -288 l 1
192 -288 m 1
 192 792 l 1
 264 792 l 1
 264 -288 l 1
 192 -288 l 1
EndSplineSet
EndChar

StartChar: Eng
Encoding: 345 330 238
Width: 600
Flags: W
HStem: -137 52<273 341 263 348> 0 47<52 137 187 263 42 137> 516 47<162 236 152 297> 524 52<457 509.5>
VStem: 565 51<447 471 444 476.5>
LayerCount: 2
Fore
SplineSet
162 563 m 1xe8
 297 563 l 1xe8
 283 497 l 1
 331 525 414 576 500 576 c 0
 604 576 616 489 616 453 c 0
 616 435 612 414 611 409 c 2
 529 21 l 2
 506 -88 412 -137 341 -137 c 2
 263 -137 l 1
 273 -85 l 1
 348 -85 l 2
 438 -85 472 -10 479 21 c 2
 561 413 l 2
 565 431 565 444 565 450 c 0
 565 503 531 524 488 524 c 0
 416 524 325 476 269 430 c 1xd8
 187 47 l 1
 273 47 l 1
 263 0 l 1
 42 0 l 1
 52 47 l 1
 137 47 l 1
 236 516 l 1
 152 516 l 1
 162 563 l 1xe8
EndSplineSet
EndChar

StartChar: SF390000
Encoding: 346 9556 239
Width: 600
Flags: MW
HStem: 144 72<408 600 408 408> 288 72<264 264 264 600>
VStem: 192 72<-288 288 -288 360> 336 72<-288 144 -288 216>
LayerCount: 2
Fore
SplineSet
336 216 m 1
 600 216 l 1
 600 144 l 1
 408 144 l 1
 408 -288 l 1
 336 -288 l 1
 336 216 l 1
264 288 m 1
 264 -288 l 1
 192 -288 l 1
 192 360 l 1
 600 360 l 1
 600 288 l 1
 264 288 l 1
EndSplineSet
EndChar

StartChar: Theta
Encoding: 347 920 240
Width: 600
Flags: MW
HStem: -17 47<248.5 378 248.5 393.5> 263 47<274 442 264 452> 533 47<330.5 467>
VStem: 92 54<163 280.5 163 295> 568 54<275.5 396.5>
LayerCount: 2
Fore
SplineSet
241 377 m 1
 288 377 l 1
 274 310 l 1
 452 310 l 1
 466 377 l 1
 513 377 l 1
 475 196 l 1
 428 196 l 1
 442 263 l 1
 264 263 l 1
 250 196 l 1
 202 196 l 1
 241 377 l 1
92 207 m 0
 92 383 223 580 415 580 c 0
 563 580 622 462 622 352 c 0
 622 177 488 -17 299 -17 c 0
 161 -17 92 92 92 207 c 0
146 211 m 0
 146 115 196 30 301 30 c 0
 455 30 568 200 568 351 c 0
 568 442 523 533 411 533 c 0
 250 533 146 350 146 211 c 0
EndSplineSet
EndChar

StartChar: Omega
Encoding: 348 8486 241
Width: 600
Flags: MW
HStem: 0 47<88 214 88 252 403 530> 532 48<331 466>
VStem: 90 54<208.5 338.5 208.5 349> 590 53<364 410>
LayerCount: 2
Fore
SplineSet
31 0 m 1
 55 103 l 1
 102 103 l 1
 88 47 l 1
 214 47 l 1
 223 85 l 1
 191 96 90 129 90 272 c 0
 90 426 220 580 408 580 c 0
 548 580 643 490 643 371 c 0
 643 357 643 144 411 85 c 1
 403 47 l 1
 530 47 l 1
 544 103 l 1
 591 103 l 1
 567 0 l 1
 346 0 l 1
 371 118 l 1
 411 127 458 137 506 180 c 0
 554 223 590 294 590 367 c 0
 590 453 526 532 406 532 c 0
 256 532 144 409 144 268 c 0
 144 149 238 127 277 118 c 1
 252 0 l 1
 31 0 l 1
EndSplineSet
EndChar

StartChar: Thorn
Encoding: 349 222 242
Width: 600
Flags: MW
HStem: 0 47<101 183 231 336 91 183> 123 47<257 305 247 310> 418 47<320 375 375 410 310 375> 516 47<211 282 201 455 331 331 331 445>
VStem: 566 54<298 345 297.5 368.5>
LayerCount: 2
Fore
SplineSet
231 47 m 1
 346 47 l 1
 336 0 l 1
 91 0 l 1
 101 47 l 1
 183 47 l 1
 282 516 l 1
 201 516 l 1
 211 563 l 1
 455 563 l 1
 445 516 l 1
 331 516 l 1
 320 465 l 1
 375 465 l 2
 484 465 544 464 585 423 c 0
 613 395 620 360 620 330 c 0
 620 265 584 208 547 176 c 0
 486 124 413 123 305 123 c 2
 247 123 l 1
 231 47 l 1
410 418 m 2
 310 418 l 1
 257 170 l 1
 310 170 l 2
 399 170 467 169 511 207 c 0
 542 234 566 277 566 319 c 0
 566 418 471 418 410 418 c 2
EndSplineSet
EndChar

StartChar: spade
Encoding: 350 9824 243
Width: 600
Flags: MW
HStem: 0 17<122 177 119 177> 543 20G
VStem: 298 8<194 213 176 213>
LayerCount: 2
Fore
SplineSet
298 194 m 2
 298 213 l 1
 296 213 l 1
 285 186 277 174 263 161 c 0
 239 138 209 126 178 126 c 0
 123 126 78 172 78 227 c 0
 78 275 103 317 164 367 c 0
 200 396 204 400 222 420 c 0
 269 471 289 506 301 563 c 1
 318 491 344 452 423 381 c 0
 502 309 522 278 522 228 c 0
 522 170 479 126 422 126 c 0
 374 126 337 154 308 213 c 1
 306 213 l 1
 306 139 318 101 349 68 c 0
 379 36 416 21 478 17 c 1
 482 0 l 1
 119 0 l 1
 122 17 l 1
 232 17 297 82 298 194 c 2
EndSplineSet
EndChar

StartChar: sevensuperior
Encoding: 351 8311 244
Width: 600
Flags: MW
HStem: 579 34<331 498 331 331>
VStem: 285 257<525 613>
LayerCount: 2
Fore
SplineSet
304 613 m 1
 542 613 l 1
 535 581 l 1
 350 248 l 1
 308 248 l 1
 498 579 l 1
 331 579 l 1
 320 525 l 1
 285 525 l 1
 304 613 l 1
EndSplineSet
EndChar

StartChar: zerosuperior
Encoding: 352 8304 245
Width: 600
Flags: MW
HStem: 239 33<337.5 366.5 337.5 370.5> 588 33<413.5 442.5>
VStem: 265 38<321.5 381 321.5 383.5> 477 38<480 539.5>
LayerCount: 2
Fore
SplineSet
430 621 m 0
 485 621 515 584 515 517 c 0
 515 438 488 343 451 293 c 0
 425 258 390 239 351 239 c 0
 296 239 265 277 265 344 c 0
 265 423 293 518 330 567 c 0
 357 602 390 621 430 621 c 0
426 588 m 0
 401 588 379 577 360 552 c 0
 329 511 303 417 303 345 c 0
 303 298 321 272 354 272 c 0
 379 272 402 285 421 309 c 0
 453 350 477 444 477 516 c 0
 477 563 459 588 426 588 c 0
EndSplineSet
EndChar

StartChar: onehalf
Encoding: 353 189 246
Width: 600
Flags: W
HStem: -80 37<403 549 403 577> 249 38<72 156 195 269 64 156> 256 37<520.5 550.5> 593 20G<711 711> 602 20G<241 267 267 267>
VStem: 596 41<193.5 215.5>
LayerCount: 2
Fore
SplineSet
129 575 m 1xcc
 241 622 l 1
 267 622 l 1
 195 287 l 1
 277 287 l 1
 269 249 l 1
 64 249 l 1
 72 287 l 1
 156 287 l 1
 218 574 l 1
 137 539 l 1
 129 575 l 1xcc
686 633 m 1
 711 613 l 1xb4
 51 -90 l 1
 28 -68 l 1
 686 633 l 1
561 15 m 1
 598 15 l 1
 577 -80 l 1
 336 -80 l 1
 345 -41 l 1
 354 -34 l 2
 390 -9 467 49 508 81 c 0
 562 123 576 137 586 158 c 0
 593 172 596 187 596 200 c 0
 596 231 568 256 533 256 c 0
 508 256 482 244 464 227 c 0
 452 217 451 213 447 193 c 1
 407 193 l 1
 417 239 l 1
 455 275 497 293 541 293 c 0
 595 293 637 253 637 202 c 0
 637 163 616 124 579 92 c 0
 552 68 529 50 461 -1 c 0
 437 -19 430 -24 403 -41 c 1
 403 -43 l 1
 549 -43 l 1
 561 15 l 1
EndSplineSet
EndChar

StartChar: IJ
Encoding: 354 306 247
Width: 600
Flags: W
HStem: -17 50<397.5 435 393.5 455> 0 47<47 135 185 260 37 135> 516 47<157 234 147 382 285 372 285 285 482 570 620 620 620 684>
VStem: 37 657<0 563>
LayerCount: 2
Fore
SplineSet
157 563 m 1x70
 382 563 l 1
 372 516 l 1
 285 516 l 1
 185 47 l 1
 270 47 l 1
 260 0 l 1
 37 0 l 1
 47 47 l 1
 135 47 l 1
 234 516 l 1
 147 516 l 1
 157 563 l 1x70
482 563 m 1
 694 563 l 1
 684 516 l 1
 620 516 l 1
 554 204 l 2
 533 104 507 -17 403 -17 c 0
 392 -17 332 -17 303 47 c 1
 334 215 l 1
 384 215 l 1
 376 165 l 2
 363 89 363 89 363 76 c 0
 363 57 378 33 409 33 c 0xb0
 461 33 479 90 504 204 c 2
 570 516 l 1
 472 516 l 1
 482 563 l 1
EndSplineSet
EndChar

StartChar: SF450000
Encoding: 355 9575 248
Width: 600
Flags: MW
HStem: 144 72<0 600 0 600> 288 72<0 264 336 600 0 264>
VStem: 264 72<360 792>
LayerCount: 2
Fore
SplineSet
336 360 m 1
 600 360 l 1
 600 288 l 1
 0 288 l 1
 0 360 l 1
 264 360 l 1
 264 792 l 1
 336 792 l 1
 336 360 l 1
600 144 m 1
 0 144 l 1
 0 216 l 1
 600 216 l 1
 600 144 l 1
EndSplineSet
EndChar

StartChar: SM790000
Encoding: 356 8962 249
Width: 600
Flags: MW
HStem: 0 53<126 474 126 527> 547 20G<300 300>
VStem: 73 53<53 290 53 312 53 312> 474 53<53 290 290 290>
LayerCount: 2
Fore
SplineSet
73 0 m 1
 73 312 l 1
 300 567 l 1
 527 312 l 1
 527 0 l 1
 73 0 l 1
126 290 m 1
 126 53 l 1
 474 53 l 1
 474 290 l 1
 300 485 l 1
 126 290 l 1
EndSplineSet
EndChar

StartChar: SF090000
Encoding: 357 9508 250
Width: 600
Flags: MW
HStem: 216 72<0 264 0 264>
VStem: 264 72<-288 216 216 216 288 792>
LayerCount: 2
Fore
SplineSet
336 -288 m 1
 264 -288 l 1
 264 216 l 1
 0 216 l 1
 0 288 l 1
 264 288 l 1
 264 792 l 1
 336 792 l 1
 336 -288 l 1
EndSplineSet
EndChar

StartChar: eth
Encoding: 358 240 251
Width: 600
Flags: W
HStem: -14 47<244.5 377.5 244.5 384.5> 403 47<312.5 414.5 301.5 438> 587 20G<422 422> 612 20G<381 381>
VStem: 92 54<143 227.5 143 238.5> 542 60<209 301>
LayerCount: 2
Fore
SplineSet
385 571 m 1
 316 486 l 1
 278 516 l 1
 344 593 l 1
 299 616 279 625 242 638 c 1
 269 680 l 1
 313 666 335 655 381 632 c 1
 436 698 l 1
 474 669 l 1xdc
 422 607 l 1xec
 519 550 602 445 602 299 c 0
 602 119 473 -14 296 -14 c 0
 177 -14 92 50 92 169 c 0
 92 308 214 450 389 450 c 0
 440 450 492 438 530 405 c 1
 532 407 l 1
 515 438 478 511 385 571 c 1
388 403 m 0
 237 403 146 280 146 175 c 0
 146 111 184 33 305 33 c 0
 450 33 542 154 542 261 c 0
 542 341 488 403 388 403 c 0
EndSplineSet
EndChar

StartChar: eng
Encoding: 359 331 252
Width: 600
Flags: W
HStem: -139 51<244 301 232 308> 0 47<42 124 175 249 32 124> 383 47<124 196 113 258> 394 51<393.5 445>
VStem: 499 51<312 342>
LayerCount: 2
Fore
SplineSet
232 314 m 1xf8
 175 47 l 1
 258 47 l 1
 249 0 l 1
 32 0 l 1
 42 47 l 1
 124 47 l 1
 196 383 l 1
 113 383 l 1
 124 430 l 1
 258 430 l 1xe8
 244 375 l 1
 297 407 357 445 430 445 c 0
 511 445 550 389 550 321 c 0
 550 303 546 283 545 279 c 2
 490 21 l 2
 466 -91 371 -139 301 -139 c 2
 232 -139 l 1
 244 -88 l 1
 308 -88 l 2
 389 -88 431 -20 440 21 c 2
 494 279 l 2
 496 289 499 302 499 317 c 0
 499 367 466 394 424 394 c 0
 358 394 299 358 232 314 c 1xf8
EndSplineSet
EndChar

StartChar: arrowleft
Encoding: 360 8592 253
Width: 600
Flags: MW
HStem: 262 50<164 574 164 574>
VStem: 18 556<283 293.5>
LayerCount: 2
Fore
SplineSet
574 312 m 1
 574 262 l 1
 164 262 l 1
 201 207 204 179 204 178 c 0
 204 175 201 159 183 159 c 0
 174 159 167 167 149 186 c 0
 105 233 45 265 37 269 c 0
 28 273 18 277 18 289 c 0
 18 298 27 302 42 310 c 0
 78 326 125 361 152 392 c 0
 170 413 173 416 183 416 c 0
 198 416 204 404 204 397 c 0
 204 376 174 327 164 312 c 1
 574 312 l 1
EndSplineSet
EndChar

StartChar: rcedilla
Encoding: 361 343 254
Width: 600
Flags: W
HStem: -142 45<306 330.5 306 356> -22 21G<357 357> 0 47<83 208 259 319 73 208 364 438 364 364> 383 47<173 280 163 340> 392 49<471 523 471 533>
VStem: 367 48<-87 -73.5>
LayerCount: 2
Fore
SplineSet
364 0 m 1xb4
 357 -22 l 1xd4
 396 -28 415 -48 415 -78 c 0
 415 -111 388 -142 324 -142 c 0
 279 -142 234 -131 214 -127 c 1
 230 -83 l 1
 249 -88 285 -97 327 -97 c 0
 334 -97 367 -96 367 -78 c 0
 367 -69 367 -62 300 -60 c 1
 319 0 l 1
 73 0 l 1
 83 47 l 1
 208 47 l 1
 280 383 l 1
 163 383 l 1
 173 430 l 1
 340 430 l 1xb4
 320 340 l 1
 322 338 l 1
 365 382 426 441 516 441 c 0
 530 441 611 441 632 338 c 1
 576 332 l 1
 568 359 557 392 509 392 c 0xac
 432 392 345 306 302 250 c 1
 259 47 l 1
 448 47 l 1
 438 0 l 1
 364 0 l 1xb4
EndSplineSet
EndChar

StartChar: plusminus
Encoding: 362 177 255
Width: 600
Flags: MW
HStem: 30 50<132 598 132 598> 135 21G<340 390 340 340> 331 50<132 340 132 340 390 598> 556 20G<340 390 390 390>
VStem: 340 50<135 331 135 331 381 576>
LayerCount: 2
Fore
SplineSet
340 576 m 1
 390 576 l 1
 390 381 l 1
 598 381 l 1
 598 331 l 1
 390 331 l 1
 390 135 l 1
 340 135 l 1
 340 331 l 1
 132 331 l 1
 132 381 l 1
 340 381 l 1
 340 576 l 1
132 80 m 1
 598 80 l 1
 598 30 l 1
 132 30 l 1
 132 80 l 1
EndSplineSet
EndChar

StartChar: Gamma
Encoding: 363 915 256
Width: 600
Flags: MW
HStem: 0 47<73 151 202 323 63 151> 516 47<170 251 160 651 301 589 301 301>
VStem: 63 588<0 563>
LayerCount: 2
Fore
SplineSet
170 563 m 1
 651 563 l 1
 616 380 l 1
 569 380 l 1
 589 516 l 1
 301 516 l 1
 202 47 l 1
 333 47 l 1
 323 0 l 1
 63 0 l 1
 73 47 l 1
 151 47 l 1
 251 516 l 1
 160 516 l 1
 170 563 l 1
EndSplineSet
EndChar

StartChar: underscorebroken
Encoding: 364 -1 257
Width: 600
Flags: MW
HStem: -125 50<44 556 44 556>
VStem: 44 512<-125 -75 -125 -75>
LayerCount: 2
Fore
SplineSet
44 -75 m 1
 556 -75 l 1
 556 -125 l 1
 44 -125 l 1
 44 -75 l 1
EndSplineSet
EndChar

StartChar: SF150000
Encoding: 365 9618 258
Width: 600
Flags: W
HStem: -267 100<101 199 0 100 301 399 501 600> -167 100<0 99 0 99 101 199 201 299 301 399 401 499 501 600> -67 100<0 99 0 99 101 199 0 101 201 299 301 399 401 499 501 600> 33 100<0 99 0 99 101 199 201 299 301 399 401 499 501 600> 133 100<0 99 0 99 101 199 0 101 201 299 301 399 401 499 501 600> 233 100<0 99 0 99 101 199 201 299 301 399 401 499 501 600> 333 100<0 99 0 99 101 199 0 101 201 299 301 399 401 499 501 600> 433 100<0 99 0 99 101 199 201 299 301 399 401 499 501 600> 533 100<0 99 0 99 101 199 0 101 201 299 301 399 401 499 501 600> 633 100<0 99 0 100 0 199 0 199 201 201 201 299 401 401 401 499>
VStem: 0 100<-166 -68 34 132 234 332 434 532 634 733> 100 100<-267 -168 -267 -168 -166 -68 -267 -166 -66 32 34 132 134 232 234 332 334 432 434 532 534 632 634 733> 200 100<-267 -168 -267 -168 -166 -68 -66 32 34 132 134 232 234 332 334 432 434 532 534 632 634 733> 300 100<-267 -168 -267 -168 -166 -68 -267 -166 -66 32 34 132 134 232 234 332 334 432 434 532 534 632 634 733> 400 100<-267 -168 -267 -168 -166 -68 -66 32 34 132 134 232 234 332 334 432 434 532 534 632 634 733> 500 100<-267 -168 -168 -168 -267 -68 -267 -166 -66 32 32 32 134 232 232 232 334 432 432 432 534 632 632 632>
LayerCount: 2
Fore
SplineSet
0 733 m 1xaa69
 100 733 l 1
 100 634 l 1
 99 633 l 1
 0 633 l 1
 0 733 l 1xaa69
200 733 m 1
 300 733 l 1
 300 634 l 1
 299 633 l 1
 201 633 l 1
 200 634 l 1
 200 733 l 1
400 733 m 1x0042
 500 733 l 1
 500 634 l 1
 499 633 l 1
 401 633 l 1
 400 634 l 1
 400 733 l 1x0042
100 632 m 1x0095
 101 633 l 1
 199 633 l 1
 200 632 l 1
 200 534 l 1
 199 533 l 1
 101 533 l 1
 100 534 l 1
 100 632 l 1x0095
300 632 m 1
 301 633 l 1
 399 633 l 1
 400 632 l 1
 400 534 l 1
 399 533 l 1
 301 533 l 1
 300 534 l 1
 300 632 l 1
501 633 m 1
 600 633 l 1
 600 533 l 1
 501 533 l 1
 500 534 l 1
 500 632 l 1
 501 633 l 1
0 533 m 1x012a
 99 533 l 1
 100 532 l 1
 100 434 l 1
 99 433 l 1
 0 433 l 1
 0 533 l 1x012a
200 532 m 1
 201 533 l 1
 299 533 l 1
 300 532 l 1
 300 434 l 1
 299 433 l 1
 201 433 l 1
 200 434 l 1
 200 532 l 1
400 532 m 1
 401 533 l 1
 499 533 l 1
 500 532 l 1
 500 434 l 1
 499 433 l 1
 401 433 l 1
 400 434 l 1
 400 532 l 1
100 432 m 1x0215
 101 433 l 1
 199 433 l 1
 200 432 l 1
 200 334 l 1
 199 333 l 1
 101 333 l 1
 100 334 l 1
 100 432 l 1x0215
300 432 m 1
 301 433 l 1
 399 433 l 1
 400 432 l 1
 400 334 l 1
 399 333 l 1
 301 333 l 1
 300 334 l 1
 300 432 l 1
501 433 m 1
 600 433 l 1
 600 333 l 1
 501 333 l 1
 500 334 l 1
 500 432 l 1
 501 433 l 1
0 333 m 1x042a
 99 333 l 1
 100 332 l 1
 100 234 l 1
 99 233 l 1
 0 233 l 1
 0 333 l 1x042a
200 332 m 1
 201 333 l 1
 299 333 l 1
 300 332 l 1
 300 234 l 1
 299 233 l 1
 201 233 l 1
 200 234 l 1
 200 332 l 1
400 332 m 1
 401 333 l 1
 499 333 l 1
 500 332 l 1
 500 234 l 1
 499 233 l 1
 401 233 l 1
 400 234 l 1
 400 332 l 1
100 232 m 1x0815
 101 233 l 1
 199 233 l 1
 200 232 l 1
 200 134 l 1
 199 133 l 1
 101 133 l 1
 100 134 l 1
 100 232 l 1x0815
300 232 m 1
 301 233 l 1
 399 233 l 1
 400 232 l 1
 400 134 l 1
 399 133 l 1
 301 133 l 1
 300 134 l 1
 300 232 l 1
501 233 m 1
 600 233 l 1
 600 133 l 1
 501 133 l 1
 500 134 l 1
 500 232 l 1
 501 233 l 1
0 133 m 1x102a
 99 133 l 1
 100 132 l 1
 100 34 l 1
 99 33 l 1
 0 33 l 1
 0 133 l 1x102a
200 132 m 1
 201 133 l 1
 299 133 l 1
 300 132 l 1
 300 34 l 1
 299 33 l 1
 201 33 l 1
 200 34 l 1
 200 132 l 1
400 132 m 1
 401 133 l 1
 499 133 l 1
 500 132 l 1
 500 34 l 1
 499 33 l 1
 401 33 l 1
 400 34 l 1
 400 132 l 1
100 32 m 1x2015
 101 33 l 1
 199 33 l 1
 200 32 l 1
 200 -66 l 1
 199 -67 l 1
 101 -67 l 1
 100 -66 l 1
 100 32 l 1x2015
300 32 m 1
 301 33 l 1
 399 33 l 1
 400 32 l 1
 400 -66 l 1
 399 -67 l 1
 301 -67 l 1
 300 -66 l 1
 300 32 l 1
501 33 m 1
 600 33 l 1
 600 -67 l 1
 501 -67 l 1
 500 -66 l 1
 500 32 l 1
 501 33 l 1
0 -67 m 1x402a
 99 -67 l 1
 100 -68 l 1
 100 -166 l 1
 99 -167 l 1
 0 -167 l 1
 0 -67 l 1x402a
200 -68 m 1
 201 -67 l 1
 299 -67 l 1
 300 -68 l 1
 300 -166 l 1
 299 -167 l 1
 201 -167 l 1
 200 -166 l 1
 200 -68 l 1
400 -68 m 1
 401 -67 l 1
 499 -67 l 1
 500 -68 l 1
 500 -166 l 1
 499 -167 l 1
 401 -167 l 1
 400 -166 l 1
 400 -68 l 1
101 -167 m 1x8015
 199 -167 l 1
 200 -168 l 1
 200 -267 l 1
 100 -267 l 1
 100 -168 l 1
 101 -167 l 1x8015
301 -167 m 1
 399 -167 l 1
 400 -168 l 1
 400 -267 l 1
 300 -267 l 1
 300 -168 l 1
 301 -167 l 1
501 -167 m 1
 600 -167 l 1
 600 -267 l 1
 500 -267 l 1
 500 -168 l 1
 501 -167 l 1
EndSplineSet
EndChar

StartChar: SF080000
Encoding: 366 9500 259
Width: 600
Flags: MW
HStem: 216 72<336 600 336 600>
VStem: 264 72<-288 216 288 792>
LayerCount: 2
Fore
SplineSet
264 -288 m 1
 264 792 l 1
 336 792 l 1
 336 288 l 1
 600 288 l 1
 600 216 l 1
 336 216 l 1
 336 -288 l 1
 264 -288 l 1
EndSplineSet
EndChar

StartChar: foursuperior
Encoding: 367 8308 260
Width: 600
Flags: W
HStem: 248 32<300 380 414 461 293 380> 335 32<278 391 433 480 278 426> 570 51<442 442> 601 20G<441 487 487 487>
VStem: 233 254<335 367>
LayerCount: 2
Fore
SplineSet
487 621 m 1xd8
 433 367 l 1
 487 367 l 1
 480 335 l 1
 426 335 l 1
 414 280 l 1
 468 280 l 1
 461 248 l 1
 293 248 l 1
 300 280 l 1
 380 280 l 1
 391 335 l 1
 233 335 l 1
 241 373 l 1
 441 621 l 1
 487 621 l 1xd8
399 367 m 1
 442 570 l 1
 440 572 l 1xe8
 278 367 l 1
 399 367 l 1
EndSplineSet
EndChar

StartChar: SF380000
Encoding: 368 9562 261
Width: 600
Flags: MW
HStem: 144 72<264 600 264 600> 288 72<408 600 408 600>
VStem: 192 72<216 216 216 792> 336 72<360 792 360 792 360 792>
LayerCount: 2
Fore
SplineSet
336 288 m 1
 336 792 l 1
 408 792 l 1
 408 360 l 1
 600 360 l 1
 600 288 l 1
 336 288 l 1
264 216 m 1
 600 216 l 1
 600 144 l 1
 192 144 l 1
 192 792 l 1
 264 792 l 1
 264 216 l 1
EndSplineSet
EndChar

StartChar: Iogonek
Encoding: 369 302 262
Width: 600
Flags: MW
HStem: -117 52<271.5 319> 0 47<108 283 108 283 98 283 369 369 369 498> 516 47<218 382 208 618 433 433 433 608>
VStem: 236 62<-58 -54>
LayerCount: 2
Fore
SplineSet
368 -39 m 1
 347 -94 l 1
 336 -101 314 -117 284 -117 c 0
 259 -117 236 -101 236 -70 c 0
 236 -38 259 -15 283 -2 c 1
 283 0 l 1
 98 0 l 1
 108 47 l 1
 283 47 l 1
 382 516 l 1
 208 516 l 1
 218 563 l 1
 618 563 l 1
 608 516 l 1
 433 516 l 1
 334 47 l 1
 508 47 l 1
 498 0 l 1
 369 0 l 1
 352 -5 298 -24 298 -52 c 0
 298 -64 309 -65 312 -65 c 0
 326 -65 330 -62 368 -39 c 1
EndSplineSet
EndChar

StartChar: SF500000
Encoding: 370 9560 263
Width: 600
Flags: MW
HStem: 144 72<336 600 336 600> 288 72<336 600 336 600>
VStem: 264 72<216 288 360 792>
LayerCount: 2
Fore
SplineSet
264 792 m 1
 336 792 l 1
 336 360 l 1
 600 360 l 1
 600 288 l 1
 336 288 l 1
 336 216 l 1
 600 216 l 1
 600 144 l 1
 264 144 l 1
 264 792 l 1
EndSplineSet
EndChar

StartChar: female
Encoding: 371 9792 264
Width: 600
Flags: MW
HStem: 163 47<154 276 154 276 326 448> 275 50<274 276 274 339> 513 50<274 326>
VStem: 156 50<393 445 393 457.5> 276 50<38 163 38 163 210 275> 394 50<393 445>
LayerCount: 2
Fore
SplineSet
326 275 m 1
 326 210 l 1
 448 210 l 1
 448 163 l 1
 326 163 l 1
 326 38 l 1
 276 38 l 1
 276 163 l 1
 154 163 l 1
 154 210 l 1
 276 210 l 1
 276 275 l 1
 237 275 156 326 156 417 c 0
 156 498 220 563 300 563 c 0
 383 563 444 494 444 418 c 0
 444 322 352 275 326 275 c 1
300 513 m 0
 248 513 206 471 206 419 c 0
 206 367 248 325 300 325 c 0
 352 325 394 367 394 419 c 0
 394 471 352 513 300 513 c 0
EndSplineSet
EndChar

StartChar: SF040000
Encoding: 372 9496 265
Width: 600
Flags: MW
HStem: 216 72<0 264 0 336 0 264>
VStem: 264 72<288 792 216 792>
LayerCount: 2
Fore
SplineSet
264 288 m 1
 264 792 l 1
 336 792 l 1
 336 216 l 1
 0 216 l 1
 0 288 l 1
 264 288 l 1
EndSplineSet
EndChar

StartChar: eightsuperior
Encoding: 373 8312 266
Width: 600
Flags: W
HStem: 239 33<335.5 380 335.5 387.5> 413 20G<451 451> 415 35<376.5 408.5> 588 33<400.5 443>
VStem: 253 38<312.5 347> 297 38<489.5 527.5 489.5 534.5> 453 38<335.5 375> 484 38<519 552.5>
LayerCount: 2
Fore
SplineSet
253 327 m 0xfe
 253 367 284 412 326 432 c 1
 331 435 l 1
 329 436 l 1
 309 451 297 476 297 503 c 0
 297 566 359 621 429 621 c 0
 483 621 522 587 522 540 c 0xb5
 522 498 498 462 451 433 c 1
 454 432 l 1
 476 418 491 390 491 362 c 0
 491 297 424 239 351 239 c 0
 292 239 253 275 253 327 c 0xfe
335 504 m 0xb5
 335 475 360 450 393 450 c 0
 440 450 484 493 484 538 c 0
 484 567 460 588 426 588 c 0
 375 588 335 551 335 504 c 0xb5
291 329 m 0xba
 291 296 317 272 354 272 c 0
 406 272 453 313 453 358 c 0
 453 392 428 415 389 415 c 0
 336 415 291 374 291 329 c 0xba
EndSplineSet
EndChar

StartChar: Eogonek
Encoding: 374 280 267
Width: 600
Flags: MW
HStem: -117 52<390.5 438> 0 47<65 151 201 402 55 151 488 488 488 499> 274 47<259 411 250 421> 516 47<175 250 165 651 301 301 301 589>
VStem: 354 63<-58 -54>
LayerCount: 2
Fore
SplineSet
487 -39 m 1
 466 -94 l 1
 455 -101 433 -117 403 -117 c 0
 378 -117 354 -101 354 -70 c 0
 354 -38 378 -15 402 -2 c 1
 402 0 l 1
 55 0 l 1
 65 47 l 1
 151 47 l 1
 250 516 l 1
 165 516 l 1
 175 563 l 1
 651 563 l 1
 616 379 l 1
 570 379 l 1
 589 516 l 1
 301 516 l 1
 259 321 l 1
 421 321 l 1
 437 394 l 1
 483 394 l 1
 442 202 l 1
 396 202 l 1
 411 274 l 1
 250 274 l 1
 201 47 l 1
 499 47 l 1
 533 184 l 1
 580 184 l 1
 541 0 l 1
 488 0 l 1
 471 -5 417 -24 417 -52 c 0
 417 -64 428 -65 431 -65 c 0
 445 -65 449 -62 487 -39 c 1
EndSplineSet
EndChar

StartChar: mu
Encoding: 376 181 269
Width: 600
Flags: W
HStem: -14 49<273 316.5 267 329> 0 41<487 560> 388 42<125 199 116 257 438 510>
VStem: 85 484<-149 41>
LayerCount: 2
Fore
SplineSet
125 430 m 1x70
 257 430 l 1
 207 195 l 2
 205 185 196 145 196 122 c 0
 196 79 239 35 295 35 c 0
 338 35 389 55 416 82 c 0xb0
 448 114 459 143 470 195 c 2
 510 388 l 1
 428 388 l 1
 438 430 l 1
 569 430 l 1
 487 41 l 1
 569 41 l 1
 560 0 l 1
 428 0 l 1x70
 438 49 l 1
 436 51 l 1
 412 26 367 -14 291 -14 c 0
 255 -14 209 0 177 51 c 1xb0
 135 -149 l 1
 85 -149 l 1
 199 388 l 1
 116 388 l 1
 125 430 l 1x70
EndSplineSet
EndChar

StartChar: hbar
Encoding: 377 295 270
Width: 600
Flags: W
HStem: 0 47<45 132 180 252 36 132 363 450 500 573> 381 51<389.5 444.5> 473 47<132 221 123 232 281 500 132 271> 573.5 55.5 597 20G<154 154>
VStem: 501 49<307 335>
LayerCount: 2
Fore
SplineSet
271 473 m 1xf4
 244 361 l 1
 288 389 353 432 426 432 c 0
 483 432 550 393 550 315 c 0
 550 294 545 267 544 262 c 2
 500 47 l 1
 584 47 l 1
 573 0 l 1
 354 0 l 1
 363 47 l 1
 450 47 l 1
 494 262 l 2
 495 269 501 297 501 317 c 0
 501 353 465 381 424 381 c 0
 353 381 282 335 232 298 c 1
 180 47 l 1
 262 47 l 1
 252 0 l 1
 36 0 l 1
 45 47 l 1
 132 47 l 1
 221 473 l 1
 123 473 l 1
 132 520 l 1
 232 520 l 1
 244 577 l 1
 148 570 l 1xf4
 154 617 l 1xec
 304 629 l 1
 281 520 l 1
 509 520 l 1
 500 473 l 1
 271 473 l 1xf4
EndSplineSet
EndChar

StartChar: Gcedilla
Encoding: 378 290 271
Width: 600
Flags: W
HStem: -142 45<301 325.5 301 351> -22 21G<352 352> -17 50<308 308> -15 48<266.5 354> 201 46<382 521 372 629 571 571 571 619> 530 50<351 446.5> 543 20G<613 613>
VStem: 98 54<157 291 157 295.5> 362 47<-87 -73.5> 565 48<364 372>
LayerCount: 2
Fore
SplineSet
354 -15 m 1xbdc0
 352 -22 l 1xcdc0
 391 -28 409 -48 409 -78 c 0
 409 -111 383 -142 319 -142 c 0
 274 -142 228 -131 208 -127 c 1
 225 -83 l 1
 243 -88 280 -97 322 -97 c 0
 329 -97 362 -96 362 -78 c 0
 362 -69 362 -62 294 -60 c 1
 308 -17 l 1
 150 -11 98 96 98 204 c 0
 98 387 241 580 431 580 c 0
 504 580 546 541 557 530 c 0
 561 525 576 500 582 500 c 0xadc0
 592 500 612 561 613 563 c 2
 659 555 l 1xabc0
 650 530 621 448 613 372 c 1
 565 364 l 1
 567 396 569 430 551 465 c 0
 523 519 467 530 426 530 c 0
 276 530 152 376 152 206 c 0
 152 108 203 33 330 33 c 0
 364 33 407 38 492 66 c 1xadc0
 521 201 l 1
 372 201 l 1
 382 247 l 1
 629 247 l 1
 619 201 l 1
 571 201 l 1
 535 31 l 1
 472 7 415 -9 354 -15 c 1xbdc0
EndSplineSet
EndChar

StartChar: SF270000
Encoding: 379 9564 272
Width: 600
Flags: MW
HStem: 216 72<0 192 264 336 0 192>
VStem: 192 72<288 792> 336 72<288 792 216 792>
LayerCount: 2
Fore
SplineSet
264 288 m 1
 336 288 l 1
 336 792 l 1
 408 792 l 1
 408 216 l 1
 0 216 l 1
 0 288 l 1
 192 288 l 1
 192 792 l 1
 264 792 l 1
 264 288 l 1
EndSplineSet
EndChar

StartChar: Lquoteright
Encoding: 380 -1 273
Width: 600
Flags: MW
HStem: 0 47<67 167 217 500 57 167> 516 47<177 267 167 450 317 440 317 317>
VStem: 57 588<0 563>
LayerCount: 2
Fore
SplineSet
177 563 m 1
 450 563 l 1
 440 516 l 1
 317 516 l 1
 217 47 l 1
 500 47 l 1
 557 249 l 1
 605 249 l 1
 540 0 l 1
 57 0 l 1
 67 47 l 1
 167 47 l 1
 267 516 l 1
 167 516 l 1
 177 563 l 1
540 563 m 1
 645 563 l 1
 484 320 l 1
 411 320 l 1
 540 563 l 1
EndSplineSet
EndChar

StartChar: SF540000
Encoding: 381 9578 274
Width: 600
Flags: MW
HStem: 144 72<0 264 0 264 336 600> 288 72<0 264 0 264 336 600>
VStem: 264 72<-288 144 -288 144 216 288 360 792>
LayerCount: 2
Fore
SplineSet
336 360 m 1
 600 360 l 1
 600 288 l 1
 336 288 l 1
 336 216 l 1
 600 216 l 1
 600 144 l 1
 336 144 l 1
 336 -288 l 1
 264 -288 l 1
 264 144 l 1
 0 144 l 1
 0 216 l 1
 264 216 l 1
 264 288 l 1
 0 288 l 1
 0 360 l 1
 264 360 l 1
 264 792 l 1
 336 792 l 1
 336 360 l 1
EndSplineSet
EndChar

StartChar: greaterequal
Encoding: 382 8805 275
Width: 600
Flags: MW
HStem: 33 51<158 623 158 623> 132 21G<161 161> 556 20G<161 161>
VStem: 141 492<177 357 357 531>
LayerCount: 2
Fore
SplineSet
161 576 m 1
 633 357 l 1
 161 132 l 1
 141 177 l 1
 522 356 l 1
 141 531 l 1
 161 576 l 1
158 84 m 1
 623 84 l 1
 623 33 l 1
 158 33 l 1
 158 84 l 1
EndSplineSet
EndChar

StartChar: SF510000
Encoding: 383 9554 276
Width: 600
Flags: MW
HStem: 144 72<336 600 336 600> 288 72<336 600 336 336>
VStem: 264 72<-288 144 216 288>
LayerCount: 2
Fore
SplineSet
336 216 m 1
 600 216 l 1
 600 144 l 1
 336 144 l 1
 336 -288 l 1
 264 -288 l 1
 264 360 l 1
 600 360 l 1
 600 288 l 1
 336 288 l 1
 336 216 l 1
EndSplineSet
EndChar

StartChar: Eth
Encoding: 384 208 277
Width: 600
Flags: MW
HStem: 0 47<42 121 170 280 32 121> 274 47<100 170 90 180 100 220 231 385> 516 47<152 220 142 400 272 272 272 395>
VStem: 566 54<356 398.5>
LayerCount: 2
Fore
SplineSet
170 274 m 1
 90 274 l 1
 100 321 l 1
 180 321 l 1
 220 516 l 1
 142 516 l 1
 152 563 l 1
 400 563 l 2
 488 563 522 553 551 532 c 0
 595 500 620 437 620 375 c 0
 620 337 610 199 515 91 c 0
 435 0 325 0 280 0 c 2
 32 0 l 1
 42 47 l 1
 121 47 l 1
 170 274 l 1
385 274 m 1
 220 274 l 1
 170 47 l 1
 287 47 l 2
 326 47 413 47 477 122 c 0
 549 207 566 312 566 360 c 0
 566 437 532 476 516 489 c 0
 498 504 476 516 395 516 c 2
 272 516 l 1
 231 321 l 1
 395 321 l 1
 385 274 l 1
EndSplineSet
EndChar

StartChar: SF190000
Encoding: 385 9569 278
Width: 600
Flags: MW
HStem: 144 72<0 264 0 264> 288 72<0 264 0 264>
VStem: 264 72<-288 144 144 144 216 288 288 288 360 792>
LayerCount: 2
Fore
SplineSet
336 -288 m 1
 264 -288 l 1
 264 144 l 1
 0 144 l 1
 0 216 l 1
 264 216 l 1
 264 288 l 1
 0 288 l 1
 0 360 l 1
 264 360 l 1
 264 792 l 1
 336 792 l 1
 336 -288 l 1
EndSplineSet
EndChar

StartChar: overline
Encoding: 386 8254 279
Width: 600
Flags: MW
HStem: 725 50<44 556 44 556>
VStem: 44 512<725 775 725 775>
LayerCount: 2
Fore
SplineSet
44 775 m 1
 556 775 l 1
 556 725 l 1
 44 725 l 1
 44 775 l 1
EndSplineSet
EndChar

StartChar: heart
Encoding: 387 9829 280
Width: 600
Flags: MW
HStem: -11 21G 428 20G<300 302 302 302> 543 20G<135 200 413 463.5>
VStem: 51 498<419 477.5>
LayerCount: 2
Fore
SplineSet
185 203 m 2
 133 272 l 2
 68 357 51 394 51 444 c 0
 51 511 102 563 168 563 c 0
 232 563 275 525 300 448 c 1
 302 448 l 1
 311 483 319 499 336 518 c 0
 361 547 395 563 431 563 c 0
 496 563 549 512 549 448 c 0
 549 389 524 336 452 245 c 0
 406 187 396 174 378 148 c 0
 335 83 315 43 301 -11 c 1
 292 21 286 38 275 62 c 0
 258 97 223 153 185 203 c 2
EndSplineSet
EndChar

StartChar: SM580000
Encoding: 388 -1 281
Width: 600
Flags: MW
HStem: 67 430<240.5 359.5>
VStem: 85 430<222.5 341>
LayerCount: 2
Fore
SplineSet
300 497 m 0
 419 497 515 401 515 282 c 0
 515 163 419 67 300 67 c 0
 181 67 85 163 85 282 c 0
 85 400 181 497 300 497 c 0
EndSplineSet
EndChar

StartChar: threequarters
Encoding: 389 190 282
Width: 600
Flags: W
HStem: -80 36<428 508 546 592 420 508> 235 21G<566 566> 241 37<169.5 212 169.5 218.5> 425 36<201 241> 427 20G 585 37<240.5 267> 593 20G<735 735>
VStem: 286 41<347.5 390> 304 41<530.5 553>
LayerCount: 2
Fore
SplineSet
619 293 m 1xad
 565 43 l 1
 619 43 l 1
 611 6 l 1
 557 6 l 1
 546 -44 l 1
 600 -44 l 1
 592 -80 l 1
 420 -80 l 1
 428 -44 l 1
 508 -44 l 1
 519 6 l 1
 360 6 l 1
 369 47 l 1
 570 293 l 1
 619 293 l 1xad
527 43 m 1
 568 233 l 1
 566 235 l 1xd480
 411 43 l 1
 527 43 l 1
156 549 m 1
 142 582 l 1
 199 613 224 622 257 622 c 0
 308 622 345 590 345 546 c 0xac80
 345 506 325 472 286 447 c 1xad
 315 428 327 406 327 375 c 0
 327 303 259 241 178 241 c 0
 149 241 129 247 87 265 c 2
 68 273 l 1
 90 307 l 1
 128 287 156 278 183 278 c 0
 241 278 286 321 286 374 c 0
 286 406 262 425 220 425 c 2
 204 424 l 1
 193 424 l 1
 201 461 l 1xb5
 241 462 257 467 277 484 c 0
 294 499 304 521 304 540 c 0
 304 566 283 585 251 585 c 0
 228 585 209 577 173 558 c 2
 156 549 l 1
710 633 m 1
 735 613 l 1xab
 75 -90 l 1
 52 -68 l 1
 710 633 l 1
EndSplineSet
EndChar

StartChar: SF230000
Encoding: 390 9571 283
Width: 600
Flags: MW
HStem: 144 72<0 192 0 264> 288 72<0 192 0 264 0 192>
VStem: 192 72<-288 144 144 144 360 792> 336 72<-288 792 -288 792>
LayerCount: 2
Fore
SplineSet
336 -288 m 1
 336 792 l 1
 408 792 l 1
 408 -288 l 1
 336 -288 l 1
192 144 m 1
 0 144 l 1
 0 216 l 1
 264 216 l 1
 264 -288 l 1
 192 -288 l 1
 192 144 l 1
264 288 m 1
 0 288 l 1
 0 360 l 1
 192 360 l 1
 192 792 l 1
 264 792 l 1
 264 288 l 1
EndSplineSet
EndChar

StartChar: SF110000
Encoding: 391 9474 284
Width: 600
Flags: MW
HStem: -288 1080<264 336 264 336>
VStem: 264 72<-288 792 -288 792>
LayerCount: 2
Fore
SplineSet
264 -288 m 1
 264 792 l 1
 336 792 l 1
 336 -288 l 1
 264 -288 l 1
EndSplineSet
EndChar

StartChar: fivesuperior
Encoding: 392 8309 285
Width: 600
Flags: W
HStem: 239 35<327 374 327 382.5> 410 20G<284 284> 448 33<383 408> 579 34<348 520 348 348>
VStem: 455 38<352.5 402.5>
LayerCount: 2
Fore
SplineSet
323 613 m 1
 527 613 l 1
 520 579 l 1
 348 579 l 1
 324 466 l 1
 354 477 371 481 395 481 c 0
 454 481 493 444 493 390 c 0
 493 307 425 239 340 239 c 0
 305 239 279 246 228 268 c 1
 246 298 l 1
 289 280 312 274 342 274 c 0
 406 274 455 322 455 383 c 0
 455 422 428 448 388 448 c 0
 362 448 345 443 297 421 c 1xf8
 284 430 l 1
 323 613 l 1
EndSplineSet
EndChar

StartChar: minussuperior
Encoding: 393 8315 286
Width: 600
Flags: MW
HStem: 408 43<222 540 222 540>
VStem: 222 318<408 451 408 451>
LayerCount: 2
Fore
SplineSet
540 451 m 1
 540 408 l 1
 222 408 l 1
 222 451 l 1
 540 451 l 1
EndSplineSet
EndChar

StartChar: ncedilla
Encoding: 394 326 287
Width: 600
Flags: W
HStem: -142 45<268 292.5 268 318> -22 22<319 319> 0 47<42 124 175 249 32 124 359 446 495 570> 383 47<124 196 113 258> 393 51<390 444.5>
VStem: 329 48<-87 -73.5> 502 49<317.5 346>
LayerCount: 2
Fore
SplineSet
124 430 m 1xb6
 258 430 l 1xd6
 244 371 l 1
 287 400 353 444 426 444 c 0
 482 444 551 406 551 325 c 0
 551 304 545 279 544 273 c 2
 495 47 l 1
 580 47 l 1
 570 0 l 1
 350 0 l 1
 359 47 l 1
 446 47 l 1
 495 273 l 2
 497 281 502 307 502 328 c 0
 502 364 467 393 422 393 c 0
 358 393 301 359 231 312 c 1xae
 175 47 l 1
 258 47 l 1
 249 0 l 1
 32 0 l 1
 42 47 l 1
 124 47 l 1
 196 383 l 1
 113 383 l 1
 124 430 l 1xb6
327 0 m 1
 319 -22 l 1
 333 -24 377 -31 377 -78 c 0
 377 -111 350 -142 286 -142 c 0
 241 -142 196 -131 176 -127 c 1
 192 -83 l 1
 211 -88 247 -97 289 -97 c 0
 296 -97 329 -96 329 -78 c 0
 329 -69 329 -62 262 -60 c 1
 282 0 l 1
 327 0 l 1
EndSplineSet
EndChar

StartChar: onequarter
Encoding: 395 188 288
Width: 600
Flags: W
HStem: -80 31<355 447 481 548 349 447> 245 31<496 510 496 496> 297 33<107 187 223 292 100 187> 593 20G<711 711> 594 31<170 243 163 286>
VStem: 28 683<-68 613>
LayerCount: 2
Fore
SplineSet
485 276 m 1xec
 550 276 l 1
 500 38 l 1
 574 38 l 1
 567 5 l 1
 493 5 l 1
 481 -49 l 1
 555 -49 l 1
 548 -80 l 1
 349 -80 l 1
 355 -49 l 1
 447 -49 l 1
 459 5 l 1
 273 5 l 1
 282 45 l 1
 485 276 l 1xec
510 245 m 1
 496 245 l 1
 315 38 l 1
 466 38 l 1
 510 245 l 1
170 625 m 1
 286 625 l 1
 223 330 l 1
 299 330 l 1
 292 297 l 1
 100 297 l 1
 107 330 l 1
 187 330 l 1xac
 243 594 l 1
 163 594 l 1
 170 625 l 1
686 633 m 1
 711 613 l 1xb4
 51 -90 l 1
 28 -68 l 1
 686 633 l 1
EndSplineSet
EndChar

StartChar: phi
Encoding: 396 966 289
Width: 600
Flags: W
HStem: -15 21G<293 293> -9 21G<244 244> 396 49<416.5 482> 415 20G<307 307>
VStem: 91 54<133.5 202.5 133.5 204> 545 54<217.5 298.5>
LayerCount: 2
Fore
SplineSet
307 435 m 1x7c
 296 385 l 1x5c
 177 339 145 227 145 178 c 0
 145 89 201 53 254 39 c 1
 299 252 l 2
 313 318 340 445 458 445 c 0
 539 445 599 370 599 270 c 0
 599 130 478 -19 293 -15 c 1xac
 263 -156 l 1
 212 -156 l 1
 244 -9 l 1
 143 9 91 76 91 169 c 0
 91 239 124 315 189 373 c 0
 233 412 263 421 307 435 c 1x7c
349 250 m 2
 303 33 l 1
 464 33 545 168 545 267 c 0
 545 330 513 396 451 396 c 0x6c
 382 396 363 318 349 250 c 2
EndSplineSet
EndChar

StartChar: highcomman
Encoding: 397 -1 290
Width: 600
Flags: W
HStem: 0 47<42 124 175 249 32 124 359 446 495 570> 383 47<124 196 113 258> 393 51<390 444.5> 550 130<59 225 59 225>
VStem: 502 49<317.5 346>
LayerCount: 2
Fore
SplineSet
124 680 m 1xd8
 225 680 l 1
 124 550 l 1
 59 550 l 1
 124 680 l 1xd8
124 430 m 1
 258 430 l 1xd8
 244 371 l 1
 287 400 353 444 426 444 c 0
 482 444 551 406 551 325 c 0
 551 304 545 279 544 273 c 2
 495 47 l 1
 580 47 l 1
 570 0 l 1
 350 0 l 1
 359 47 l 1
 446 47 l 1
 495 273 l 2
 497 281 502 307 502 328 c 0
 502 364 467 393 422 393 c 0
 358 393 301 359 231 312 c 1xb8
 175 47 l 1
 258 47 l 1
 249 0 l 1
 32 0 l 1
 42 47 l 1
 124 47 l 1
 196 383 l 1
 113 383 l 1
 124 430 l 1
EndSplineSet
EndChar

StartChar: yuan
Encoding: 398 -1 291
Width: 600
Flags: MW
HStem: 0 47<177 288 339 439 166 288> 179 47<187 316 177 326 187 366 376 504> 516 47<166 213 154 352 270 270 270 339 488 545 610 610 610 662>
VStem: 154 518<516 563>
LayerCount: 2
Fore
SplineSet
288 47 m 1
 316 179 l 1
 177 179 l 1
 187 226 l 1
 326 226 l 1
 339 286 l 1
 213 516 l 1
 154 516 l 1
 166 563 l 1
 352 563 l 1
 339 516 l 1
 270 516 l 1
 371 332 l 1
 545 516 l 1
 478 516 l 1
 488 563 l 1
 672 563 l 1
 662 516 l 1
 610 516 l 1
 389 286 l 1
 376 226 l 1
 513 226 l 1
 504 179 l 1
 366 179 l 1
 339 47 l 1
 449 47 l 1
 439 0 l 1
 166 0 l 1
 177 47 l 1
 288 47 l 1
EndSplineSet
EndChar

StartChar: oneeighth
Encoding: 399 8539 292
Width: 600
Flags: W
HStem: -88 37<455.5 499.5 455.5 507.5> 85 39<496.5 527.5> 249 38<72 156 195 269 64 156> 256 37<521 562.5> 593 20G<711 711> 602 20G<241 267 267 267>
VStem: 370 41<-13.5 21.5> 414 41<162.5 199 162.5 205> 572 41<9.5 47> 603 41<190 221.5>
LayerCount: 2
Fore
SplineSet
370 0 m 0xe680
 370 43 399 82 446 107 c 1
 424 127 414 147 414 173 c 0
 414 237 477 293 549 293 c 0
 604 293 644 258 644 210 c 0xd540
 644 170 620 133 575 105 c 1
 600 87 613 64 613 34 c 0
 613 -30 545 -88 470 -88 c 0
 411 -88 370 -53 370 0 c 0xe680
455 177 m 0xd540
 455 148 480 124 513 124 c 0
 559 124 603 165 603 208 c 0
 603 235 579 256 546 256 c 0
 496 256 455 221 455 177 c 0xd540
411 2 m 0xe680
 411 -29 437 -51 474 -51 c 0
 525 -51 572 -12 572 31 c 0
 572 63 547 85 508 85 c 0
 457 85 411 46 411 2 c 0xe680
129 575 m 1
 241 622 l 1
 267 622 l 1
 195 287 l 1
 277 287 l 1
 269 249 l 1
 64 249 l 1
 72 287 l 1
 156 287 l 1
 218 574 l 1
 137 539 l 1
 129 575 l 1
686 633 m 1
 711 613 l 1xea80
 51 -90 l 1
 28 -68 l 1
 686 633 l 1
EndSplineSet
EndChar

StartChar: tcedilla
Encoding: 400 355 293
Width: 600
Flags: W
HStem: -142 45<295 319.5 295 345.5> -22 21G<346 346> -14 49<349 349> 369 47<193 251 183 260 193 300 309 522> 369 194<183 340 183 340 300 300 300 340 292 522>
VStem: 196 52<91 95.5> 357 47<-87 -73.5>
LayerCount: 2
Fore
SplineSet
349 -14 m 1xb6
 346 -22 l 1xd6
 385 -28 404 -48 404 -78 c 0
 404 -111 377 -142 314 -142 c 0
 268 -142 223 -131 203 -127 c 1
 219 -83 l 1
 238 -88 274 -97 316 -97 c 0
 323 -97 357 -96 357 -78 c 0
 357 -69 357 -62 289 -60 c 1
 304 -13 l 1
 205 -1 196 69 196 84 c 0
 196 107 206 155 211 180 c 2
 251 369 l 1
 183 369 l 1
 193 416 l 1
 260 416 l 1xb6
 292 563 l 1
 340 563 l 1xae
 309 416 l 1
 532 416 l 1
 522 369 l 1
 300 369 l 1
 260 180 l 2
 258 171 248 120 248 95 c 0
 248 87 251 35 331 35 c 0
 388 35 461 58 545 92 c 1
 545 42 l 1
 509 27 420 -8 349 -14 c 1xb6
EndSplineSet
EndChar

StartChar: musicalnotedbl
Encoding: 401 9835 294
Width: 600
Flags: W
HStem: -20 21G<75 130> -20 152<117.5 130> 24 153<415 428.5> 330 21G<479 479> 549 20G<529 529>
VStem: 182 50<127 262 338 413> 479 50<171 330 330 330 405 481 481 481>
LayerCount: 2
Fore
SplineSet
479 171 m 1xbe
 479 330 l 1
 232 262 l 1
 232 116 l 2
 232 13 154 -20 106 -20 c 0
 44 -20 43 19 43 34 c 0
 43 83 88 132 147 132 c 0
 159 132 169 130 182 127 c 1x5e
 182 479 l 1
 529 569 l 1
 529 161 l 2
 529 59 453 24 404 24 c 0
 373 24 341 37 341 78 c 0
 341 127 385 177 445 177 c 0
 457 177 467 175 479 171 c 1xbe
232 413 m 1
 232 338 l 1
 479 405 l 1
 479 481 l 1
 232 413 l 1
EndSplineSet
EndChar

StartChar: SF220000
Encoding: 402 9557 295
Width: 600
Flags: MW
HStem: 144 72<0 264 0 264> 288 72<0 264 0 336>
VStem: 264 72<-288 144 144 144 216 288 288 288>
LayerCount: 2
Fore
SplineSet
0 216 m 1
 264 216 l 1
 264 288 l 1
 0 288 l 1
 0 360 l 1
 336 360 l 1
 336 -288 l 1
 264 -288 l 1
 264 144 l 1
 0 144 l 1
 0 216 l 1
EndSplineSet
EndChar

StartChar: SM600000
Encoding: 403 9650 296
Width: 600
Flags: MW
HStem: 95 371<102 300 300 300 300 498>
VStem: 102 396<95 95>
LayerCount: 2
Fore
SplineSet
102 95 m 1
 300 466 l 1
 498 95 l 1
 102 95 l 1
EndSplineSet
EndChar

StartChar: multiply
Encoding: 404 215 297
Width: 600
Flags: MW
HStem: 433 20G<183 183 547 547>
VStem: 183 364<160 160 160 453>
LayerCount: 2
Fore
SplineSet
330 306 m 1
 183 453 l 1
 219 488 l 1
 365 342 l 1
 511 488 l 1
 547 453 l 1
 400 306 l 1
 547 160 l 1
 511 124 l 1
 365 271 l 1
 219 124 l 1
 183 160 l 1
 330 306 l 1
EndSplineSet
EndChar

StartChar: Phi
Encoding: 405 934 298
Width: 600
Flags: MW
HStem: 0 47<205 283 333 415 195 283> 89 46<292 302 302 342> 430 44<364 374 374 415> 516 47<302 383 292 521 433 511 433 433>
VStem: 98 54<223.5 254.5> 566 54<311.5 337.5 311.5 373>
LayerCount: 2
Fore
SplineSet
521 563 m 1
 511 516 l 1
 433 516 l 1
 424 474 l 1
 448 473 509 471 553 443 c 0
 604 410 620 357 620 318 c 0
 620 305 616 93 342 89 c 1
 333 47 l 1
 424 47 l 1
 415 0 l 1
 195 0 l 1
 205 47 l 1
 283 47 l 1
 292 89 l 1
 268 90 209 93 166 119 c 0
 116 149 98 203 98 244 c 0
 98 265 107 469 374 474 c 1
 383 516 l 1
 292 516 l 1
 302 563 l 1
 521 563 l 1
415 430 m 1
 352 135 l 1
 559 142 566 294 566 320 c 0
 566 426 456 429 415 430 c 1
302 135 m 1
 364 430 l 1
 338 429 278 428 228 393 c 0
 170 352 152 286 152 245 c 0
 152 140 259 136 302 135 c 1
EndSplineSet
EndChar

StartChar: pi
Encoding: 406 960 299
Width: 600
Flags: MW
HStem: 0 47<47 123 173 241 37 123 352 417 467 546> 383 47<115 194 105 625 245 488 245 245 539 615 539 539>
VStem: 37 588<0 430>
LayerCount: 2
Fore
SplineSet
625 430 m 1
 615 383 l 1
 539 383 l 1
 467 47 l 1
 556 47 l 1
 546 0 l 1
 342 0 l 1
 352 47 l 1
 417 47 l 1
 488 383 l 1
 245 383 l 1
 173 47 l 1
 251 47 l 1
 241 0 l 1
 37 0 l 1
 47 47 l 1
 123 47 l 1
 194 383 l 1
 105 383 l 1
 115 430 l 1
 625 430 l 1
EndSplineSet
EndChar

StartChar: SF360000
Encoding: 407 9566 300
Width: 600
Flags: MW
HStem: 144 72<336 600 336 600> 288 72<336 600 336 600>
VStem: 264 72<-288 144 216 288 360 792>
LayerCount: 2
Fore
SplineSet
264 -288 m 1
 264 792 l 1
 336 792 l 1
 336 360 l 1
 600 360 l 1
 600 288 l 1
 336 288 l 1
 336 216 l 1
 600 216 l 1
 600 144 l 1
 336 144 l 1
 336 -288 l 1
 264 -288 l 1
EndSplineSet
EndChar

StartChar: periodsuperior
Encoding: 408 -1 301
Width: 600
Flags: MW
HStem: 254 92<354 369.5>
VStem: 303 118<291.5 308>
LayerCount: 2
Fore
SplineSet
371 346 m 0
 399 346 421 329 421 308 c 0
 421 275 385 254 354 254 c 0
 330 254 303 267 303 293 c 0
 303 323 337 346 371 346 c 0
EndSplineSet
EndChar

StartChar: SF250000
Encoding: 409 9559 302
Width: 600
Flags: MW
HStem: 144 72<0 192 0 264> 288 72<0 336 0 408>
VStem: 192 72<-288 144 144 144> 336 72<-288 288 288 288>
LayerCount: 2
Fore
SplineSet
192 144 m 1
 0 144 l 1
 0 216 l 1
 264 216 l 1
 264 -288 l 1
 192 -288 l 1
 192 144 l 1
336 -288 m 1
 336 288 l 1
 0 288 l 1
 0 360 l 1
 408 360 l 1
 408 -288 l 1
 336 -288 l 1
EndSplineSet
EndChar

StartChar: SF200000
Encoding: 410 9570 303
Width: 600
Flags: MW
HStem: 216 72<0 192 0 192>
VStem: 192 72<-288 216 216 216 288 792 -288 792> 336 72<-288 792>
LayerCount: 2
Fore
SplineSet
264 792 m 1
 264 -288 l 1
 192 -288 l 1
 192 216 l 1
 0 216 l 1
 0 288 l 1
 192 288 l 1
 192 792 l 1
 264 792 l 1
408 -288 m 1
 336 -288 l 1
 336 792 l 1
 408 792 l 1
 408 -288 l 1
EndSplineSet
EndChar

StartChar: kcedilla
Encoding: 411 311 304
Width: 600
Flags: W
HStem: -142 45<256 280.5 256 306> -22 22<307 307> 0 47<61 144 61 184 52 144 364 429 487 562> 383 47<406 451 396 616 528 528 528 606> 573 56 596 20G<166 166>
VStem: 317 48<-87 -73.5>
LayerCount: 2
Fore
SplineSet
166 616 m 1xbe
 318 629 l 1
 235 241 l 1
 451 381 l 1
 451 383 l 1
 396 383 l 1
 406 430 l 1
 616 430 l 1
 606 383 l 1
 528 383 l 1
 331 253 l 1
 385 194 452 106 487 47 c 1
 572 47 l 1
 562 0 l 1
 354 0 l 1
 364 47 l 1
 429 47 l 1
 409 80 391 108 289 225 c 1
 223 182 l 1
 184 0 l 1
 52 0 l 1
 61 47 l 1
 144 47 l 1
 257 577 l 1
 161 569 l 1xba
 166 616 l 1xbe
314 0 m 1xda
 307 -22 l 1
 321 -24 365 -31 365 -78 c 0
 365 -111 338 -142 274 -142 c 0
 229 -142 184 -131 164 -127 c 1
 180 -83 l 1
 199 -88 235 -97 277 -97 c 0
 284 -97 317 -96 317 -78 c 0
 317 -69 317 -62 250 -60 c 1
 270 0 l 1
 314 0 l 1xda
EndSplineSet
EndChar

StartChar: Ccedilla
Encoding: 412 199 305
Width: 600
Flags: W
HStem: -142 45<304.5 326.5 304.5 352.5> -16 49<313 313 356 356> 368 133<603 608.5 603 626 582 608.5> 530 50<373.5 467.5> 543 20G<636 636>
VStem: 117 54<164.5 295.5 164.5 310.5> 365 48<-88 -74> 585 41<368 461.5>
LayerCount: 2
Fore
SplineSet
356 -16 m 1xd7
 356 -23 l 1
 376 -27 413 -35 413 -78 c 0
 413 -114 382 -142 323 -142 c 0
 277 -142 232 -132 212 -127 c 1
 228 -83 l 1
 250 -89 284 -97 325 -97 c 0
 328 -97 365 -97 365 -79 c 0
 365 -69 365 -63 298 -60 c 1
 313 -16 l 1
 268 -11 117 6 117 208 c 0
 117 413 275 580 452 580 c 0xd7
 507 580 545 561 574 533 c 0
 579 528 601 501 605 501 c 0
 612 501 619 518 622 525 c 2
 636 563 l 1
 676 555 l 1
 642 461 635 441 626 368 c 1
 582 368 l 1xef
 584 382 585 393 585 408 c 0
 585 515 485 530 450 530 c 0
 297 530 171 384 171 207 c 0
 171 122 208 33 347 33 c 0
 450 33 512 76 553 104 c 1
 582 62 l 1
 523 22 465 -11 356 -16 c 1xd7
EndSplineSet
EndChar

StartChar: fiveeighths
Encoding: 413 8541 306
Width: 600
Flags: W
HStem: -88 37<455.5 499.5 455.5 507.5> 85 39<496.5 527.5> 241 37<162.5 210 162.5 219> 256 37<521 562.5> 410 20G<119 119> 447 37<221 244.5> 576 38<187 359 187 187>
VStem: 292 41<356.5 405.5> 370 41<-13.5 21.5> 414 41<162.5 199 162.5 205> 572 41<9.5 47> 603 41<190 221.5>
LayerCount: 2
Fore
SplineSet
370 0 m 0xeba0
 370 43 399 82 446 107 c 1
 424 127 414 147 414 173 c 0
 414 237 477 293 549 293 c 0
 604 293 644 258 644 210 c 0xdb50
 644 170 620 133 575 105 c 1
 600 87 613 64 613 34 c 0
 613 -30 545 -88 470 -88 c 0
 411 -88 370 -53 370 0 c 0xeba0
455 177 m 0xdb50
 455 148 480 124 513 124 c 0
 559 124 603 165 603 208 c 0
 603 235 579 256 546 256 c 0
 496 256 455 221 455 177 c 0xdb50
411 2 m 0xeba0
 411 -29 437 -51 474 -51 c 0
 525 -51 572 -12 572 31 c 0
 572 63 547 85 508 85 c 0
 457 85 411 46 411 2 c 0xeba0
159 614 m 1
 367 614 l 1
 359 576 l 1
 187 576 l 1
 164 470 l 1
 192 480 210 484 232 484 c 0
 294 484 333 447 333 389 c 0
 333 308 262 241 176 241 c 0
 144 241 119 247 79 263 c 2
 62 270 l 1
 83 304 l 1
 120 287 147 278 178 278 c 0
 242 278 292 326 292 387 c 0
 292 424 265 447 224 447 c 0
 196 447 169 438 138 418 c 1xefa0
 119 430 l 1
 159 614 l 1
686 633 m 1
 711 613 l 1
 51 -90 l 1
 28 -68 l 1
 686 633 l 1
EndSplineSet
EndChar

StartChar: SF570000
Encoding: 414 9604 307
Width: 600
Flags: MW
HStem: -288 540<0 600 0 600>
VStem: 0 600<-288 252 -288 252>
LayerCount: 2
Fore
SplineSet
0 -288 m 1
 0 252 l 1
 600 252 l 1
 600 -288 l 1
 0 -288 l 1
EndSplineSet
EndChar

StartChar: minus
Encoding: 415 8722 308
Width: 600
Flags: MW
HStem: 278 50<131 599 131 599>
VStem: 131 468<278 328 278 328>
LayerCount: 2
Fore
SplineSet
599 328 m 1
 599 278 l 1
 131 278 l 1
 131 328 l 1
 599 328 l 1
EndSplineSet
EndChar

StartChar: SF590000
Encoding: 416 9616 309
Width: 600
Flags: MW
HStem: -288 1080<300 600 300 600>
VStem: 300 300<-288 792 -288 792>
LayerCount: 2
Fore
SplineSet
300 -288 m 1
 300 792 l 1
 600 792 l 1
 600 -288 l 1
 300 -288 l 1
EndSplineSet
EndChar

StartChar: ff
Encoding: 417 64256 310
Width: 600
Flags: W
HStem: 0 47<9 168 218 393 443 592 -1 168> 371 47<142 236 132 247 296 462 142 286 522 657> 578 47<379.5 445.5 649 660.5> 590 20G 596 20G<729.5 730>
VStem: -1 731<0 616>
LayerCount: 2
Fore
SplineSet
730 616 m 1xec
 710 567 l 1
 709 568 705 569 704 569 c 0
 689 573 672 578 649 578 c 0
 556 578 545 530 533 471 c 2
 522 418 l 1
 667 418 l 1
 657 371 l 1
 512 371 l 1
 443 47 l 1
 602 47 l 1
 592 0 l 1
 -1 0 l 1
 9 47 l 1
 168 47 l 1
 236 371 l 1
 132 371 l 1
 142 418 l 1
 247 418 l 1
 259 477 l 2
 272 542 293 625 444 625 c 0xe4
 499 625 544 616 576 610 c 1xd4
 592 615 604 618 616 621 c 0
 629 624 641 625 657 625 c 0xe4
 680 625 697 622 721 618 c 0
 722 617 729 616 730 616 c 1xec
472 418 m 1
 484 477 l 2
 488 491 497 538 518 567 c 1
 494 571 462 578 429 578 c 0
 330 578 321 530 308 471 c 2
 296 418 l 1
 472 418 l 1
286 371 m 1
 218 47 l 1
 393 47 l 1
 462 371 l 1
 286 371 l 1
EndSplineSet
Ligature2: "'liga' Standard Ligatures in Latin lookup 0 subtable" f f
EndChar

StartChar: ninesuperior
Encoding: 418 8313 311
Width: 600
Flags: MW
HStem: 239 33<234 306.5 234 306.5> 387 35<366 394.5> 586 35<397 440.5>
VStem: 292 38<464 509.5 464 515.5> 484 36<507 533>
LayerCount: 2
Fore
SplineSet
234 239 m 1
 243 273 l 1
 252 272 258 272 270 272 c 0
 343 272 380 286 417 328 c 0
 440 354 453 379 471 427 c 1
 469 429 l 1
 446 403 411 387 378 387 c 0
 328 387 292 425 292 478 c 0
 292 553 355 621 425 621 c 0
 482 621 520 577 520 512 c 0
 520 436 484 348 432 296 c 0
 392 256 342 236 273 238 c 2
 244 239 l 1
 234 239 l 1
482 486 m 1
 483 497 484 503 484 511 c 0
 484 555 459 586 422 586 c 0
 372 586 330 538 330 481 c 0
 330 447 351 422 381 422 c 0
 420 422 455 444 482 486 c 1
EndSplineSet
EndChar

StartChar: Ncedilla
Encoding: 419 325 312
Width: 600
Flags: W
HStem: -142 45<303.5 328 303.5 354> -60 60<26 297> -22 22<354 354> -13 55<470 487 470 525 434 487> 0 47<36 119 166 263 26 119> 516 47<146 216 136 316 263 279 263 263 487 584 631 631 631 699>
VStem: 365 47<-87 -73.5>
LayerCount: 2
Fore
SplineSet
146 563 m 1x8e
 316 563 l 1
 470 42 l 1
 487 42 l 1
 584 516 l 1
 476 516 l 1
 487 563 l 1
 709 563 l 1
 699 516 l 1
 631 516 l 1
 525 -13 l 1
 434 -13 l 1x96
 279 516 l 1
 263 516 l 1
 166 47 l 1
 274 47 l 1
 263 0 l 1
 26 0 l 1
 36 47 l 1
 119 47 l 1
 216 516 l 1
 136 516 l 1
 146 563 l 1x8e
362 0 m 1xa6
 354 -22 l 1xa6
 393 -28 412 -48 412 -78 c 0
 412 -111 386 -142 322 -142 c 0
 276 -142 231 -131 211 -127 c 1
 227 -83 l 1
 246 -88 283 -97 324 -97 c 0
 332 -97 365 -96 365 -78 c 0
 365 -69 365 -62 297 -60 c 1xc6
 317 0 l 1
 362 0 l 1xa6
EndSplineSet
EndChar

StartChar: seveneighths
Encoding: 420 8542 313
Width: 600
Flags: W
HStem: -88 37<455.5 499.5 455.5 507.5> 85 39<496.5 527.5> 256 37<521 562.5> 576 38<160 323 160 160>
VStem: 370 41<-13.5 21.5> 414 41<162.5 199 162.5 205> 572 41<9.5 47> 603 41<190 221.5>
LayerCount: 2
Fore
SplineSet
370 0 m 0xfa
 370 43 399 82 446 107 c 1
 424 127 414 147 414 173 c 0
 414 237 477 293 549 293 c 0
 604 293 644 258 644 210 c 0xf5
 644 170 620 133 575 105 c 1
 600 87 613 64 613 34 c 0
 613 -30 545 -88 470 -88 c 0
 411 -88 370 -53 370 0 c 0xfa
455 177 m 0xf5
 455 148 480 124 513 124 c 0
 559 124 603 165 603 208 c 0
 603 235 579 256 546 256 c 0
 496 256 455 221 455 177 c 0xf5
411 2 m 0xfa
 411 -29 437 -51 474 -51 c 0
 525 -51 572 -12 572 31 c 0
 572 63 547 85 508 85 c 0
 457 85 411 46 411 2 c 0xfa
130 614 m 1
 372 614 l 1
 365 579 l 1
 178 249 l 1
 132 249 l 1
 323 576 l 1
 160 576 l 1
 148 523 l 1
 110 523 l 1
 130 614 l 1
686 633 m 1
 711 613 l 1
 51 -90 l 1
 28 -68 l 1
 686 633 l 1
EndSplineSet
EndChar

StartChar: equivalence
Encoding: 421 8801 314
Width: 600
Flags: MW
HStem: 97 50<129 601 129 601> 278 50<129 601 129 601> 459 50<129 601 129 601>
VStem: 129 472<97 147 97 147 278 328 97 328 459 509 97 509>
LayerCount: 2
Fore
SplineSet
129 509 m 1
 601 509 l 1
 601 459 l 1
 129 459 l 1
 129 509 l 1
129 328 m 1
 601 328 l 1
 601 278 l 1
 129 278 l 1
 129 328 l 1
129 147 m 1
 601 147 l 1
 601 97 l 1
 129 97 l 1
 129 147 l 1
EndSplineSet
EndChar

StartChar: iogonek
Encoding: 422 303 315
Width: 600
Flags: MW
HStem: -117 52<274 322> 0 47<108 284 108 286 98 284 372 372 372 498> 383 47<218 355 208 416> 537 119<366 464 391 439>
VStem: 238 63<-58 -54>
LayerCount: 2
Fore
SplineSet
371 -39 m 1
 349 -94 l 1
 339 -101 317 -117 286 -117 c 0
 262 -117 238 -101 238 -70 c 0
 238 -38 262 -15 286 -2 c 1
 286 0 l 1
 98 0 l 1
 108 47 l 1
 284 47 l 1
 355 383 l 1
 208 383 l 1
 218 430 l 1
 416 430 l 1
 335 47 l 1
 508 47 l 1
 498 0 l 1
 372 0 l 1
 356 -4 301 -24 301 -52 c 0
 301 -64 312 -65 315 -65 c 0
 329 -65 333 -62 371 -39 c 1
366 537 m 1
 391 656 l 1
 464 656 l 1
 439 537 l 1
 366 537 l 1
EndSplineSet
EndChar

StartChar: SF210000
Encoding: 423 9558 316
Width: 600
Flags: MW
HStem: 216 72<0 192 0 408 264 336 264 264>
VStem: 192 72<-288 216 -288 216> 336 72<-288 216 216 216>
LayerCount: 2
Fore
SplineSet
264 216 m 1
 264 -288 l 1
 192 -288 l 1
 192 216 l 1
 0 216 l 1
 0 288 l 1
 408 288 l 1
 408 -288 l 1
 336 -288 l 1
 336 216 l 1
 264 216 l 1
EndSplineSet
EndChar

StartChar: ohm
Encoding: 424 8486 317
Width: 600
Flags: W
HStem: 0 47<32 204 74 204 74 253 396 526> 531 49<246.5 354>
VStem: 29 53<280 377.5 232 385.5> 32 42<47 113 47 113 47 113> 204 49<47 85 85 85> 347 49<47 85 47 118 47 118> 518 53<276.5 376.5> 526 42<47 113 0 113>
LayerCount: 2
Fore
SplineSet
32 0 m 1xdd
 32 113 l 1
 74 113 l 1
 74 47 l 1xdd
 204 47 l 1
 204 85 l 1
 164 96 138 105 107 132 c 0
 55 178 29 246 29 314 c 0
 29 457 142 580 300 580 c 0
 458 580 571 457 571 315 c 0
 571 238 538 171 492 131 c 0xee
 462 105 437 96 396 85 c 1
 396 47 l 1
 526 47 l 1
 526 113 l 1
 568 113 l 1
 568 0 l 1xdd
 347 0 l 1
 347 118 l 1
 390 127 518 154 518 309 c 0
 518 444 408 531 300 531 c 0
 193 531 82 445 82 310 c 0xee
 82 154 212 127 253 118 c 1
 253 0 l 1
 32 0 l 1xdd
EndSplineSet
EndChar

StartChar: Hbar
Encoding: 425 294 318
Width: 600
Flags: MW
HStem: 0 47<47 122 173 237 37 122 370 445 493 560> 267 47<229 493 221 502> 398 47<132 197 121 207 132 248 257 519 580 645> 516 47<157 221 146 358 272 272 272 347 479 544 594 594 594 670>
VStem: 37 643<0 563>
LayerCount: 2
Fore
SplineSet
257 445 m 1
 528 445 l 1
 544 516 l 1
 469 516 l 1
 479 563 l 1
 680 563 l 1
 670 516 l 1
 594 516 l 1
 580 445 l 1
 656 445 l 1
 645 398 l 1
 570 398 l 1
 493 47 l 1
 570 47 l 1
 560 0 l 1
 358 0 l 1
 370 47 l 1
 445 47 l 1
 493 267 l 1
 221 267 l 1
 173 47 l 1
 248 47 l 1
 237 0 l 1
 37 0 l 1
 47 47 l 1
 122 47 l 1
 197 398 l 1
 121 398 l 1
 132 445 l 1
 207 445 l 1
 221 516 l 1
 146 516 l 1
 157 563 l 1
 358 563 l 1
 347 516 l 1
 272 516 l 1
 257 445 l 1
519 398 m 1
 248 398 l 1
 229 314 l 1
 502 314 l 1
 519 398 l 1
EndSplineSet
EndChar

StartChar: SF030000
Encoding: 426 9488 319
Width: 600
Flags: MW
HStem: 216 72<0 336 0 264>
VStem: 264 72<-288 216 216 216>
LayerCount: 2
Fore
SplineSet
0 216 m 1
 0 288 l 1
 336 288 l 1
 336 -288 l 1
 264 -288 l 1
 264 216 l 1
 0 216 l 1
EndSplineSet
EndChar

StartChar: eogonek
Encoding: 427 281 320
Width: 600
Flags: MW
HStem: -117 52<316 363.5> -14 51 203 45<180 536 180 577 167 536> 396 49<332 446.5>
VStem: 112 54<144 180 144 234> 280 63<-58 -55.5> 538 54<269 304.5>
LayerCount: 2
Fore
SplineSet
413 -39 m 1
 391 -94 l 1
 380 -102 358 -117 328 -117 c 0
 304 -117 280 -101 280 -70 c 0
 280 -41 299 -23 309 -14 c 1
 180 -12 112 59 112 163 c 0
 112 305 235 445 401 445 c 0
 535 445 592 362 592 281 c 0
 592 253 585 231 577 203 c 1
 167 203 l 1
 166 194 166 186 166 174 c 0
 166 114 194 37 319 37 c 0
 376 37 438 51 541 96 c 1
 555 51 l 1
 497 23 481 19 410 -1 c 0
 402 -4 343 -23 343 -52 c 0
 343 -64 354 -65 357 -65 c 0
 370 -65 374 -62 413 -39 c 1
180 248 m 1
 536 248 l 1
 537 255 538 263 538 275 c 0
 538 334 498 396 395 396 c 0
 269 396 203 304 180 248 c 1
EndSplineSet
EndChar

StartChar: micro
Encoding: 428 181 321
Width: 600
Flags: W
HStem: -15 49<266.5 307 266.5 314.5> 0 47<488 561> 383 47<125 198 115 258 436 509>
VStem: 83 487<-156 47>
LayerCount: 2
Fore
SplineSet
125 430 m 1x70
 258 430 l 1
 208 194 l 2
 207 189 198 150 198 127 c 0
 198 80 236 34 297 34 c 0xb0
 317 34 435 35 469 194 c 2
 509 383 l 1
 427 383 l 1
 436 430 l 1
 570 430 l 1
 488 47 l 1
 570 47 l 1
 561 0 l 1
 427 0 l 1x70
 442 66 l 1
 440 68 l 1
 397 5 338 -15 291 -15 c 0
 207 -15 187 44 182 63 c 1
 180 63 l 1xb0
 134 -156 l 1
 83 -156 l 1
 198 383 l 1
 115 383 l 1
 125 430 l 1x70
EndSplineSet
EndChar

StartChar: epsilon
Encoding: 429 949 322
Width: 600
Flags: W
HStem: -15 49<239.5 320> 201 49<363 375> 402 49<322.5 379.5>
VStem: 124 54<90.5 123.5 90.5 143> 192 54<289 339.5 288.5 352.5> 478 45<291 299>
LayerCount: 2
Fore
SplineSet
519 457 m 1
 563 457 l 1
 546 413 529 347 523 299 c 1
 478 291 l 1
 480 325 481 340 474 357 c 0
 458 395 394 402 365 402 c 0
 280 402 246 357 246 322 c 0xec
 246 255 341 250 385 250 c 1
 375 201 l 1
 234 201 178 148 178 99 c 0
 178 82 191 34 288 34 c 0
 361 34 404 54 452 77 c 1
 455 27 l 2
 455 26 452 25 451 25 c 0
 421 12 362 -15 278 -15 c 0
 189 -15 124 26 124 98 c 0xfc
 124 188 223 217 263 227 c 1
 263 229 l 1
 241 229 192 261 192 317 c 0
 192 388 263 451 366 451 c 0
 425 451 474 430 493 410 c 0
 494 409 497 406 498 406 c 0
 504 406 515 440 519 457 c 1
EndSplineSet
EndChar

StartChar: Pts
Encoding: 430 8359 323
Width: 600
Flags: W
HStem: -7 44<494 528.5 494 536> -6 91<414 441 398 458> 0 47<16 78 126 186 6 78> 141 21G<574 616 574 574> 172 44<226 246 213 255 226 291 301 387> 185 44<514.5 533.5 514.5 534.5> 300 47<190 238 178 246> 516 47<112 178 102 333 226 226 226 326>
VStem: 222 46<54.5 57.5> 414 44<80.5 85> 431 42<148 163.5 148 179.5> 489 53<428.5 456.5> 572 42<64.5 79.5>
LayerCount: 2
Fore
SplineSet
196 47 m 1x3ba8
 186 0 l 1
 6 0 l 1
 16 47 l 1
 78 47 l 1
 178 516 l 1
 102 516 l 1
 112 563 l 1
 333 563 l 2
 392 563 463 561 505 525 c 0
 521 511 542 484 542 449 c 0
 542 404 511 364 478 340 c 0x3bb8
 422 300 343 300 238 300 c 2
 178 300 l 1
 126 47 l 1
 196 47 l 1x3ba8
326 516 m 2
 226 516 l 1
 190 347 l 1
 246 347 l 2
 335 347 400 347 442 373 c 0
 463 386 489 412 489 445 c 0
 489 468 471 484 461 492 c 0
 433 514 390 516 326 516 c 2
246 172 m 1
 213 172 l 1
 226 216 l 1
 255 216 l 1
 267 274 l 1
 313 274 l 1
 301 216 l 1
 398 216 l 1
 387 172 l 1
 291 172 l 1
 274 98 l 2
 273 93 268 73 268 60 c 0
 268 49 278 39 296 39 c 0
 326 39 359 55 375 62 c 1
 387 21 l 1
 370 12 338 -7 292 -7 c 0
 252 -7 222 18 222 49 c 0x9ba8
 222 66 228 90 229 98 c 2
 246 172 l 1
414 85 m 1x5bc8
 458 85 l 1x5bc8
 458 76 457 64 462 54 c 0x9bc8
 468 45 481 37 507 37 c 0
 550 37 572 56 572 73 c 0
 572 86 555 87 527 88 c 0
 490 89 431 93 431 149 c 0
 431 210 501 229 528 229 c 0
 539 229 565 226 574 222 c 0
 577 221 582 219 584 219 c 0
 586 219 592 233 593 233 c 2
 634 227 l 1
 622 190 619 178 616 141 c 1
 574 141 l 1
 573 166 l 2
 569 179 543 185 526 185 c 0
 497 185 473 171 473 156 c 0x97a8
 473 140 494 136 524 134 c 0
 566 131 614 128 614 79 c 0
 614 38 570 -7 502 -7 c 0
 477 -7 460 0 445 5 c 1
 441 -6 l 1
 398 -6 l 1x97c8
 411 37 412 43 414 85 c 1x5bc8
EndSplineSet
EndChar

StartChar: SF100000
Encoding: 431 9472 324
Width: 600
Flags: MW
HStem: 216 72<0 600 0 600>
VStem: 0 600<216 288 216 288>
LayerCount: 2
Fore
SplineSet
0 216 m 1
 0 288 l 1
 600 288 l 1
 600 216 l 1
 0 216 l 1
EndSplineSet
EndChar

StartChar: SF050000
Encoding: 432 9532 325
Width: 600
Flags: MW
HStem: 216 72<0 264 0 264 336 600>
VStem: 264 72<-288 216 -288 216 288 792>
LayerCount: 2
Fore
SplineSet
336 288 m 1
 600 288 l 1
 600 216 l 1
 336 216 l 1
 336 -288 l 1
 264 -288 l 1
 264 216 l 1
 0 216 l 1
 0 288 l 1
 264 288 l 1
 264 792 l 1
 336 792 l 1
 336 288 l 1
EndSplineSet
EndChar

StartChar: infinity
Encoding: 433 8734 326
Width: 600
Flags: MW
HStem: 189 50<479.5 531.5 479.5 539> 367 50<217 235 473.5 513.5>
VStem: 117 50<278.5 327.5 278.5 340.5> 563 50<299 326>
LayerCount: 2
Fore
SplineSet
365 342 m 1
 390 373 436 417 498 417 c 0
 559 417 613 378 613 304 c 0
 613 245 575 189 503 189 c 0
 439 189 397 232 365 266 c 1
 343 239 301 190 228 190 c 0
 174 190 117 227 117 302 c 0
 117 379 177 417 232 417 c 0
 307 417 364 343 365 342 c 1
398 304 m 1
 426 274 457 239 502 239 c 0
 561 239 563 294 563 304 c 0
 563 348 527 367 500 367 c 0
 447 367 410 319 398 304 c 1
333 304 m 1
 324 317 319 321 273 354 c 0
 258 365 239 367 231 367 c 0
 203 367 167 352 167 303 c 0
 167 254 204 240 225 240 c 0
 275 240 311 280 333 304 c 1
EndSplineSet
EndChar

StartChar: lessequal
Encoding: 434 8804 327
Width: 600
Flags: MW
HStem: 33 51<117 582 117 582> 132 21G<579 579> 556 20G<579 579>
VStem: 107 492<177 357>
LayerCount: 2
Fore
SplineSet
579 576 m 1
 599 531 l 1
 218 356 l 1
 599 177 l 1
 579 132 l 1
 107 357 l 1
 579 576 l 1
582 84 m 1
 582 33 l 1
 117 33 l 1
 117 84 l 1
 582 84 l 1
EndSplineSet
EndChar

StartChar: liter
Encoding: 435 -1 328
Width: 600
Flags: MW
HStem: -12 55<268.5 282.5 268.5 290> 148 21G<151 160> 572 49<392.5 405.5>
VStem: 186 76<51 69.5 51 79> 418 45<525 549>
LayerCount: 2
Fore
SplineSet
296 243 m 1
 291 221 262 85 262 54 c 0
 262 48 265 43 272 43 c 0
 293 43 309 73 312 78 c 0
 325 102 329 109 343 109 c 0
 360 109 362 94 362 90 c 0
 362 70 323 -12 257 -12 c 0
 226 -12 186 8 186 63 c 0
 186 95 191 122 199 173 c 1
 169 150 165 148 155 148 c 0
 147 148 136 157 136 167 c 0
 136 177 140 180 171 206 c 0
 176 210 193 225 212 243 c 1
 262 475 317 621 404 621 c 0
 449 621 463 580 463 544 c 0
 463 506 451 460 432 419 c 0
 404 362 400 358 296 243 c 1
313 323 m 1
 330 344 l 2
 367 384 418 473 418 541 c 0
 418 557 412 572 399 572 c 0
 386 572 378 558 375 555 c 0
 355 524 337 447 311 325 c 1
 313 323 l 1
EndSplineSet
EndChar

StartChar: logicalnot
Encoding: 436 172 329
Width: 600
Flags: MW
HStem: 386 52<129 506 129 558>
VStem: 506 52<169 386 386 386>
LayerCount: 2
Fore
SplineSet
129 438 m 1
 558 438 l 1
 558 169 l 1
 506 169 l 1
 506 386 l 1
 129 386 l 1
 129 438 l 1
EndSplineSet
EndChar

StartChar: SF140000
Encoding: 437 9617 330
Width: 600
Flags: MW
HStem: -167 100<0 100 0 100 200 300 400 500> 33 100<0 100 0 100 200 300 400 500> 233 100<0 100 0 100 200 300 400 500> 433 100<0 100 0 100 200 300 400 500> 633 100<0 100 0 100 200 300 400 500>
VStem: 0 100<-167 -67 -167 -67 33 133 233 333 433 533 633 733> 200 100<-167 -67 -167 -67 33 133 233 333 433 533 633 733> 400 100<-167 -67 -167 -67 33 133 233 333 433 533 633 733>
LayerCount: 2
Fore
SplineSet
500 533 m 1
 500 433 l 1
 400 433 l 1
 400 533 l 1
 500 533 l 1
300 533 m 1
 300 433 l 1
 200 433 l 1
 200 533 l 1
 300 533 l 1
500 333 m 1
 500 233 l 1
 400 233 l 1
 400 333 l 1
 500 333 l 1
300 333 m 1
 300 233 l 1
 200 233 l 1
 200 333 l 1
 300 333 l 1
500 133 m 1
 500 33 l 1
 400 33 l 1
 400 133 l 1
 500 133 l 1
300 133 m 1
 300 33 l 1
 200 33 l 1
 200 133 l 1
 300 133 l 1
500 -67 m 1
 500 -167 l 1
 400 -167 l 1
 400 -67 l 1
 500 -67 l 1
300 -67 m 1
 300 -167 l 1
 200 -167 l 1
 200 -67 l 1
 300 -67 l 1
100 533 m 1
 100 433 l 1
 0 433 l 1
 0 533 l 1
 100 533 l 1
100 333 m 1
 100 233 l 1
 0 233 l 1
 0 333 l 1
 100 333 l 1
100 133 m 1
 100 33 l 1
 0 33 l 1
 0 133 l 1
 100 133 l 1
100 -67 m 1
 100 -167 l 1
 0 -167 l 1
 0 -67 l 1
 100 -67 l 1
100 733 m 1
 100 633 l 1
 0 633 l 1
 0 733 l 1
 100 733 l 1
300 733 m 1
 300 633 l 1
 200 633 l 1
 200 733 l 1
 300 733 l 1
500 733 m 1
 500 633 l 1
 400 633 l 1
 400 733 l 1
 500 733 l 1
EndSplineSet
EndChar

StartChar: nsuperior
Encoding: 438 8319 331
Width: 600
Flags: W
HStem: 263 47<175 231 279 329 165 231 389 450 499 543> 524 46<231 279 221 336> 531 49<421 447.5>
VStem: 488 49<501.5 515>
LayerCount: 2
Fore
SplineSet
231 570 m 1xd0
 336 570 l 1xd0
 329 540 l 1
 354 556 393 580 449 580 c 0
 464 580 537 577 537 510 c 0
 537 493 534 475 532 466 c 2
 499 310 l 1
 553 310 l 1
 543 263 l 1
 379 263 l 1
 389 310 l 1
 450 310 l 1
 483 466 l 2
 484 470 488 488 488 502 c 0
 488 528 452 531 443 531 c 0
 387 531 345 501 317 482 c 1xb0
 279 310 l 1
 336 310 l 1
 329 263 l 1
 165 263 l 1
 175 310 l 1
 231 310 l 1
 279 524 l 1
 221 524 l 1
 231 570 l 1xd0
EndSplineSet
EndChar

StartChar: intersection
Encoding: 439 8745 332
Width: 600
Flags: MW
HStem: 0 21G<146 196 146 146 534 534 534 584> 530 50<339.5 389.5>
VStem: 146 50<0 250 250 253> 534 50<0 250 0 253 0 301.5>
LayerCount: 2
Fore
SplineSet
196 0 m 1
 146 0 l 1
 146 250 l 2
 146 368 146 428 180 480 c 0
 223 546 296 580 365 580 c 0
 450 580 516 532 550 480 c 0
 584 429 584 372 584 250 c 2
 584 0 l 1
 534 0 l 1
 534 253 l 2
 534 350 534 413 506 456 c 0
 473 507 414 530 365 530 c 0
 314 530 257 505 224 456 c 0
 195 413 196 351 196 253 c 2
 196 0 l 1
EndSplineSet
EndChar

StartChar: SF160000
Encoding: 440 9619 333
Width: 600
Flags: MW
HStem: -267 100<0 100 200 300 400 500 0 100> -67 100<0 100 0 100 200 300 400 500> 133 100<0 100 0 100 200 300 400 500> 333 100<0 100 0 100 200 300 400 500> 533 100<0 100 0 100 200 300 400 500>
VStem: 100 100<-167 -67 -167 -67 33 133 233 333 433 533 633 733> 300 100<-167 -67 -167 -67 33 133 233 333 433 533 633 733> 500 100<-167 -67 -67 -67 33 133 133 133 233 333 333 333 433 533 533 533 633 733>
LayerCount: 2
Fore
SplineSet
600 -267 m 1
 0 -267 l 1
 0 -167 l 1
 100 -167 l 1
 100 -67 l 1
 0 -67 l 1
 0 33 l 1
 100 33 l 1
 100 133 l 1
 0 133 l 1
 0 233 l 1
 100 233 l 1
 100 333 l 1
 0 333 l 1
 0 433 l 1
 100 433 l 1
 100 533 l 1
 0 533 l 1
 0 633 l 1
 100 633 l 1
 100 733 l 1
 200 733 l 1
 200 633 l 1
 300 633 l 1
 300 733 l 1
 400 733 l 1
 400 633 l 1
 500 633 l 1
 500 733 l 1
 600 733 l 1
 600 -267 l 1
500 233 m 1
 500 333 l 1
 400 333 l 1
 400 233 l 1
 500 233 l 1
300 233 m 1
 300 333 l 1
 200 333 l 1
 200 233 l 1
 300 233 l 1
500 33 m 1
 500 133 l 1
 400 133 l 1
 400 33 l 1
 500 33 l 1
300 33 m 1
 300 133 l 1
 200 133 l 1
 200 33 l 1
 300 33 l 1
500 433 m 1
 500 533 l 1
 400 533 l 1
 400 433 l 1
 500 433 l 1
300 433 m 1
 300 533 l 1
 200 533 l 1
 200 433 l 1
 300 433 l 1
500 -167 m 1
 500 -67 l 1
 400 -67 l 1
 400 -167 l 1
 500 -167 l 1
300 -167 m 1
 300 -67 l 1
 200 -67 l 1
 200 -167 l 1
 300 -167 l 1
EndSplineSet
EndChar

StartChar: SF260000
Encoding: 441 9565 334
Width: 600
Flags: MW
HStem: 144 72<0 336 0 408 0 336> 288 72<0 192 0 264 0 192>
VStem: 192 72<360 792> 336 72<216 792 144 792>
LayerCount: 2
Fore
SplineSet
264 288 m 1
 0 288 l 1
 0 360 l 1
 192 360 l 1
 192 792 l 1
 264 792 l 1
 264 288 l 1
336 216 m 1
 336 792 l 1
 408 792 l 1
 408 144 l 1
 0 144 l 1
 0 216 l 1
 336 216 l 1
EndSplineSet
EndChar

StartChar: notequal
Encoding: 442 8800 335
Width: 600
Flags: MW
HStem: 193 57<152 276 152 305 370 578 152 341> 352 57<152 356 152 384 450 578 152 421>
VStem: 152 426<193 250 193 250 352 409 193 409>
LayerCount: 2
Fore
SplineSet
421 352 m 1
 370 250 l 1
 578 250 l 1
 578 193 l 1
 341 193 l 1
 279 71 l 1
 225 92 l 1
 276 193 l 1
 152 193 l 1
 152 250 l 1
 305 250 l 1
 356 352 l 1
 152 352 l 1
 152 409 l 1
 384 409 l 1
 449 539 l 1
 505 518 l 1
 450 409 l 1
 578 409 l 1
 578 352 l 1
 421 352 l 1
EndSplineSet
EndChar

StartChar: filledbox
Encoding: 443 9632 336
Width: 600
Flags: MW
HStem: 141 198<201 399 201 399>
VStem: 201 198<141 339 141 339>
LayerCount: 2
Fore
SplineSet
201 141 m 1
 201 339 l 1
 399 339 l 1
 399 141 l 1
 201 141 l 1
EndSplineSet
EndChar

StartChar: lcedilla
Encoding: 444 316 337
Width: 600
Flags: W
HStem: -142 45<266 290.5 266 316> -22 21G<317 317> 0 47<110 279 100 285 332 497 110 324> 557 54
VStem: 327 47<-87 -73.5>
LayerCount: 2
Fore
SplineSet
324 0 m 1
 317 -22 l 1xd8
 331 -24 374 -31 374 -78 c 0
 374 -111 348 -142 284 -142 c 0
 239 -142 193 -131 173 -127 c 1
 190 -83 l 1
 208 -88 245 -97 287 -97 c 0
 294 -97 327 -96 327 -78 c 0
 327 -69 327 -62 260 -60 c 1
 279 0 l 1
 100 0 l 1
 110 47 l 1
 285 47 l 1
 394 563 l 1
 228 551 l 1
 233 597 l 1
 452 611 l 1
 332 47 l 1
 507 47 l 1
 497 0 l 1
 324 0 l 1
EndSplineSet
EndChar

StartChar: parenrightsuperior
Encoding: 445 8318 338
Width: 600
Flags: MW
HStem: 221 452<218 374 218 374>
VStem: 357 56<484.5 514.5 484.5 538.5>
LayerCount: 2
Fore
SplineSet
272 221 m 1
 218 221 l 1
 232 239 l 2
 314 341 357 420 357 514 c 0
 357 563 348 604 324 673 c 1
 374 673 l 1
 374 672 376 670 376 669 c 0
 413 595 413 522 413 507 c 0
 413 462 405 422 377 368 c 0
 350 317 314 264 280 228 c 1
 272 221 l 1
EndSplineSet
EndChar

StartChar: musicalnote
Encoding: 446 9834 339
Width: 600
Flags: W
HStem: 14 153<205.5 218> 130 21G 543 20G<271 321 321 321>
VStem: 271 50<162 383 510 563> 392 54<258 278.5>
LayerCount: 2
Fore
SplineSet
271 162 m 1xf8
 271 563 l 1
 321 563 l 1
 321 510 l 2
 324 506 329 499 331 498 c 0
 336 491 366 455 372 448 c 0
 390 427 446 360 446 266 c 0
 446 250 446 189 397 130 c 1
 360 130 l 1x78
 376 166 392 200 392 255 c 0
 392 302 370 362 321 383 c 1
 321 151 l 2
 321 47 242 14 194 14 c 0
 131 14 131 63 131 68 c 0
 131 118 176 167 235 167 c 0
 248 167 258 165 271 162 c 1xf8
EndSplineSet
EndChar

StartChar: parenleftsuperior
Encoding: 447 8317 340
Width: 600
Flags: MW
HStem: 221 452<404 560 404 560>
VStem: 365 56<372.5 436.5>
LayerCount: 2
Fore
SplineSet
506 673 m 1
 560 673 l 1
 492 588 421 497 421 380 c 0
 421 335 429 293 446 243 c 2
 451 230 l 2
 451 229 454 222 454 221 c 1
 404 221 l 1
 404 221 402 224 402 225 c 0
 369 292 365 359 365 386 c 0
 365 487 428 592 498 665 c 2
 506 673 l 1
EndSplineSet
EndChar

StartChar: longdash
Encoding: 448 -1 341
Width: 600
Flags: MW
HStem: 262 55<114 616 114 616>
VStem: 114 502<262 317 262 317>
LayerCount: 2
Fore
SplineSet
114 317 m 1
 616 317 l 1
 616 262 l 1
 114 262 l 1
 114 317 l 1
EndSplineSet
EndChar

